<mxfile host="Electron" agent="Mozilla/5.0 (Windows NT 10.0; Win64; x64) AppleWebKit/537.36 (KHTML, like Gecko) draw.io/28.2.5 Chrome/138.0.7204.251 Electron/37.6.1 Safari/537.36" version="28.2.5">
  <diagram name="Page-1" id="5HCaC-sQGysKYA5J3LBm">
    <mxGraphModel dx="1426" dy="841" grid="1" gridSize="10" guides="1" tooltips="1" connect="1" arrows="1" fold="1" page="1" pageScale="1" pageWidth="827" pageHeight="1169" math="0" shadow="0">
      <root>
        <mxCell id="0" />
        <mxCell id="1" parent="0" />
        <mxCell id="_Ju0IBZojeqm3KYI9w8C-11" value="&lt;font style=&quot;font-size: 14px;&quot;&gt;Data Sources&lt;/font&gt;" style="swimlane;whiteSpace=wrap;html=1;startSize=23;" vertex="1" parent="1">
          <mxGeometry x="257" y="489" width="254" height="190" as="geometry" />
        </mxCell>
        <mxCell id="_Ju0IBZojeqm3KYI9w8C-9" value="" style="shape=image;verticalLabelPosition=bottom;labelBackgroundColor=default;verticalAlign=top;aspect=fixed;imageAspect=0;image=data:image/png,iVBORw0KGgoAAAANSUhEUgAAARsAAABXCAIAAAC7onbVAAAPi0lEQVR4Ae1d308byR2P+tS+VKral6rt0z32oafef9A+3UN1fbhIJ92DqzNITiSIiFwiSkpRXXQWFSXliCykkDb26ciBr5eCCi24ujhHg6BAQ3IhNJzvKMHhAjkwlxicDeup1mZ3vzM7s7s245/5IkueHc989/v9zHzmx3e+u5wg+IcIIALyEDghTxRKQgQQAYKMwk6ACMhEABklE02UhQggo7APIAIyEUBGyUQTZSECyCjsA4iATASQUTLRRFmIADIK+wAiIBMBZJRMNFEWIoCMwj6ACMhEoNoZld39j5q8lk1/LtNolIUIlAyBamWUsnv4yflnIyeMjzL1ipoIlQwHFIwIyEGgGhml/i/y7IOvG1yCCWXq5WxqSY7pKAURKAECVceobOo2pJA1rcReKQEOKBIRkINA1THq+c3XrSxictS1iBzrUQoiIBuB6mJU9sl9hjzcy+fxn8rGAeUhAnIQqC5GHd6/wKWQNZMou3IAQCmIgFQEqotRz2fftJKHm6M+iknFAYUhAnIQqDJGzZzk8seaqT4YlgMASkEEpCKAjJIKJwp74RFARr3wXQABkIoAMkoqnCjshUcAGfXCdwEEQCoCyCipcKKwUiCgbi9d7jzV6PP4WkOT66W4g0SZyCiJYOZE3Y6c8vo8+qchtCj7BmWRtzke0E3wtI9vleWeopusXmkx8PR4faGbiqhkNeQjoyS3wnLIpJPWDxr75zOSb1EOcVXEqDvhRhrS6h6kkFFS+2dmLsQ0v9cXmq7qMZVvfzUz6uIcX+fqyEVGyWwHZbofrk+O0oGplMyblEVWORi1GWs3Jp/O2KbQLlz1CaFx/OF5bcdM7MUDRheBia74jqPpVVagmhhF0DNRdO+obUbtTAWN3bw/OjNy3piv2kaq3UPFNllVMYpVrqqvcdUnrXmSDIVgp/RHk9LuUxZBUPlS+frcrvrKYrC0myCjZEG5PnHOWOnldwVwEdgydFvWjcoiBxlVLMzIqGKRY+rdBcdQuisiHes2Fn6nLt9halT1JTKq2OYpB6PSt95/HD6Z7Pj2xq+/tf2n19LzV0Ta1u4+avWyeQoZnNw7MhA602vrYAoZJeqjTvmlZdTByt8f/va7D/wnmE/y/Df3l0asutUqoyBzvPBIV5nvM5aCzof9W2OdxpwWXtDhUbaXxwZ72lsajtweTc3+rtDI9NqOi2MuZW8tHh0MdvrPNBmST51t7QgOxmYTKRsBXEZR4SCuHJipyS7jvp5z0aRK2BNww5dDJwJjwJvOVUaHh/lWNhZjkf6gv1WLWsrJbDiTs3dhU1GZsrzLncTMyEBPe2uzT284X4s/0B8dW9xyd1JfQkYd/HeSIRJzebA8xthUo4xSbvbr3d3X0DdHddSFAeMnT/B6mjGYvrQwStmKD/j1nmF2TZ1aHZE7QoHq3tpYr7hurrvYhMnxOzHcK/pcODCp8vmpu4SMejQ31G4OHBa4fA1ne2P39OUDjbx2lVqJ9bSajUUzPCetqePy3BbVulYppfyvoV/0/pihEHP5xR9eZjSqTUbtzQT18czrM+eWvG3qnaEm41eHcZ1m1P7qlfO2DayJbQ4tckiVTkwE7PoW7G3+S3Np6+DNZxSBY4enKbJqrQhbFM5p+qK3RIzaivU2czhgIG8kmoJjvJOMjet9Z4wydomGtsgqB3HT7FLNUelb7zP84V4efHLN1IWQmmQUPIbidTJ45E8tZqDluTRkVDDY7UinPDFC0/uUJHUz1mnXJyCd8um2qwlKAiFEwChCDRAO61i4tzQcM6Vg1NZYl0us8vZaWqEwxBo6x7fEQ0mpGPU4fJJLISZz5+ovYFvWIqMgDU5dWYHmHKXXo23G8HnO7mAKijL6vb8nury+f7QHyOwn706xaxtWprJ1M9JhbAMaW3siU6vre8rRckVR1lfilzvpLmgJAhIxihB47ObRvZocq6m95fkJzsTg+jxKrAwhRLk1yMxO/q6hmcT2kb2qkubYe34UjiHQT+v1NQe06ml916Q82V6bjYb85pzfcLorxjHnCINSMSr5m+8w5OFePvzdD2Bj1CCj4FaB228IIbBMK9WW0HhCrIwKfMhrOnVvKWS6Fj1eCx8IIbl9VFt7ZFkUU7g+HjRY5/WxY4FNJ4Zzsle4jqV8EnziyWCUujIEV2uNrYPT2zSo+hVtb0PwugFM6m/AffL7acGabn/tandbcGgmId6J5W5VKkZx+cPN1C3WvmuPUYmo38X8A7uXsf6BhufTDKP4e6R8UWoGKDa8/W7EHN2ZqA4bRhHKgSnwT0C2iBaHsAxvUDAAEitD7eu8LeEFegFsSMgngL0N/oF5nXoUo845bJMYkdZLZJQVkwJy4FbBPIayCoDjOm+vla9BM0o4/OcLL100N0uWjYFVA27O5kSbIQQ6/cX7qLwY6HLgmgMXutwCmpzjM4ryCZ0KLTr54ZTlS62B0PjyBl2QXvV5GpsCF6Lx2ZXkE7oYF0JLJjLKAon7DGqbbk8AZf6C0XdFYza96rvg8FgVpJ+QUTuJJe0sq9V/2rx77nxmYHRyZSsDT4foWUI8LeTggetYjjnuBppjM0qdGzQWCF675bRTk4o9E76W4IUh7exO31Y5iSqZ95y7wONmQhVra9VHLznMLms4FUQJ9sxKhwCSpONDcMSpF4DfsDCHUemE0+mKz+NtajC3UgUxinajM9skddF86lZ3mkPN9fSxGQVp3xRZ1eUW852+M2RO19ymbGoLDi09cp61cI4qBv9cHWo7ISKPIJ8/oTmQhNbUrrDr0xWgXmGMot3olDlwoLHZNEpY9UFGHT9AXvPl9LeZQwyfV3an6rkGQkbR/dT9Vep6j7nk4KJvl8nddNmRxKKYsDDj/vL6/F1D8bvrhjuYKPvpR7nV4FmoYYGMot3owD8BI+5Fzs+8Mceeozb+2mE0wfEZlVdKVbbuTo1e7O4AcVtg3NEQ6xiBrne2YZBRLCIur6H7jkHc1SV7iKTdVkgSnk6iwrRiLeFZsbdX3Yub0R4FM4pw3S3QJ8GsBlkrjs0oOEcdc9XH6pa71k7/pmOR/gDYheYa126kQEZxsXTMhL3BtfMabjC8nFYRkYSrjaAw5f7iBENQshKjfmOaKpxRtBs9/9IveP7r9BowiCF9d0pJG8cjfE3ScTwTzP0sl6qSnKSinPzWKBO9EjJKR6KgbzgSU8HmDlJgDA57qCpnjoLd1BJkyGiXAMEczDExHP5tFlTQjR6YSkHnp9BpbigBVS2OUdTw4cJ7TlKxXjentIaKMJG8ar7mwCP2xCKjIGhu0zBUzwZcjjjYBS19TjDtcMSIl4jwiMl28kwnouariHxs4IVLRlHhIJ2jI2YMPthZ8fWnPRO+8C1RMZs5inY5Op7wpucG9ajlhtOdo/eA424nMRPpbuuyC9gjswPmel78GAEyStyQol/gSFzoK07pukygugxGUQdfnjMDy9ygmpTVWUzPEm4ZRdLTJovMDieOTgKgwjnK9tkQG2XUxKj5MgKfxyYKKTUXhp6YpoHl/BFTZmW0o8mIcmzum+Y/r0HHH1vXF4ZdyCgDCtcJ+MiT3XkLXyA8/WQOpmQwiqQ/6jX6h9bFfZ1D8cRWOj8eK8ojbTDmPTdVJKNoN/rRroyxiw8EgefLOTLEcw8FqkpqYxtMH3ZzlCYZxBblKc1GyvJM7omZDhtqxZFDbHBs0QyYyOwnF6J9kI1eu7eGIKNEzS3Kp46hXHYdShZc+NF7MCmMIurmBLWcM3wPlkRjV8AsWSyjaDd6rk/bdTgIBTy5AvOb5dXWNnNUTlyhT3OwAZP0/ENpYnjnQaLhgiiaVtMGGQWb2EU6Mx0C4Dq5s3gC6YUfPJiSwyjtcdS5MIzIBgqb3aWxNbywDzwlxTOKcqN7fdrT7zy7eXnC8B8KWCdGabtKt08c+vwXp1PWp5ucYyb06bczusZdSOvmIaN0JNx9U6c9jQPL1rZxIQcu/OAjRtIYRQixjULSng+/r4Vpy2EUoTZvcIxwBkPQlanJ3wWjtBs5PRWvLYBv6gHnVs2c3yOgPRXPYSMtqjBG7S8N715rfhw+uTP81pOP+9Q94WDEDeHjZkJ9qj6uDwYE+Ir/TzbUws88mJLJqBys2mtMLnV3nNV33o1N/kD/aHzdeAxeEqNA4GzhG0ui7iXjQ+yrad6bM55fEj5QDLuOnlY2VuIjvDe32L+pRq9OMpurk9FQAMQW+1r87d1DY3NJUyGjNCfhllHppeHNt1+yUiI1/iuOVEKsJUU5sHrVMwoqi+kjBJSFAeNfZtkG8r0QiLli1NPpd0R8eOA/8Th80gqVTXnmJ1gXGQXRqJE0nLfN+bZGlJevpjOjMp/dYDhgvbTOVNYyohxoEzIKolEbaRA+Qm1+akN7+Vo6M2r70qsiMsB8Zk8Ff7JPQ5uQURCNWkjDswS3TvNasKt4HR0YdbiXtOeD8euTj/ugFka+YwLWQkZBNGogDcPPC3Ca14BlRavowKiDlQlHSuQL7Ay/BZVwWeuBn1Lg+c2fPxs54eajPhiGt8N0RRCAwaOFOc0rom5Zbkp1aOsd95dGXHKD8U88DHzPTcWHge/Dmx7e/qUbOj0bOZH9chZWxHQFEIDvYyrCaV4BjctxSwdGuXFL5Jmze60Z6vv43TfcMOrLd9+AtdQHwy4ZRbKHsCKmy48APOxGp7mBvwOjiHq40fYNN9zYX6KWYen5sJta6X//2VCFEJJV9tww6vm/XoO1MF0BBKhn79FpbraAE6MI2b3W7MiNzbdfMkUepbKOtbRN1CEVZEwIOZz3OpJK3fjAcjvMKCsC1EMcDk+/l1Wxit/MmVHqQYobLQEJk6YnqLxVX93ohWWs6a8+6rban/1qxZ5RSvwn1lqYgwhUCQLOjNJe1r6xaEOqp9PviIzZ/ctpK5HyOV++96aolvr5pWfRr3F5pfzjh9lUTf37TZGRmF+nCLhilPZi+oPU7rVmZk+1fenVzGc37JHJfPrR4/DrkFfbl392cG/cvhbJfHG4RPn9lKkfqat/dKiFPyMClUbALaOO9FQPM5/d2F8aOViZOBQHnluNyj57mln958H9qeyBuwheXYS6M68mP8w+/VTPwG9EoKoRKJBRVW0LKocIVB4BZFTl2wA1qCcEkFH11JpoS+URQEZVvg1Qg3pCABlVT62JtlQeAWRU5dsANagnBJBR9dSaaEvlEUBGVb4NUIN6QgAZVU+tibZUHgFkVOXbADWoJwSQUfXUmmhL5RFARlW+DVCDekIAGVVPrYm2VB4BZFTl2wA1qCcEkFH11JpoS+URQEZVvg1Qg3pC4P9tBciHnREnsgAAAABJRU5ErkJggg==;" vertex="1" parent="_Ju0IBZojeqm3KYI9w8C-11">
          <mxGeometry x="11" y="63" width="97.59" height="30" as="geometry" />
        </mxCell>
        <mxCell id="_Ju0IBZojeqm3KYI9w8C-12" value="Google Analytics 4" style="text;html=1;align=center;verticalAlign=middle;resizable=0;points=[];autosize=1;strokeColor=none;fillColor=none;" vertex="1" parent="_Ju0IBZojeqm3KYI9w8C-11">
          <mxGeometry x="120" y="63" width="120" height="30" as="geometry" />
        </mxCell>
        <mxCell id="_Ju0IBZojeqm3KYI9w8C-6" value="" style="shape=image;verticalLabelPosition=bottom;labelBackgroundColor=default;verticalAlign=top;aspect=fixed;imageAspect=0;image=data:image/png,iVBORw0KGgoAAAANSUhEUgAAAY0AAABpCAIAAABJZ+imAAAWfUlEQVR4Ae2d71MbSXrH74/JXl0leZFLqpJc1eXNvr+rulSl6qryQlWRuJJ9B0Q+Ba8XltKewoXCISYEh2IDXmN2T75Ft47Bxo7R7sEeuwRiOFhiljKlGLNwxMJmxYKEGFvqZCTN9NMz0/NTEi14KJc1Gk33PPPt7s883fN0zzcI/qECqAAqILYC3xDbPLQOFUAFUAGCnMJKgAqgAqIrgJwSvYTQPlQAFUBOYR1ABVAB0RVAToleQmgfKoAKIKewDqACqIDoCiCnRC8htA8VQAWQU1gHUAFUQHQFkFOilxDahwqgAsgprAOoACogugLIKdFLCO1DBVAB5BTWAVQAFRBdAeSU6CWE9qECqAByCusAKoAKiK4Ackr0EkL7UAFUADmFdQAVQAVEVwA5JXoJoX2oACqAnMI6gAqgAqIrgJwSvYTQPlQAFUBOYR1ABVAB0RVAToleQmgfKoAKIKewDqACqIDoCiCnRC8htA8VQAWQU1gHUAFUQHQFkFOilxDahwqgAsgprAOoACogugL1yqkXh4UXhwXR1UX7UAFUoBIK1Bmnlp6+ev9Tqef+cdedXNedXM/94/c/lb7YzldCCswDFUAFBFWgbjhVKJDh35TxVIIU/H9sUXp+gO6VoJUMzUIFPCpQH5zK58k/jMkOlMm/a9OIKo+VAZOjAoIqUAecevmK/OzDrAmh1J8QVYLWMjQLFfCmgOickl4W3ho9evOXRyqMzDcQVd7qA6ZGBURUQGhOHb8kbR8cvd5xaNnpg/BCVIlY0dAmVMCDAuJyKieRN38pQ+r73RmIITvbiCoPVQKTogLCKSAop7LH5NJNGVKvdxx+zzmnuu7kEFXC1TU0CBVwq4CInMrkyMVYGVIlVP3c6mGfoZOFqHJbKzAdKiCWAsJx6uCo0PILBlKvdxxesj2OrgEWokqs6obWoAKuFBCLU19nC+H3tZB6vePwr6/aikvQQKr0FVHlqmJgIlRAIAUE4lQ6U/jpe9lSR0//f+g9RJVA9QZNQQVqqYAonPrqsBAa4UKq9NSvPW4Wj27oTKk70auqZa3Cc6EClVVACE69OCiERgy6exqv6vvdmdOFqsUb/qDPy7/+xcrWhirntpNopdd76WbS0+nya7FmmtuNBU+ZYWLBFTh5Tr04KDTfsIZUiVmnC1VnmlO+hq7ZPfetY/tmG0Q8csq9lPWQ8oQ5tft1oWnYLqROHarONqf8wXP9i5K7RrI31d1AnSmfP4iccidkvaQ6SU6l9gs/ue4MUqcLVWedUz5/25ibzp+02h+CzhRyql5w49rOE+PU/6YLP37XDaRKqLpcjDhXh8mdbog+rL4zEaXjVgOrrotXrITM+FQJNIHOqbRTI5PxS1ScsleF/pRTFevr+JPh1M5XhXPX3EOq+26OEPL8oHBtWnJKKPV4oVF1Zjjl84duLDjq/O3PdjI9vhLvkFP1xR2n1p4Ap7b38sEhsxCEksfE+//KPRlSpb9Ti6ozxKmg72Lc/sLR0sLAOZ0zhf0+pUGc2s9ac+rLF/kfDbqH1D/fP9YUxelE1ennVKgJRBV0J/Y1xWr8NZ8cu6g6U6FLF+koFfpTxoqdlr015dTm83zDv7mH1L/8hxZSpVI4hag6/ZyKJBbAGFzjwCr1krltK53oCijOVKBzan08oo6mI6e4qp2KH2rHqafPC/533EPq6qQxpE4nqs4Cp3bI+jB1iKzDPnOLNxpVZyqS2CGpWzSECjl1KnDEvYgacWpjt/A3A+4h9a+mkDqFqHLBqb3k7OhAd2tLU1BpzA2N4XCke3BiOWmvV1XUUdpaTAx2tV9oLHsuDY3h1q7Y+GJK9Xegbc4C4uHzPhk0JDPTr4ZBNXTIe/h/MLCzaXiNELLar1ypSfxUXkotTMR7OsLqFfmDgeaWcLRv7MEavSiD84KokdaJlHJA5snMWE9H+Hz51IHzLe2dQ4mFHcnGu9lkbUf6OsMt59SrDobC4Y7+0cn1LdsPE4pXFOuMmNiQsu1pSltr06OMSYHmlvbOgbHpZNrMIkNxpPSjyVhnW/nqgqFwdGj5mSKct88aceqt0RxvXNxy/8BHZp4UvHyPHcAxt1GH0IbKbEMW+K3iEtJrie4WtUOkdoXgRiDcN71pVu9ks83zaWjpHV/L5AmBtnnkFCGwRQV6ZjI8+XYmomrbbuh7WDzOilNS6rORdpXaSocRyuJraIyOrMgXZfCna4rptXvRRiY5yDNw4crslkEu5V3P5mOt3LSlPM+1x1atYjQyX0z0XqB01hgTuHAl8YV8T4Kqcj3N9MpYh2m1UUvc4LLsidM4sm6srUGO5rtqwan4nGQJI94B73xsF1Kl6/SIKlFeWQpZYMqpzON4p3lTVNtSQ8uNOa5jZTOfpstTqS0wruSeU233Sq2amaYXij0yrK7Zhz20cUbHy36XGafyuw+vmjZCVRZ/MBCd2DZgONsUt6Z6wcC/BhDlrw0dCSNUpWcGwipkwXkNMgl2JLi3k+zGaIf53aiYYag3sWPJqcznI+32TApEJ1IGrGHFySzeMBLn3LUVw+J0sbMWnAq4HTsf/LUzSHlH1fufGlRYF7J6TWKTU1vAyzBvAOVfOfHfTvJpinSE1XO55xSd6ZKZ6aPND/SwqIaPRprUMzbTWzSfU1l9wLoBFNQ8/UEjVw40xXBXN33OSIlpkKcuxiKzMECNB2c0SFv6VfEW6eUXt1LjdiBVsi0UjbSo+ev9KfuQKmUSiNBur2IVEKc1NgbuIup5ff5Q7HPlcM+fVefUkVTg+Urm+69NuYFUSRDXXlWPLu7Bs8KuMrDJKWl3+VpEbeSBC13xB2vb6Wz5lFJ2+9GktruhB0FuRXMzlPOZTqYyCrIzuxvTsW7D7kYlOEUIHLcK9s8o9pcvg/srn1OE7R81tvdPLCd3M8oQm7SbXB69wvo4+nBT0BRVvgQjMaqMJD3T5xPs/0zRrWQ/25sOtA4k5pKpA+WY3O7GXFzTldNPe5SWhjSwC3fEZpO7Ujkb2ZLZkS72iso81XJK5/vIJi1sKuJIUnpzdXxA01+O3tWMHQJxGoLlGtjQNjS+uK1UG2l3l9OhdtMiqs6ptd/lzXlk+Ov1T5SCdHNRcprnB4XBKTfR6kK8/90mp0BLaB/mjbNI28ytWNu3gg/dfP5geHDeuHrl95cHdT2pynCKEI7HROShdq63ZcKpojDF8anwFe7AXHr+BoRv5xQ7OgaaYolTzQPLhuNHm7fp2Jk/GDDURB6faul9sGlcnbXads3CEzFd46DPpP+uuaKi2RpOaYo7ejPJXrVioLR5LwI8x4a+hwrli0foxel7uKukrcJn1TmV2nfjT/1oMLv1wqBbbF+BzDEpzqo5VifK2Nx4cViwf5ZqHemIUzaMgLUzDBd+ys3TJ27+YFP/onGtLZ9C158ybJNcexjPiG0/zNRidQSKME1US1grTnHtoD8w6y6YNkXO2FMpq+1RGiHhC8e36QnsbzHzgfpn6H1a+gyQWp5mpPE32VPo3CVG573JTtU3tCxuNis2FpfllKk4rH0uv1WdU4SQv+p1E5Hw43ezz/ZdoupIIiMzKqHUDevlQOus32e/0Ldut6sVtIc2gkyiiw4o2Am2ZIKYgr6KcYoQiAxljAaOB+t7QxXgFCHLV1WvoYVdvIFpihZDwlBe0+ceZiU2N6CWBbiXMPzSi6DPUDO1CHKKKW6ti6TPiaQfdKgm+UC1IYQRxzr2zSBvZ7tqwanSO40N+3fmO0MjR19lHHs3Oanw3qcaNmm+coFVZ+PotKyldHJejnuCsTn+xqZwpPtqfPrRjpQHFQsMUcGmfmmU0yuhZ5G3tm/SMdpKckrOmXolcoQUE11lsKgeNB62Rsbe3M76g3h/tCXcTMMCAufl+Kn4+PzGngRRyGYCFPNrEMacofgFHsyJI8lLqUeTcuxVOKQOKfrkGLeO/pFijBt0oukNAObcds9WESXHwip86fMKwkCZ0z/VXBk0qXFknf4KrbIUhyZzvVULTq18+cqcRya/tsSODpmOscWVSq8Kv/jMcFjKFqqWnr6yOEFtfob1w+r+nHlsFlNTvh8GlbhNf9BHOQU7YtpeFfdCl4ZoM6PNiXs4+AGejmk/5WMYZ62tM2oRrW7BqTzzkIH6BapfWdwIgKgOPqcGli08e9huDTiVnrOK5PIHA7CMVGFhTWBIAXTVba4OGnKK0Z8nCH8/HDWzuF6dRV531IJThJB3Pj42gZH5T60fHB2/tHWdr/Lk5n8aQqrkQFmg6vpv3D9htGWf/YNg7TTlVCpxRfMkiF/PlLprzKligLgdC6FtanOyk5B9rsdCoZwezuCjF8LpkJpxKrMSu6RcLwsmmq1uP2uSo6ZocnB2fbiNkl13UmN7VGGh2rTgLOTmOIkeOQVriMn1Wtjm7ucacYoQ8vaH7kPSI786Klj1/woF8sGcCaS4fb3S+PrVydyrvNU53GnsIhWsnSacgo/J/PKToO6RyfXNLJ3DkdlPFfuDzBNrWt137tHGDGuhqcXQNrU5maZQfmTaCQsF5RBmRYQyaNgRXOVIs3kzzJiOzx8sRwMoj8xJXsqkN+X+IBsjzprkqClyD9aSNxgZGp/feEbHwqWD/W25P0jjS2RyqcLCkS9acFQEwy0ep0BxO4a4zw9rCPd6De3xvrN2nPKIqp/ftuj+jTqDlOpbyRvDn+TEYZRcqJAFXE7tT0dBbeM9NS/Vkb3JbvVOTqs7BIcA/b6iqZphYJPVqbj+1OcjcI2q6C2TQR0JPgmtPKfyKzE6dzoYiNw2CnxXWjG866icgjWhkv0+j4NKp5pTHlF1+Q4XVb+ad+9JxeclS2dNqUq1+oS1k8ep9BRFj+VC48k4DSKnnGKm8p74OLoiLvSG9OGXylF8fwqixyjQnOZAiARn5FSeU48AMZWHmPD0cFua6aN9QJVTzJO1So6j87xUaBJ/+7RzyiOqeu4boOrWQ/eQ+vC/aKAKv1Rq/osdTtk5RjEcPkoD4+iEeVBtZ9Yo6yDQ7olyItNP6L4ZjaOriZVLM189nedPwf00FEvNHG7AR4raRRccNUXOwQs01ADKDk1Qtpk5jEBYSO2gRXhEKS/WnYTwZYob3K4UG+x/cq7XfgYOj6xpv0+1zctYVX+CGe2+vXDqIGWz3wdHLvyaGEVVaXkj8zgG3goBn/cRIkqcJ2OwzS+QR7A1gpCoIAhE0uWa353toY8UdYsXO2qKnINBSJR5/Gd6ug/2VQGnSCXjPNNTvWD6sQXECSFbE53NkaHxxZT2bs65Xp3GldpxMpzy6FWp85PHF1/ajDLXH/bvD+09RKyU0o7yURyKYkfA4Dm3nFlupl8dcuLHFmeWdDPj2Rsp7CWZz5tZ1T+3ot0TO5dn25+ykxm/38dEePFCpaXN6csMpKrCKdjd9gc5XJC2H+ge2kJhmaB883kzBk85IcEJYdYm9PkbO0eLa/UYCc4sodHQGL25BmB1ZjjlEVXDnxzf+a17T+q2s3ecGBVjVffZ4RTZn70MxtHlp1ojdG6qlE0lZ+KGCwyxnCLs9Aj56Vit5yG7lJLnT5HHMSZWo6Gld3RxW5n6Kx0YzLMtDQyxTdpRU+QdnIyzC56Eu+Or6gPZXHZ7YWKIfeZYHqKCnCJEv+hCJechl4pb0YfkijWnk53LqcU973pdFqVlshPzp0qWeekABocyei/Jzh7RIWWz3ye75beZDh1wr+iIbHFnINJBj9Rwqujew5m0mrSarxVf18WyjvIO4HKKZJevan0lzVUoX02WQHHUFLkHZ+aMX5CjGEDvNObCVnBdF+JkGZ+infpJhdzr5RWWx/0nzCmPXtX561k7YILHjC8K3N1TC9OWPyUfnZmzXt4ocGFoNQMqlp5T8hhW3A6qKrdOnuk4uqqD6QafU4RopvsbE7yx867JknJAMd4jV2qeycHS9i3rpaPk5egsFiDMbty0zsfnt7VOHtmcsL28YltsSb+8osn1UlEquHXynPKIqp8MH0EMmW/f+S3oYldQxYpnZZtTxWFys3kz4e6JDXkNBFCxjDglX0F6Jd4Optdo2ra6Ci20je2eWMlQo/Gpshnm82aCkdicvBAJJySSVcwTp4rSms2baWy/Np+2t6BzZikWVZZm13tkztYdziQTPWznTlPi/qBceeAKM7SAQXWyFocmc70lBKfso+q7b3/1R29sf+vCk9ea11/72+Tv/3TjT97cOX/NVgfw7lI9eFKlkoQssFMPjNb27+yJzz5R74SgYvE4VTx1rd7jUGV/Sm0Q8ust+jrp1N/GptJrKZQbVm04JZsj7W9MyzOi1RdtBJrlt2ysPlNMgYVucgMwKmvNuyT4F6XqomzsJZfHh5jXfwRDxTd3yJO0lYP0n6A62amf+gwc7hGFU3ZQ9ceXdn6veV3/75uh5A9798w9qYklE9EdanbGDwfP2gODFVsA+4yLWtnLh5EZN5Yqm/fJ5CYQp8xR9e03tvWEgnvODXFRdX+5fjypk6kGxbOm9+2wHD71j96t5hqOJyiFoKeWMqYvq1Kshuu6dCQq9GYqJfOT+RSLUzxU/Xn7LkSS4fYf/l3y728ZDKvf/xwhZV63pHQ5ggFONOUkYeLRbU8J5GSGu+0qIPcZi0vUm/bZy7nBeHTbUwLtWnJCxwnHKUNU/UH4qSGbNDt/2PtM0/t7sIKQMq9ZyXsXwQJyEcOXINEcmKBQO/NsaFLccqtA8vYlsEgWJ1hUyZwNCrU1z0ZJKvKniJzSoOovfrav4RHv63feego5NYmQslH1GPT4g029M/KzJ4M/7XNxm/OWDXLCXY4UYNHj84f6Zzjd7UxyDL58wW9z3rIja07mYEE5BVH1nfbnPDBp9n8rlFQ5lfhv9KTsVanM/BBYe8Q4Hn1OFzYN3qNn7zR4lHsF9MGi+nj0Zd3LrEpvt3d/VpFSisspFVX2OfVa83qJUx89Qkg5qGWZhSFmIT1dHI02VEc7i8LBufBQVwpkV/UvJTMtJvnloMZ+savzn3QioTlVQtV3397T+E28r99+40nXndzHCCnntcrBO3KDHfce0+UonZ8KU7hTwMH6xYFovBjc6+5EIqYSnVMlVH0zlOSxCe7/Xtfvfr2KnpTbesa+uVfrQxXv3vwAZbcnxXROFGDf80znBtLCUqcNOMlW/GPrgFP//z6fH/xTCvKIt/3utOlbMsUvDREslAO4B2CAsvwWKTmG2zxAWQTTz4gNchzJ2NWudhpkHzx3oUUOSZ9L2oqvqkOd6oNThJA/a7UITWi6nqpD/dFkVAAVsFagbjj15QvpB/+4yfOkIqMIKevCxiNQgTpVoG44VdL3ysSLP239H0irv+z+cnzh6zpVH81GBVABOwrUGadKl7T89Oj+0sFHK4dPdOs227lmPAYVQAXqS4G65FR9SYzWogKogEcFkFMeBcTkqAAqUHUFkFNVlxhPgAqgAh4VQE55FBCTowKoQNUVQE5VXWI8ASqACnhUADnlUUBMjgqgAlVXADlVdYnxBKgAKuBRAeSURwExOSqAClRdAeRU1SXGE6ACqIBHBZBTHgXE5KgAKlB1BZBTVZcYT4AKoAIeFUBOeRQQk6MCqEDVFUBOVV1iPAEqgAp4VAA55VFATI4KoAJVVwA5VXWJ8QSoACrgUQHklEcBMTkqgApUXQHkVNUlxhOgAqiARwWQUx4FxOSoACpQdQX+D5KkrxHowbYGAAAAAElFTkSuQmCC;" vertex="1" parent="_Ju0IBZojeqm3KYI9w8C-11">
          <mxGeometry x="6.57" y="93" width="113.43" height="30" as="geometry" />
        </mxCell>
        <mxCell id="_Ju0IBZojeqm3KYI9w8C-15" value="Google Tag Manager" style="text;html=1;align=center;verticalAlign=middle;resizable=0;points=[];autosize=1;strokeColor=none;fillColor=none;" vertex="1" parent="_Ju0IBZojeqm3KYI9w8C-11">
          <mxGeometry x="114" y="93" width="140" height="30" as="geometry" />
        </mxCell>
        <mxCell id="_Ju0IBZojeqm3KYI9w8C-18" value="&lt;u&gt;&lt;b&gt;User Behavior Data&lt;/b&gt;&lt;/u&gt;" style="text;html=1;align=center;verticalAlign=middle;whiteSpace=wrap;rounded=0;" vertex="1" parent="_Ju0IBZojeqm3KYI9w8C-11">
          <mxGeometry x="57" y="33" width="140" height="30" as="geometry" />
        </mxCell>
        <mxCell id="_Ju0IBZojeqm3KYI9w8C-10" value="" style="shape=image;verticalLabelPosition=bottom;labelBackgroundColor=default;verticalAlign=top;aspect=fixed;imageAspect=0;image=data:image/png,iVBORw0KGgoAAAANSUhEUgAAAXkAAABLCAIAAAAapGB4AAAeaUlEQVR4Ae1deVQVR9ZvjJNtEicx0UySmWQms8+X2TKZySyJ35eZZCbTuEaNcdckJv0QBAVRgbiA4AIaEBfcgiLuK8YNUdxwV8QNcAFBdgRZH4/u/ufDFF5uqrr7dT8fnoyvzuFwbldX3b71636/vlV167Ygqwr/4whwBDgC7Y2A0N4X4Po5AhwBjoCsKpxruFvHEeAI3A8EONfcD5T5a40jwBHgXMO5hiPAEbgfCHCuuR8o83caR4Aj0C5cU9vUGLRpGQeXI8AR4AgAAu3CNf2WRAqSOCt1A1yGCxwBjoCHI+B+rlmSsVuQRPJ3Ij/Xw/Hl3ecIcAQIAm7mmuyywkf9egPXvBwyosbewLHmCHAEOALu5JrbjfW/mvoZEA0R+i6ezlHmCHAEOAJu4xqHIv8zNoQiGnI4fvNyDjRHgCPg4Qi4jWsCNizRJBpSmHB4l4cDzbvPEfBwBNzDNbsvnTYgGkESH/XrfbHkhodjzbvPEfBkBNzANeV1t58N+tCYawRJfDXcZpcdnow17ztHwJMRcAPX/Cd+slOiIRXGbVzqyVjzvnMEPBmBe+Wa+APbTRKNIIleNu+0nExPhpv3nSPgsQjcE9cUVpU/hqJpzJDOyyEjPBZr3nGOgCcjcE9cI62ON8MvVJ249BRPRpz3nSPgmQi4zjV5laUP+/akeMTM4fcnDGlwNHkm3LzXHAGPRcB1rvlo5RdmmEWzzpy0zR6LOO84R8AzEXCRa3LLix7y6a7JI2YKnw36sLap0TMR573mCHgmAi5yzei1C81wikGdxUd4JDFP08UR8CAEXOGaxuamp8b2N+ARM6feihnvmezOe80R8EwEXOGaDWeOmGETp3Vyy4s8E3Tea46AJQTejA4if01ys6WG36rKrnBN9wVTnPKImQqfb0/6VmHBjeEIfDsRgLlRz+Ka2qZGMzzyiymjnFb7bYSP+VurF8uz8+JJ80pwzYslNzQtlFbPx9W47BoCzwQO0ISXKvxNuI//hsUpWcfMrBUU19yimmsePuHf9ydhH3ebExy+c/Xl0kLX7Hfaqvh2ZUefHoIkPhnQt70Twnko1xy5dknzBlOF/ztnAlWieej0jkKFmLTN3WKC2U2efRIioI4lwW/dIsqkrsGDusUE8/V4SzDqVe6+YMrrUf4UwgaHT/j3nb5rbb3DrqdQVpWK+ppuMcE//fxjAz3sqb6LpxffrjRQ69qp8ZuXw7XaOzzVQ7kmLj0FIDYQPlgaZXAWTmVcv2zpTh/NuwxtQSisKrekRFaVuqbG7zHT21lFeVb18PrGCHySFAu3SZDEFyYOCdy0LCwlKTRlpbQ6vk9CxB8ifXGFH4WO2HHBiaNa29T42wgf3Op3EaNDU1aGpSSRvwlbEim3+pnAAcfyso1NtXS2xt7QGTluPw4d2azIljRYquyhXDNixVx8m/VkX8Zr0KwZf2C7JdBlVekU0I9SNeWrVVaVLMtIpZR8f8IQq0p4facIpOVkAs5Pj/ugsr6GbXK+OH/cxqX4tjpN5BiybSWofTM6iNUpq8q2rGOvhtug2lNj+58tvKZZ04XCeQfoN+6WzKOW9Jwvzie2/XzyKKcNPZRrXov0g/tnIETsXGNwFk59lhzvFGiqAnkonwzoC0pemGiZJv48MwCaE4FzDYWzWw7352YBzn+I9DXQWVhV/mZ0EFQeuXKuQeWwlCSoaTC/1tjc9FbMeKj5n/jJBjrNn2pWZBjH/WDSMKL//+ZONK9BVhXONc4ji14J+whunoGAv9xiUG3AshmW7pCsKk/432GZkSu/4V5tOpthXs+ZwqvEpJdDRoBtXYMHmdfAa5pEwDzXyKpS77B3mxMMd2TGnvV6VzHJNbKqUNOLbpkqTsk6Rox8MqBv5s3rXjZvcni64KqewWw55xrnXNNl/CB4GgyEbXfvh0EdQRLF+VPY22BcQrJYjFmfgOnm3bhQ41b47KhVccSqmXs2gHmcazBE7pItcY2sKsU1t7oEDSQ3xcvmvT83S9MS81wjq8pzwYPhLi/LSNVUaKnwH19MIgrHblwiq4o4vzUEZGhitHk9nGucc43JhDXH83PgBhsI3WKCzd8eUpNoG7M+4VzRddDsZfO+XlFqRlWNveHxMX0ESXwl7KMT+bmggXONGfSs1rHKNbKqJBzeBTflhyHDNFMCWOKav80OBIUTtyZa7QJV/0Jxa6hEB5t3fmWZrCp77ibb7ujTw/yCF+ca51wDt81YyC0vMq5AzupN7FE3GB+SoAa/dYtkVXlj5li4SqC5L4jDrF5cegrmmi5BA/FVjOULxTcWH9kFCx9Ru9ftvHhS81dhrIc626zIB66cX56RGrFzTVhK0tx9WwqqKqg6Zg4vlRSsP304Ln3b9F1rk47vz7h+ubjmlpmGbB277NibfXZ26kbo7IJDO07eMPs5Uxe4xqHIeJw+74BGtiNLXIOngaJ2r2P7aKkE1kbwh89g2Stk20qT2tqVayrra1KyjsWlp0TsXLM0Y09adqbDpWUyu+zYnHk0LCVp2o7Vq06knyq40tjsejYYy3HD4OLCj5wVnhrbv6i6ki1nS1yIjiHDY8I1Xx7dCzqfCRxgJnf6r6dKgiQ+PqZPjb3hVMEVaP5s0IdOn5Iae8MX+7b+fvo3lmlBQ6eAfiNXzjUzaN918RT5aF9K1jFy0cbmpqk7kr8/YQhoI4KXzfvduNDj+TlObSPzHVN3JMNzT6nSPDTwKy+VFNjWLHh63AeaDX855dPI3evKaquNDXOBa2RVmZO2GS76ariNvYQlrnlhYhuqW89ZWy2iLl1WW/2Iby9i28GrF+Ds4iOtvljnwAEGIULdYtpmo6CDmgLxmEC/+XWoI9cu9VsS+Z3RdGKpH4YMi92/FZgC1kYOX7sIV8HCjVvl4vwp7CDmMb/enyXHa64n4uaasmWuweuImjCRMIrqxjq9s7jctmaBplkGhaQ54Zp6hx3Hp648vs+goawqh65eJM3J4gVMEguS6JRr0nIyKS54MqDvH6PGvBQyHPdIkETfdYv0XiPni/PfQ6ngiS92pbz4dxGjiZLOgQNej/LvFhOMOf0hn+6rTqQbd+3AlfPYHehg8/57dNCfZwbgTx6TS7wabgPlmlzTEioyaesKeL5JqxcnDf3TDH9qz23nwAHGa714zft3EaONuwBnr1eUYkivVhTDKSKY55qTN9qGyS+FDIcfG6XQ5OHn21vXv6iQ93qHHcJtFh7aoaetXbmmtLa635JIjBsr/2rqZyfy7/ikxlxzIj8XusMqESTx5ZARN6ste9yWuead2FDNy+NCEjKAS/TkaTtW690YzfImuZmoIlwjq0rQpmWg/O86oRagakhiNKmcU3ZTVpXMm20zPs8EDoBqrLDpbAYZuwmS2CVo4JKM3XmVbdNDtU2NB69e+Pe8z8GSngunaTpZeAlWkMQ/zfDPLS8iFPbLKZ/iqdBmRcav944+PQzWUK5WFOP4lEHLZ8G+1ia5eUvmURypMCwxRlYVu+y4VlHChi86FPnDZTOhI93mBKflZN5urAdMCqvKk47vB9r1snkv159w3ZdzDlT9frrRmjfoJ8KPQ0dCQzb9iEmuaVbkd+PaHtf1pw9TV7F0iAmFfatByM8vpujGy7Qf12TevI7dN0ESXwoZ3nfx9PGblw9cPut/pt3x5cnfw749j+VlG3BNg6MJwP/O6J4Dls2IP7B9+/njcenb/jprHOh5MzrIaviiZa4Zsz4BrqcnkEgKMgWrV4eUW1qrbmGWlrEGaQhcc72iFBYdBUk8V3Rd7wG61VBLHGAIhcgqygPzOutzTXpuFjilXYMHUf4tvtynyfNA4YfLZuJTRD5VcGX3pdO/nPIpqfaQT/euwXfW9XounKb5ysW7wD5JimUVyqriUGQ8bxWpNSVhlx04kntW6gZNVbKq+KxdAF0wiEgoqakCN6qDzRsGg5Ra1/waWVUwcfuspZ1fM1xT77APS4yBvrgQNUr1BcI4uowfxL5IYHuUIIlOQ5/dG19TUV+Dnet3YkMPXaVHRllFefAAPBc8GNiEHUNtOptBQHvUrzc7eI/euwkgZQmXQow6tMw1G886TyhBctOYWR13OuCnzK27u/MTuEZWFfyBKoPIrtmpGwlMG84cIWphfk6QRD2uqXfY4cZ42bzZe4MtdCgy3gi2+uQBfBbkyN3r4IYJkvhWzHi9MVdeZSmMZfRCFlefPADa/j3vc7gKJdTYG16cNJTUfNSv941bGhs7sBvy66mSwdSDrCrZZYXwOukSNLBCKyYYK7Tk10ir50OnvBfQgRGYa16P8od5axBGrYoDz+ulkOF7s89SaLhwCBNhETvXaDYHr9lMBAY8e/ceNwwk0rIR1Hg3X/KJdCpHOPs8h6a0xmTrvdvg1rwTayHQRFYVy1xTWlsND4GeQJ74H4W2Rcpp1tSc9tO8i1BYY28gqjDXbD9/HPSTSV+oj4WfhN3Zs/dc8GD4YeOt3k+P+wBXBnlWalsMTvCWL6FcT8ivLIPb+eKkoZqLUzFo7rOjTw8Y72jqxDsY8VgGKv8xagx033hmOnznaqg5O3UjaADhN+Ft+4wMPESoj0d5ARvuBJtQfy77NTAkESSRXazEXAM90hM+SYrdm33WqsNPdQQWth/x7aX3gjxd0BojKkjihWInX5R2F9ecK2oLJtQjQdyXpRl7MFCsBzRp6wpSIXyn9vxGQVVFt5jgbjHBVhd2LHONrCrUfjlsOpH7L42SVYXaIMdWc+EzmFUNrVPOmGuaFfmHIa2h4oIkak7OpV4+QwzAM0SXSwvBqqfG9se3BGSIBOvo00PvIYPKRID3myCJ604fos62hD5jrnH6DhywbAYYiSeJiFpw9AiNstfCJTA1Lkjiv+aF4VOyqmAfxGQ4f429AeaJOgX0Y7OruLYOJasK3uPCOkSWuIag98LEIUsydlNdNn8IvvOoVXEGrWBG5qOVXxhUc+MYCh621yL9TPIpnnJl/Zrld7cKvuemLR2AgytcE/XNIQD8EkAYnjiHCn6BU1ggU+Jgihmhsr6GaMBcI6vKjD3rQfOvp0qsqr6LpwuS2NGnRylaps0puwmtNLkGL4q//cUkVq1mCR5mEiioaphrYvdvpc5Sh+CyCpKYXUZnY8EBjW/MHEu1pQ6vVhRDf18J+4g6G7BhCZxdmrGHOqt3SIAlDVMvn6GquezX4IwNxn6N3qi5rLZ6VuoGyrmmHhvKWr3D3PIimBM0dljg1hu4P+QqbvFr7LKDbNnRe6tp9mhv9lm40SzX4ElMn7ULNB1zTbVOC13hmrzKbyxJgt0gkJVsCOWGciz8OHSkU+PYCmV3R3DUQ1OKAh8ESaRSVZTWVpNVpIHLZ2GdV8rbfnvf0/JrFhzaATZP2GI25LSwqhxaaY4T8QTb9vPHsUmsjLmGXYrCy/Z/nhnANscleC35p59/jE+1+DU45u18cT51Vu8QszwbKeeyX4O/CNTdcL5Gj2uIwS0+b0tsJMx5tQQ3zD/4lV5f9Mphht6pE+pQZJgUM04/4BauSb+7tfXxMX3Mk0KzIkOkCMs1sqoMT5wDD/ALE4dE7910pZwOO9DDyqDcFa6RVQXvkQOzQCA5AXounAYlrKC5XGJgKDlVUlNFVFFcI6vK0Lvr2YIkkmVd0DZtR+s8BYUsfs93CugH9UGYsCURLP9inxMHBFo5FBlaPeHfF8pBwH4NRYtQBwTMNaxfA44eiXqAVpqC8SgJj0PL625ramALVxxLg85+mjyPquCyX4ODA9iZIDyGMuYaYs+Ur1aBkY/59bYUilbVUAdT4KDEjKC5XAX4uIVr1p0+RCyx+qUA+G1SvwhiXnnd7bfv7vmCnnYNHtQ7IXzhoR3GKwbQQVZwkWt2XTwFRrACmRMZuHwWe4qUdAka6JrFEI7Mck3G9bY0Wo/49rrVUEt6C7M5bE4D/J7X5Bo8rLA02seJuNhRNPZrjly7xN4VXIK5hvVrqOkzNl4Gq8Lr2awPQlbfyQ3SXIDHqkDGm2zZZX7X/JpmRcbxyuyGSatcU9fUiIPTFh3eCfY7FahFQ71HWrOctRwu5xaugXhl1vWDC2kKkJRSk2tkVWlW5Ji0zeCj4d51DhwQsXMNOzeneSFc6CLXGE/HxHz9WUvYTo0NJTIbnYVtMpBheMJyDfWrIzaQnEl6F82vLAPbngzQcECCt3wJFcz7NbKqwFJUB5s32x33cg3O+2Xwkr9SXvxd//dJd54M6FvVUEcZBqlYBEk079fAq1WQRHajs2t+DX5teNm82U1hVrlGVhUcoDjom0NpCgd8aJcdZkI34CGhBIO4PrdwzZpTB8kVu82xtocZAsHYdSjcfYcirzt9qP/SKDb37pvRQSU1VbiyU9l1rjl8rTXen8JXkMSEw3e+M4edAlzn9Sh/p2bpVQB20OQaiLYSJPEnYa3zEWTLf6eAfqwnVVBVAYZpcg1e8J66I1nPKqocp39/LngwdVZWFfdyTbMi/zM2BDqiGWGRX1mG17M1J6Rhn4Qgiey2ALYXpGQhmtIiORZwTdf8Gv8Ni6E7/9CakneBa/Brw/yII+n4fmJJ12CN+D3cUywXVbemPRckkZ0vJzXdwjUwKP7Z5E+wAU5lWFbT82tYDacKroxeuxCmogVJZN1YthUucZ1rZFXBzwQ8HC2/c7J5B4KC8Ckvm3fmTd3QXmyZpgyjHk2uqXfYYQlWkMS92WdvVld0+DqVEfszkFUFvCRBEjUnVnDkDt7Xq2kbFGIW1ox3ci/XyKpSUlOFmWLg8lknb+Q2K3Ld15snxqxPwGkM9fag4Tf/ZtMZLfEQ78ujewEEIsCPQZBEdumaqkwObzXU4l1XmjG4LnDNuI1L4Tn82+xAzUuzhRC3oRdswjYhJYPuTiDoZWhyC9dU1tfAtLf5rfxNcjPMQBn7NWzvyutu90epxC2lVb0nrpFV5WeTP4FbCALZj4dXKOCU/4bFbAfMl8DKkSbXUM5UvyWRJDDJy+bNRqbIqgKzP4Ikftf/fdaM6sY62Nf7XPBgduaFbSKrCh7ha4683M41sqrcbqzHPAuAY6FTQL+49BS9XiSiWV7zoU9kw7ogiV42bzZ7iwt+DfxKBUnU2+DmAtdARivzL+QDV84T9JwuYLOPAURLeNm8NWM13cI1sqrAJLp5NgRnTZBEq1xD9sRAhB0ZwbDd1yy5V645np9DHAf8TJOQcPaLC2/MHOvClBK2G9Li6HEWVCD2kMG23rsFVrX0uKaFjz5GXwLQ2/WDLWxWZNjT8LBvT82Jj/bgmqk7kkmXX5g4BGaL4Kb8dda4qN3rWC7AlteiCVSTQ4aDVy/AJTSjSK3O12C+e2psf82NFLKqWOWasrtBD8Rak3uj+iREkPojVhglP8YYYvkvs1qTK0mrNZJqQ8w6G+iElRAZnBf25wNpVbqMH8TOwbGqGpub4PUgSCI1hrpcWkj2eRiTCAxZNIcL7EVJyb1yjawqeEGR3JujeXe+xAIBiKTwB5OGGT/reibi8kslBUSbnl8jqwre2ksq68Ww4P0Wj4/pgy8EMrx/BEl0ukVIVpW49G3kooIk6gWPup1r0nIySbBZ58ABBVUVtU2N+3LOrTl1MHrvpn0556ob6Wlg6B0lQHy6IInG4SFkqQJv/E3LyaS0yapiiWs2nc2APa4P+XTfl3OOVUhKrHINDhh5xLeX5guAulZ+ZRm8RM1HG2Elq06kkyfh8TF9WBa4cas1CKujTw89TxO0GXCNXXbAxstei6Y5VQWxQsQ2imsg66CXzftaRQkYQAkwjzl67ULqlMGhG7hGVpXPkuPhByZIIll5xSsU3/V/39LQTs9iwMKAazZnHsXGvBL2kd4NKK+7DTUf8+utd1FYICTuN2ynYuun5WRCeqGnx31QVK39CTT3ck1pbTVZrm7JWZOWrfGDZ+3UK6mxN0CUjZfNGzapatYfvXYhoEd2pbDV8BjKIH9NRX3N2I1tUcsdbN4rjqWx2qAEc43xpzia5OZAlHVEkEQzm4ZaxqSQz8DqEg8YaZcdEEbARpM1yc2wLOh0IGPANbKqfHX+BNyI3gnhLK8Rk+qaGnGEJGlCcU2zIkPCf+8FU9jt7EQVvM7n7tsC/XUquIdrWuZZcaZxMjmy48JJgGD3pdNOTTFTAVIfafqloAEv30bv3QTllHCzum0dSpBE6iwc1jvsePf2219MIulvoAJJBxO5ex0kpnrEtxdORoNrUhM66Trpu6EJfj40w2dgEWrydsvfyYKrgHC64CqsNXjZvEO2rWTX7wqryiEYTJDE1yL99J5v/L552LcntSxQVludknWs7+Lp4M6QDfd7nD0t+N32o9ARmtOizYq86WwG3pgqSKLxbiYAocbeALPpxoQLTTQFCCLVjOt7/+t9M2TWnOx0rXfYj+fnLD6yC6LDiFpjrqGyOHUOHDBjz3qcfrugqiImbTNsfP/XvDDILUlxjawqOOH/P2NDUi+fwQO32qZGWNEzn+Sb9MJtXIMTypP3OWy7cJpTTvM+sYWltdW9E8IJf3UNHmTwJUPYufeYX2/NXAeyqlQ11OG5GEESDZLF1jY14h1rD/l0fzcudOaeDdvPH1+asce2ZgFkuhMksVNAPwMGuVRSANkJWhLu9Fo0zWBL57G8bKx5WGIM9eloPMQDZtcTnp8w2HfdIpy8kgW5JXfM8fwciGEXJPHpcR98mjwv4fCur86fmJO22XvBFEwNf5sdqEc0NfYG6qf+9LgPyBbhN6ODcL+IwR1s3kMTo51GbWSXFQIbkoaP+vUmauH/zyePAt4ndZ4M6BuWkqTn4VI4wP71FycNNXBjqVbsIc4ZymZ7ySrKw0jiu0blSHLKNSRxKgz6iKou4we9MXPs8xPaPiMhSOJ78ZPrmhoNcmU1KzKV369TQL8+CRH+Gxa/GxcKC1hmRtkUIO7kmpacJiSVxjuxoZdKCkhAxz0mQwNz8Zou3BXNFWVZVWADlN6MiUHcs144XJPcHLt/q9PIrvfiJxsMdLsvaP2+B3SBCKyPLasKSY1M1RQkce2pgwBLfmUZbAtka+qV/GzyJ5pryaD2ZnXFwOWz4BHX1POIb68pX63Sc7MxW2k2h0Ivm/frUf4h21ayMXtgDxFwHkVobix09OlBvtFuftIK72kySCpG2aZ3CPm6qLShpD4E/lK9cIFryN5xGN1QCslC4cStiYRtgWs0h28ORcYDZFYV8RBNEjcg42aukVWFzFET/qN8ZriqC8L8g19BJiQQEvVH9eRL0pqDjpYo0tzyIlBCCcaLTSSzfP+lUXiY9viYPm/MHDty5dydF518i3rViXTqcuTwwJXzLCZx6SmalalOtaStmLR1BeyK0MwdFZaS9FlyPLb5O6N7Oh2qFN+unJ268c3oIOxHPD9h8DuxocFbvqR+D5T9UbvXaRqPCz/fnrTx7BHzu5OKb1fi5gby7NSNicfSUi+fMU8xYP/JG7mt/tGcYPO2QXNKOFN4FbwtzcXv4/k54zcvJ++wZ4M+fCtm/Iw966lxa69F4eQPD2eoC8HhmcKrY9YnvB7l3yVo4MO+PV8KGf5WzPiInWvw/snPkuOJVdSzBEpkVTlTePXjpNifTx4Fr5wONu9Xw21j1idcKinANU3K7ucaSDEDkbsmTXF7NfPBr65duqqh7mje5fa+ilPb7LIDttSPXDnXwOd3KDJekXl+wmDqmTa4Vl5l6ZFrl6h5BIP6/BRHgELA/VwjqwoZN/5llpN0KpQp/NA1BCCF3e+n+xoQDVFe29SIk2BvPNuaDtW1S/NWHAHzCLQL15DpqN4J4ebt4DVdQ6C87jasshuMKLHywV/OhhE4u9sb1+QyR8CNCLQL15AQZr19N260nqvCk4tnCk19ux78IKepsDm8HAE3ItAuXEN2kU7ftdaNhnJVmgjgXJkmZ+Jx5Ki74p40beOFHAGMQLtwDfnmcbKzTzViO7jsGgIQSSRIokFmJlDeJDdDSLvLGctAGxc4AuYRaBeu2XXxVFhKkuYKn3nLeE0zCOBPI7wW6ee0CeYm8wnMnarlFTgCThFoF65xelVewY0IQFxWSz49afV8vfSdJTVV3iiSUC9k0Y2GcVUcAYwA5xr682kYnf8KOasoDyeXeilkePyB7WRLWoOj6VTBlRXH0j5Nnofj8cJSkv4rusaNfJAQ4FzzX881sqpkFeVBBjlYz9YU3ooZz263e5AeaN6Xby0CnGseBK4h2WS2ZB4d/OVsNg21IIl/iPQdt3Gpwdbzb+0Dyg17YBDgXPOAcA1+Ik8VXEnLzkzLzjyRn5tfWaa3PRI34TJHoL0R4FzzAHJNez80XD9HwAUEONdwruEIcATuBwKca+4Hyi68BHgTjsADhgDnGs41HAGOwP1AgHPN/UD5AXtB8e5wBFxAgHMN5xqOAEfgfiDw/9nglI0pNvloAAAAAElFTkSuQmCC;" vertex="1" parent="_Ju0IBZojeqm3KYI9w8C-11">
          <mxGeometry x="19.46" y="160" width="100.54" height="20" as="geometry" />
        </mxCell>
        <mxCell id="_Ju0IBZojeqm3KYI9w8C-21" value="MongoDB" style="text;html=1;align=center;verticalAlign=middle;resizable=0;points=[];autosize=1;strokeColor=none;fillColor=none;" vertex="1" parent="_Ju0IBZojeqm3KYI9w8C-11">
          <mxGeometry x="144" y="155" width="80" height="30" as="geometry" />
        </mxCell>
        <mxCell id="_Ju0IBZojeqm3KYI9w8C-23" value="&lt;u&gt;&lt;b&gt;User Feedback Data&lt;/b&gt;&lt;/u&gt;" style="text;html=1;align=center;verticalAlign=middle;whiteSpace=wrap;rounded=0;" vertex="1" parent="_Ju0IBZojeqm3KYI9w8C-11">
          <mxGeometry x="57" y="123" width="140" height="30" as="geometry" />
        </mxCell>
        <mxCell id="_Ju0IBZojeqm3KYI9w8C-28" value="" style="shape=flexArrow;endArrow=classic;html=1;rounded=0;" edge="1" parent="1">
          <mxGeometry width="50" height="50" relative="1" as="geometry">
            <mxPoint x="520" y="570" as="sourcePoint" />
            <mxPoint x="680" y="330" as="targetPoint" />
            <Array as="points">
              <mxPoint x="590" y="570" />
              <mxPoint x="590" y="330" />
            </Array>
          </mxGeometry>
        </mxCell>
        <mxCell id="_Ju0IBZojeqm3KYI9w8C-29" value="&lt;font style=&quot;font-size: 14px;&quot;&gt;Extract &amp;amp; Load&lt;/font&gt;" style="swimlane;whiteSpace=wrap;html=1;startSize=23;" vertex="1" parent="1">
          <mxGeometry x="690" y="260" width="254" height="101" as="geometry" />
        </mxCell>
        <mxCell id="_Ju0IBZojeqm3KYI9w8C-31" value="Google BigQuery" style="text;html=1;align=center;verticalAlign=middle;resizable=0;points=[];autosize=1;strokeColor=none;fillColor=none;" vertex="1" parent="_Ju0IBZojeqm3KYI9w8C-29">
          <mxGeometry x="120" y="63" width="120" height="30" as="geometry" />
        </mxCell>
        <mxCell id="_Ju0IBZojeqm3KYI9w8C-34" value="&lt;b&gt;&lt;u&gt;Raw Data Landing for EDA&lt;/u&gt;&lt;/b&gt;" style="text;html=1;align=center;verticalAlign=middle;whiteSpace=wrap;rounded=0;" vertex="1" parent="_Ju0IBZojeqm3KYI9w8C-29">
          <mxGeometry x="40.5" y="33" width="173" height="30" as="geometry" />
        </mxCell>
        <mxCell id="_Ju0IBZojeqm3KYI9w8C-24" value="" style="shape=image;verticalLabelPosition=bottom;labelBackgroundColor=default;verticalAlign=top;aspect=fixed;imageAspect=0;image=data:image/png,iVBORw0KGgoAAAANSUhEUgAAARsAAABRCAIAAABt+5XIAAATyUlEQVR4Ae2d30/bWL7A908BCYmHSH1A2iv1AakPSH1A4gGJl0pohIaZMnSnXCrtZXrbZVl12axmu+jeQe1qGGYbFhqySUvTMJTC0KQFkv6gybSQUGhCoUlbaKAUA6FmSHtWju2TY/vYcRwnkHCqqNiO/T3f8/X343PO93yP8xtA/hELEAvoZ4Hf6CeKSCIWIBYAhCjiBMQCelqAEKWnNYksYgFCFPEBYgE9LUCI0tOaRBaxACGK+ACxgJ4WIETpaU0ii1iAEEV8gFhATwsQovS0JpFFLJBrohZfRh4+/sU57hkacQ4Oj6GfUef45P2pmdm57dgOuTHEAnlqgVwQtbv763xwYeTO+I+9/+4ymdV8rjuGvU9m1t9v5KlZidqH1gLZJWpjgxp3P/yx16KGIuw59qHRF0vhQ3t7SMXzzgLZIoqmd++5H2Ah0XDw2s1bK29X8864ROFDaIGsELW4FDaZr2kgR/mSyftTh/AOkSrnlwX0J+rBlE8ZjEy+HRi8TeIW+eVhh01bnYm6c8+tBpiBwdsjd8bvTj64/8g35Xs6cf/R2N3JoVHnP/usKS/vv3Zza2v7sN0nUt98sYCeRI06x5V5sFx3+J76FXiIx+PBhaWROynk9FlvKAjJF9MTPQvSAroRpdw62exDS+FX6i0Yi+2Mux/+0NMvh2j/dcfOhw/qBZIziQVyYwF9iHr4+Bc51++1DMyHXmirzPsNamjUKSf5umN4Lx7XJplcRSyQJQvoQFRwYUnO6e1Do7GdTBMgnszMyjVWo87xLNmFiCUW0GaBTImKxXbkJnAnPI8+fvqkTS3RVa/frMiF44MLi6KTyS6xwD5aIFOiXBMebAOl+9zR2rv1f+KSmK5ab8RJ328fPYgULbRARkStv9/A4vTT7TvCUvTZW1wKY4ubCczpU8ABkRKnqVhuVaEpaj3in/C4Jzzu6Qi1Tue2+IIqLSOinOOY2af+aw56dzdLRnr8y7QUqj7rDb26lzqoHR1pqaqqlP80nO+2TIQomZAKPdVRaSgpKi45csoRljlHByVZEXTEazM2VJQVFTMlCj6Go9VnOuzTlG5lHRpB2ona3o5JnbvLZH69vJJV69nsQ9JyNYcT9Vd12Von8k7srqGqxRGRlB7pqYaebWjPXtJVnPLbzrLoCkCSqFpaedYSIFxJbpT8Ae1EeZ/MSD17aMQpX5Y+37wMv5KW67j1sz7SM5eikijGdw3VlwPCDlaopwoSVdLqEn6ZuW6sBMrXWWMQgFR2/MQZ48WOjsSnraHq+BEBWmUNfaHsqKJXlQ6QHO1E9V+7KfXs1bX1HFTO/tOItOjNra0cFJ26CEjUiV7/OkVJPtGQq7MWdrQMImzoKWNFwptL661Z6fVFXa0VEFrDb+svOUO4JihOBccunSiDZ5ZUGH0EqtR3H2h9pyw2JnFj8LaaItlzvv2/S21/+Rv8/L3zH+qvDS4sSokKzD1XLyGLZ0Ki6qxR2WJor/E410qUX/KLxktMnCA73hvztUOcDDUXPfIKsprHo84LVaVce2Wos0m7qbI1PLRfaGyjAnPPpT7te+pXb8dMiNrd/VU65zt2d1J96Vk8UxVRAMQDneVsC3CsM5BFdRDRCMaGeotaOuigqZ6H6niuVEW0zrdNjURhp6HSWsSeCVEAgMHbYyKkzdduHgjjqyQKAG8HN5ipG0jVVuhSscAltj9ZVHy8fSqtNhBBsbo3KGpRddGtgIRoJGpg8LbIofvTdOgMiZoOPBMp0GUyx+Mf9//WqCYq3F/LdvzqbAhR6yFmUmjC4/ZF5LyejvgsHc0n2PhB2fHKqsbWPleQHw1R84nLJ3xhwfWU/RQ3KKq4nH6bGPO0cy2qoXVCIJeO+FiFvbL6AgDosA+rFXK7mJFbb2tDVWUiml96tKqytvmiTVQL5HxoqHmu5nTE03O+sbLy6JHEtfYlQC8HUhqTl0iHp1gNPf5lQQX5E9T+1UjUlas2kUOnm2KXIVGv36yIFOgymdNqJNVaKN3z1BIFXdxw0YeUMWXkxlfYYVg8Yj8LBzbJsAFzCR+O9xrZ4/WWZUQs1Kq40a4peBTuq+EUOz3Cw8vIj9rqMc8FpOTEZtRSh9OKPy3qEURBuILY8ZuhqsWGizRCQxl9QDDe48zCzD2sOxq4QWCqWi/1Vqs8k9dZ7q9GoqTefHfygVwZ2OMZErW69k6qQ/jVG2xZOT0IfReLBK8KjOkVGdrc6DMROor08pjvYqUg6s08yKuqfpuYEU54IRM8cOOIig5wfl90XmtIPumdbU5E4cyJCtvgOC0BA9PqVlUeFdS0os0VFfU2oaGMLm8HH+bhqGDkJGbzaHcbJ6e6T2ng6P/uGItxecYhTd2I8jzy8t6S/BsOR57NzcPPJyRxNkOiqM0tKVHzwYVk2fu1pYIoKtBbx2FgEA+ioKOIiIpHLPW8kxmqWvoE3SF6ycNH5MuOcCFvQRvlvsA9uZuG0AYmLRtFLCdYIYJQSoZE0R5jOYeBofKs1Y+2n3TE/V0tnBmr6xciAQ1VXcM2L0dqjZaJUHSdopZDXke3fT5Ru+lLnHxpTBXWPu5r525HTc8SPKpxQzeiHkyhfRdOG+O3HZ993gA/8Y/JcU6GRGEzNmZmWStqtIU+l0GiyutbuTlTduY08f+F5hPJrB/pDC8A0FGEREUH+Ae5od6Cv+u0/3INH5QrKSpGiYKdLmEPM80K8/3JEhTLjIiKuVrhk0UEDK8b5eEm6IQ1QgzFAGmoM+F6hoyQZO8aVZsXz/ylJ9o4u51yaH7eQIEaiTKZxeMo57gbCoUb2SMquorp9c09D8Gi920DEoX0QAQDA+54TacPd/uwRCVD7eIZYWE1o3bYjgmIgs0LipnwUhV7kCg0lJIJUXBsVqrUF6W9Rr5LhsZUoKGKSxQvR4Cp7sW9+TGJnCjoosIkmFM0EmW22UWdrqERTL65ZqJeLC7duDkIP5GIeEX9Ei4X6UC8K1MtUYlYgi0gTpmFjoK2UQG+64L3CeS+wk6OgCg493WgiIIpV1Vdyn2LUG8l+xgqv5Sc8YSGKk7VVUs+j451TiO2YjdhTEKhWyi5SOGARqIct34WEWWzD0mL0UzUmPMu7Ct+9nmD5/5DkfDZuaBIgS6TeXXtnei0fdiFRMlkIYWnXRZjcnggzu6BjoIQBePsJ2S6Rkg1fRe5fhQKD+z1CYZAyFWqNpNtFDKBpr2Nijq4lOL/6nBLcrWE2VuuVq5hr7fDiQZoKBQzmXpAJUvbPEhUhTkbxiTQhldGjKrDGom6534ocugfevr39kThGJA9osYlCuTZfNSSFR+cgI6CEAVdWUU2OoQHJYp2nuciE6I0QlU+wp0UtddzQlA1oLMqeiROK1jTFN1jrtBEz7k2meoBL0cMJVsd2sMP2IRhdHhcFHGVFZT6C41EzczOiYjqMpkXFl+KCsweUb2WAZECluuDotL3Zxe2UanudDLMhfY3cI6SDlGAD+uhRAHYypUaMQEkqaGogNUiyqugYUPRPIwMAHNLFBsTT+iLM5S0IvAIbIvQMDrlaOSC5t+lP+sNRQs3NBK1urYucuguk9k57hEK195G3XHdQ3t9U48FfvB2dU1a+j13ehNiIlV121VNFABweFPVA0MqOEdJhyhq+DT7UBcQBeBQJOXDOB7lYtblRjeylBg6X5HwSaEDUae6ucwGNllE6X9kzgBnKKWbCO9L8vkFV6OlGokpyRV/p5EoAIA03GcyXxO97uvnMScKhvroOTqO+kPbn9ELAQDYl5kdlFe4wDsn9Dyx4Zl92BdK8ej1X+aCXXLxX0Q4HO4LiQLQe0oUu2dMuHn4NDfxVX6BH3XEQ3ApZIMwwqydKF8HF7MWJmEgdVHcTJcoAGd7+UQqGMXRI2gOddVOlHQo1WUyi9LPP3361P7XixAqFAzl+ShI1BdfnV5dXYPqMrMH9K70Zc4/9lr29vbQ0/ZtOw2iYFA7BVHUUDPbOZEOrMXVhKULYn3MWbSLn3VJmXi+PtLEhTeOtSeYCvfzKRflRq9waK+KqLinnQ8tJHOjqJEm9qDB6BUPwMXVwuynTRQAQoT4fuCxNPOGMbqgh7QTtfw2Ku16mcy23d1f0QK2Y7Gzf/gTC5UGoibc91FpAIDJB1PScl0T4tNEV+VuF/p0yjYKxm2LkZEJ1lGSGUCilkdcraCJz76TEAXQrIsKoxfp0YmlAEANNXMNSLlxeAzOsRqkjSQkqrRD0DNHZSanUAVawSZaeZKNaTaD0xFaRB3WUGipmG3YUNf0BPhYRcoJCYwcpUPaiQIAXLt5S+rc0uSJzc2tb861ffZ5Q1pEnTz131KcNre2pSujEnFzNH1FqcJZ/04lUah/o70OvKPAHkuJ0tre+W4+3VOUM8FXOgIDjCWllUYnjETz3yN/aed5PumJj8WJA/3s2VNGnj3J0kn2BKTHKMp7SDabwjEbogazSU0wmUqlR+s7XUh+O95QokvFu5DtUgNXO1EnVnxB+vsZERV6gXmbbPe/LG9W3oo02dn58I+uH9UT9WzueXRV/BNse/H4wOCwlOFbo1l/uYWoOkq7KoiiI56LyTc9CJfxyTnKsoOPtpccOdXrR6JtrDLU1KVqrquGi0zwGsN3LTHdyER+oDgDFZ4p4FOeZBiALsatnI9Hhn+PprEK29h4hM9JLymqaHOiyfK8GlFXG7+sS9hCyhmKvxD/Nznbm7BSyjgNXorS0YyIAgBg30xkumpLubBCeRyFVXnkzj0pTgdlYhdqDIniH+3sEEjm/7KGAZkEUEmnMZmuzkguqz7TYRljlvTY+4xN1fyLK6q7u9qUiGIGVPO9DcgLJIqYF4kZu2wuPuDmsnzfJnnlWPOwfCfAfznJTDJddT3id3Q3scnyhuYmbnWWkCgAANJsJirVbZ9KZLuuR/xj1vb6o1wDKMVVG1EAwNSnouKScv2C5vD+Z0rUSnQV6+VXrfaNDcmDFBYLQLpEjXvEc8psue6HjxGpB2BTPVFltZ3SNz0oOkrUZVR4JVhpZYc3BvhQu8R3UdtQAYvcOiuZB0Ey7ofKYbdpX6dwmYng8WGo6ZymlbSKjLTAt1/gSzdUXpBfzSF59EgVFByJuVq4UhRNJLgmjZ1MiQIAeB4+xkJlMtsir2UXLH34QIcjrxdfhhdfhl9GXtG0MISEVGF3d1fuFzrMtpu/HpAQH1Q4JVGGo+zqVHx3S5EophAqYDfWI2uiEi1SWU0rnyKIneGF2qEbVMjVdaYGLpcQYFBcUlRW0/S9JxyF6eGKa+ljIRyizLuW3InRmhJRAABmEkxSqYTfM8OnCdyAL6Wh0Kqi23xAKHXgFL1K9bYORH38+BHb9+symX/o6X/qf6ZaGcyJGxuUGfcasy6T+fsrV0+faZl9VlivaMbYAHcoTjOrgJjJ0EBY8OIkGEBT/QCO09GQz+3o5d7X973VOeELIivD2fhBaeVZO34VCaJeLOKfcPQk1rD0OHzBqOxTErkG2YzT4WmP09ad0KTbMiZQAzkvk00Y48FlzWYimL9WB6IAABvUZk+/7E9Z24dGNayuje3suGVaP7ZJbEnED+sbvj6kUPG3UPA3uXjOiFkBKjhV/Q4dnJLkyKu/+kCdCech9A6aw1rqQxQAYHXtHfa3M2CH0P7TyNzz0M5O6h8mfL28gp10gqK6TOb//WM7nDiub/h6/nkQVqkwN+J0eMraXtuYnCHF1RNGh4u0JSLgZBbSMX5Wt0T3oDm0km5EAQBW3q5eUfHT1Ncdww8fP5kPLiy/jcZ2dvbi8Xfr75fCr57OzI46x9VIONf2F4gTu/HFV6cLGirKeZabP1Gaj0JecJk9j4Guk38bcMmwJPNDx7roSRSTqba6JvfTaWgLk8k22jqhXH3Z2FTIUIXgy3pKKn5vlc5HAfRt5hUyk606Ok4eioJxczT9XPd66EwUAGBrO4bNpciEIvbaK1et/5MYO6EgodtfNjaFFjT+5q/ultVdoOCdQYajdec7ehzMfJTT1t2OhuxSpu3prlleCEzO7QqXSOmtvP5EsRo+8j7NHCFUwqhzfGs7Flp4cbKxCaVItH2ysKFynOUTCNhpXMn/ZY0982lG2PR2qYMpD65GyVLQHNY6W0QxAcANauzuJEqFtu3rjuGXkddQ40MOFVj29ZyvEc9HMWlvNa19PvwcF7Td4d2I2M+wP5NX26Xb2kK8NbNIFFvg5ubW/Ufeq9Yb6eJ05arNOe55syxOEQQAhBZefPHVaVHrhO6ebGxaWhIvKMYbIE+Pxmn4O5/eUJSiSLt0UG5k1omCFX27uvbI+8R64ydltP7Vf33ywZRCsgUrcP55UBmqht81FzhU0LJk4yBZIHdEwVrv7e1tUJtvVt6GXizNzM79Mh2YD7149WZ5/f0GTafxA74poWo60wILJRvEArmxwD4QpWPFElB9jfb30O1v//7/OpZFRBELqLFAfhMFAJh9NlffgIHqm3Nt29vbakxAziEW0NECeU8UFqpvzrVtbh6Mn+XV8V4RUflggUIgioXq85O/Y7t8BKd8cLyC1bFAiAIATM/4v2xsOvfHC6R1KlhvzYeKFQ5R+WBtomPhW4AQVfj3mNQwlxYgROXS2qSswrcAIarw7zGpYS4tQIjKpbVJWYVvAUJU4d9jUsNcWoAQlUtrk7IK3wKEqMK/x6SGubQAISqX1iZlFb4FCFGFf49JDXNpAUJULq1Nyip8CxCiCv8ekxrm0gKEqFxam5RV+BYgRBX+PSY1zKUFCFG5tDYpq/At8B+JjUimSjh6SwAAAABJRU5ErkJggg==;" vertex="1" parent="_Ju0IBZojeqm3KYI9w8C-29">
          <mxGeometry x="15.18999999999994" y="63" width="104.81" height="30" as="geometry" />
        </mxCell>
        <mxCell id="_Ju0IBZojeqm3KYI9w8C-39" value="&lt;span style=&quot;font-size: 14px;&quot;&gt;Data Storage&lt;/span&gt;" style="swimlane;whiteSpace=wrap;html=1;startSize=23;" vertex="1" parent="1">
          <mxGeometry x="690" y="436" width="254" height="101" as="geometry" />
        </mxCell>
        <mxCell id="_Ju0IBZojeqm3KYI9w8C-40" value="Google Cloud Storage" style="text;html=1;align=center;verticalAlign=middle;resizable=0;points=[];autosize=1;strokeColor=none;fillColor=none;" vertex="1" parent="_Ju0IBZojeqm3KYI9w8C-39">
          <mxGeometry x="61.75" y="63" width="140" height="30" as="geometry" />
        </mxCell>
        <mxCell id="_Ju0IBZojeqm3KYI9w8C-38" value="" style="shape=image;verticalLabelPosition=bottom;labelBackgroundColor=default;verticalAlign=top;aspect=fixed;imageAspect=0;image=data:image/png,iVBORw0KGgoAAAANSUhEUgAAALEAAAApCAIAAAD1fl+8AAAIfUlEQVR4Ae1bzWsbRxTvn7ILCzoM+CDoIQeBDws+CHQQ6BIwQVi0wmltbDCqwBGixlEhRgcbB2zaEiPTqA4EITDGYKSCKl2MdDDSoVilrvZg2INgDqJzWJgyszv7MRpHriy5VrtBZGdm5+O9N7997zdvks+w/8e3gNcCn3mrfs23APYx4YOAt4CPCd4ift3HhI8B3gI+JniL+HUfEz4GeAv4mOAt4td9TPgY4C3AYyL7+o35O3z30wR/L5aSL5aS2ddv+PX9+tOzwONh4uv1lI+JpwcAgUSPh4n1b175mBDswNNrmjwmfiz8fPHLrxe//Ppj4Wc7+rxYSn7z6lsfE08PAAKJRmNCMIg12VvuLvz+x5/m+9//+NNuf7GUzGx9NxlMIAj7ECImxBN5GohINXgi0jxIjMlj4i9kbddfCNmYWPriK5O6ji+sAdvlXPwZkGTF/M2py3s13Z5QP02HI9837fqEC63DSCR16iznTG/A5kHic2BJFQini789NcA6wt6nNHlMCP3El1+tPQgTsLETBpIcfL5ZKNU6vb7WrpUPVyIBWVE3znsG0VT/kJDk3PQwsS0r8Q8CTLTfLhDBdsvNrnZ9Wd6JAQksHnUt4zcPIuH0uWDYfTbnX+ozGhP2t37PgpBPmIeOMWOH0dlTFUlNl254I8FGfvVtx/wq/x1MoGpGVsI/MAhgjI3OXnRxu2rBoJlTpPjJ/x0TQuispzbH9hO945gkJ4oaDwiuLsAE0tq1Rr3WqF9piPoSawiN/Z4WjPEAciQFaR0yttbpEdC1xH7i9iQuK5mqKFjQVSpZRXpeaPcJB3KvCLstOnnruu/RAzEp9Csiuf0W6d0m1aXZhZ4BtMJEtWYjk3iZjdNBF4nqnXHyfkKICfPQMZaf6OyFlEC2MVIVLybQ9fHyHGMehH8El4/sME83cvvSYwnPB21oxZdBm7hIIJI6PRFjAncPiQ/LVm49s5EKXcWZRE4UzT56dZvEQYt/SDIIb1V1C7J6Ma7E3zdKbHUipKGdpUmUtIcEwvmmveWGXtlyvw0mPzaKcUXKtSyBDO1sY8EeS5ZLW9F2SGKr4ZEw8YoeOsbBhF6Oy8rqqeDj4FRyY0L/mAjIweRxB5q27neOXgYlwJzNCEygyiaQQGyHEVh4uR+lFFLIJ1D3JBlUiK1X8sVa11qRBBFyEuH9BGrtqEognKtoFOQG6l3kwkBRcy1aJ5gIADD3stC+RWigwwFGNyfJZ4mjK8sCqFtOqc5HQtnMQubCcoRIq2ZUEAA2JlB9a14CiaOONdzURX3b4aznrvKYcL97EmXR/gkFczCBGhmg8GpTUmL5G9Gcjp+4KURlwKEQVbOBOzgmEcbQ6wdrUfNMFIxlyk6cc6alQpM4CNbOvPECnq4F5NgRYUsEE1Io1+S8ojvwYQzLy5KcqxsYUzYTfediMxjjbiEqM0xQXbjQRmXI1rklXDadDUxwWrnkd4oOJlr5gByxmb/d4/pdRAJ5cjD5JCb0jwlJzlY4kxmNO2KHPT0pwG51bzEoySD+Ucgx9VJCkTaH2AfdWjqEYsJ2+/bct42jzeVwJBKORJ6v54u7y4Rg3WIs1pREWzN2UF3m49n8Tt71W49J8vze3Z6Cx4TJBLOv3whpwdiND7gDo3xi2Ey2vVjBwcRlzjIZe2U+nQ6fxoT4THsHx/QuQWoGJKEntN+mr7x+4o4tdwisoAO6zKmyMreYK14Q1lk6ztIkDcWEWFNnEqpyUKVgMiFl/33I+MawBo+HibHvwKivY1RgWAPW4mx5Zz8k+g7ab+etraKY8Poe+gXTQyM8XZPktTOOwJif8nB+4rZxmCv3mAzmk0qSKFFP4cUEPFtRpJVzbm4Mz1ctzuRsJ5uSDokWrl3hA1WzFuiFmhqtbcYnxLqwqe96Ph4mxr8DG7S2CbfP1XlbYnxzkoxmK9T6DiYM6lo4Fz2oZoAS2qUekwaCsDsM98tJmSUSaJkL0r33CUnEJ1AtG5DBatmTgGjvzltBCmOCCeYzSHAhVCDGxbXrdzFJXi4RkjGMCdri0QWerQALEyJNKTthfILqEn/v8BuMMbosHNa8h3MvOiaPCWHO6qF3YNp5SlUkEFk9KLdv6H3HTae0u0hOm+oQJojaOZUcuk7atxANoH51kgoDSc2xIxw82zBPFhpCCN5Ut8MLoRDDBMZmajJ50OpBhKDWPE6rAIg5pqEVE0CSF1LHrV4fwttuhUplQ4oidSFT7va6rWtIDpakf3Bxr6bBAUJ9rU76g/gHc9uGMWEKY50skN4pbiyEQvN2cDQji7pRaN6Q1etE1AWV8QnM6TKAvVo+6hxzvFhgtdGYYD0FTyG9EOa2J3AHNtAqu861AjlwB2OrBw12sudz27D1/XNyRLR+c4v7dffH7E4SgEjqQ7fiTjiSKwwKODqcXmFU7+SYhk73la0FnsUPWq4TqcaSDSw/YWgld76Brs4YrQAT3vwECKfLvZqHMOmNfVtTKmrXk5/A6Pp4zb6OoWl4x2iCTcVD/+dnmGMKh5mNQkxM6w7MXNK8fiRpQWbGT8iHMaIJRC6pZ48w37rTi/YrUrDWutdCrLMnWenMNuBypBibt7ve5KbTf7g0oN7RTlUNdSC6WJfFJHTyqRTbbvfQ5pH8xEPvwIZM4DdQC8DmD2vRLc/hFjVyhGJfjW+h0ZgQOoNPNAr5xIPuwMbX7r8/kmZsQThN+URfa5cJXQgkvKT3H5ph8pgQwuUhd2D/UKP/XXe9tu/8sxLwLL47gi6MNNAjYeIBd2AjVfA7EAuQu9D7cayR9nokTIx/BzZSA7/DpC3AY2LS8/vzzZ4FfEzM3p5NW2IfE9O28OzN72Ni9vZs2hL7mJi2hWdvfh8Ts7dn05bYx8S0LTx78/uYmL09m7bEfwMBh9cxiXCtSgAAAABJRU5ErkJggg==;" vertex="1" parent="_Ju0IBZojeqm3KYI9w8C-39">
          <mxGeometry x="62.24" y="33" width="129.51" height="30" as="geometry" />
        </mxCell>
        <mxCell id="_Ju0IBZojeqm3KYI9w8C-43" value="&lt;font style=&quot;font-size: 14px;&quot;&gt;Warehouse&lt;/font&gt;" style="swimlane;whiteSpace=wrap;html=1;startSize=23;" vertex="1" parent="1">
          <mxGeometry x="690" y="610" width="254" height="101" as="geometry" />
        </mxCell>
        <mxCell id="_Ju0IBZojeqm3KYI9w8C-44" value="Snowflake" style="text;html=1;align=center;verticalAlign=middle;resizable=0;points=[];autosize=1;strokeColor=none;fillColor=none;" vertex="1" parent="_Ju0IBZojeqm3KYI9w8C-43">
          <mxGeometry x="150" y="63" width="80" height="30" as="geometry" />
        </mxCell>
        <mxCell id="_Ju0IBZojeqm3KYI9w8C-45" value="&lt;b&gt;&lt;u&gt;&amp;nbsp;Data Processing and Preparation&lt;/u&gt;&lt;/b&gt;" style="text;html=1;align=center;verticalAlign=middle;whiteSpace=wrap;rounded=0;" vertex="1" parent="_Ju0IBZojeqm3KYI9w8C-43">
          <mxGeometry x="15.25" y="33" width="223.5" height="30" as="geometry" />
        </mxCell>
        <mxCell id="_Ju0IBZojeqm3KYI9w8C-8" value="" style="shape=image;verticalLabelPosition=bottom;labelBackgroundColor=default;verticalAlign=top;aspect=fixed;imageAspect=0;image=data:image/png,iVBORw0KGgoAAAANSUhEUgAAAOcAAABNCAIAAADSEeT/AAAUnElEQVR4Ae1c+3cURb7ff4fxeBXQgIA8hCAQJEEQFpWHgguiLqIurnd9611XXV3u7l71+Ljo6l3x+Nh1zcxkMsm88n4QkiEEEpKQTCDT1dU93TP9qF+vVTVT09PTMxkyE5LcW5wcTnVPV9e3PvXpb31f3b9A/B9HYLEh8IvFJjCXlyOAOGs5CRYfApy1i2/NuMSctZwDiw8BztrFt2ZcYs5azoHFhwBn7eJbMy4xZy3nwOJDgLN28a0Zl5izlnNg8SHAWbv41oxLzFnLObD4EOCsXXxrxiXmrOUcWHwIcNYuvjXjEnPWcg4sPgQ4axffmnGJbzZru4H+UBtc1gAOtEvnRd22AAOifqBdWtYAdkWg/1rK9is/5AhQBG4qaxXdXN0IXG6B/t3tB7ZlWN8ksl9dbmEqadou4IccAYRu7rsMrdOalZQutzCpZnl5PWnafg1c0/gicQTyEbipurYhlrLx8pKUNRJGE4bt158muZGQv2T8zM3VtZy1nHEVQWBOdO2YYhzulDY0iW9ElWsW29Q3VUzXjil2XVsfy+ra6ZT5ZjSxoUl8pEMaTRgVmTy/ySJFoPKsVXSzOpB1qpY3gP8eUSk6s2btmRH1Tl/WjdvULCp61iBepNBXROzplPntePLfzye+Gkt+NqzQe3pi2sleOTxdllfQOo1v8lOsrJtUZI75N6k8a7+/aleoLrdQE4Jdgl7cQnDUtT1Arw1Dm73rcgtNPC6GUBTqD7fhQCHGxyPUBMVOQR9NGNXN+MyeCMxf79LP7GuFLnd8c0AcsvgepXef0ysrz9p/TjiwltJub4udf1ZvLJ+1uyP26xl9e0HWjZtTgBbyzU90yxSQpV6hNgSOdcuxpGkitD2EcdvfLpUj/OFO2eWObw/BpLHgtrXKsxYhtKsw2xjtaKM4a20Xs8NHO8paj3LWcuH0HYDG5gDWqQfbJaCZCcOMpzC9OGtnv0bvX1QYyYo0ZsHadwbT1tvshfs/0dM3lbqD2AbB6zmmJ2dtWcs7rhhPdktFKOtyC1bW5sdrbX2Pd8s8esCW5KPhpMsj3uED/5jIRlq4rmX4lNXoFPT7iJlloyA9LJG120KwNZ6jUWYt01wHH5IGKhLesOYCZz2FqKhFof7pSPJWD1jZKJwdS0ahzoo6TIRqQjiG83BbMW9MLSIlkezRTsnljteExEJ27YRqjhQOQWqGWajjrCfOOlbMrr2WNL+4okahs5P01WjyLksFAmMwNcWoNFBD7DxrrPSBL66kA2dMaNq4APUvrqhXlZJit21x7a2osr9dqguD7SF4olsKXs9RUQih00NKbRh6Y6l4yvz+aupkj7w7Au+PwF/3yGfHk5NqsYE64tqfh5RD7XBnBO6KiM+cS3yDu+T4MeFpbVcLfOvCDVs4g1D7XX9iXys8J+p9orGnRdrUDGnNxm1esL5J3NSMx+0mHiqxEDBr9zuxtjWuv38xcbBdInLCZ8/JP0yk4gSJj4eTdWHxy7E0LIcJawt5Y7Gk+XK/Uh0Qv72aA+MFqJ8ZUY93ybsicGcYHu6UTw8pVDDb8pVzWBnW9ok6tbFcbmFfKxyADgsMNfR6NMfY/WWrXRk83JZjUbzcnxC1nIVnfN2fuXKpFxQPTKYM9O6gcq8lhHyLG7jcYK0fvHBeYaKqBjqK10k4gckq3u6l4eE4fX6W+8DeFuifylkhKkw8Zb47qOwKi0u94BYPLQzCfTc0iQ+1Qe9Udot4+4Li8gj3NIsDBZ7tQgsZvK6tICbsmRE1Mq2t82P5yR8bDqxtBM2kbKMQa6eS5u+jid0ReJsHuLCc6amt9IG6CPRNpU5gcw6cOidTMYqw9qpiHGyDLjdYUh9/2/IQ/m00ua9VWtGQro7CEhJAtgTFdwZV4LSUhaZc/HxlWLs1mE0r0GV+sT9h1aNMiEuyfrRLvtsPTg8p+Zu1opunh5S1fvBYp+wYJgSa+epADvVdbiG/dowNhxB6f1ChOK71i7UR6Zle+fEueXMAUl4e75KukG1ONVANmcVywo9VjeLeFvh4l/xET2JPi7iqUXC5wc6w6Msl7nTKPNkrr/BhEqxtArVh+GSXdKBd2tQMbif32R2B32e0Ueu0trYRuDzgr5ecdw+r2Nb2qXMJl0fYFEjT/fMr6utR5bEuHJmqagRPdsuvR5XPMqkcR9ZOquajnfJyLKewzi/uCIlPZOXEwm9oFtc34SfhoYyGLsTa0YSBlYtHcNULD7bCcbLXmQi9eD6xBj9OwvomsLtFOtwh/6pLuj8CNwdFV328qkF4tleeJlEO69Rm164Ma9mGbm1U+QQGZRHhplPm51fU65bEb6GLv7iirrBkyKxjFeoiaOZ2kqSoDog+S35Y1NA348nqgLg5KF6S8c7AWOtyC2v94n9dUmMZkaZT5icjybvxksT3tECrR/ji+cSyBrDUCw60wTaL5T2dMj8bSVY344e5NgLpbqCb5v0kJlgbho56x/FBnUqaVCnY4n3uGC6gW9UotObmwBxZe7IXR3aXecGRDqlTyFpxVM5NRE6C5wysHZGNB7GWxew/1C4xE+j0kLLUi0/eH4H/mkwJGXYmdLNxKvVLnLAQqhqE16OJQit1Q+crw9oi/lZNCIZyQzNW+QYlnT6gqxoB26ytF9B2ZFqjkXMrU1l7TV6dLrvDBUnfgm0DcKwrvfGxnxBCvUDvyWQrGGvv8AkfDietl9H2pyPJ271geQP47EraTvBPpdYQY/3RDsnR6nXHtDV+TNxHOiRK0w8vqy63cFcjyHcuXx1Qtgbhu3lxvX9MpJZ6haVe4buMzqbylM5abyxFyprjx7oTjtquPpZaTdSkyy0U0bWXZJ3miZa440c6JKZo+kSd5vDrQqDfyfgZTRg7yeNa3SwWN+fyYXc8UxnWjiaMurDdSGCscrmFx52CVlGor7ToziqfwBxhJuu4YjyeyQBZb8jatWF4Sc4qD9aRNkZkoyYEXR5haxCGiiaBGWt3hKHj0kLN3EwegIPtaXP8OBFsS1DszXspg4nxcn/C5Ra2BGEzGT0K9XuDOFP68kCO1hmE9OkS7gtD2wPwGLG2t4WkiVzfrnTWHumUXfXxmhDsd/I3qKgv9WObuwhrL0r6A5H0Eh/vkpg2RQi9SdyVNY3AasQzBGijLa7RB+PF/pyJ2y4r8bAyrKWDnR1Prs08soxV1sZHw1l7rh8abLtflQkvrPCBcxYGfDqStHa3tdf4wd/HHJSibeaUWy4P2Nsi/eGCcmZEpaaY7TLG2ie6HbQyvZjcKl4XhmLKiKkmfh7cwq8LX48QGoAGfX3jTxfTq/VYF/b5tgXF6YwFghD6yyV1Cdl2lzWAry2TGpL06gAe5fk++2KXyNoxhTy3buFUX8F5IYT6RJ2ugqOujUKd5jtv94KTvbLVRdYMEwfaPKA6AFum9bZ4wb9aom6Lx+Nsi1LosJKsRQgpuvmfQ+rStAOOn13bHzWqhJRZRTwDl1s42YvRfL4P6ySXW7jTB+jW0wN0W192uNQL3r+oJGaKONI594n6nhZYhd0gfP9b3MK+Num3fYmfJlNWC5Wx9hkijyNevzmHrcOaoChqZg/QiS8v/G202JOjmyZ2R8huQ+/5w4S2zAvuaACeTDkV0Mz7QvAWD577z5mXvS2igasJ8D/y3Mbv8oNA3kZRIms7Be1u7EraDQx6f/Z/0kBkJ3GwEHqBvjOzkR5ol22wjykG7biuSbw3AIv8bSCvV9WF7YEjJkPpjQqzlg4chXq6ECmPtR8Tk/GzEWzeudzC9lB2Dqy2i15zJnMNIytrFNnpHGc+LBt/vaxubBarGrHn5KrHQZ/1TWBvqxTJuDI3ytrWaY0atfUZ8jkO/bO6pUv+YCbMF0umlfTx7nQ1RX1Mu9MHbvNi/4aGRJgnsKcFe+s1IdHGFYRQiawNXddWEgVRZPumku/AbqvdG6sOwNqw5KqnkbL49jBkngDtNSSlWctWp3jjUHk1PXTQyrP2y9Ek2/rzJ9BAHPlxSwE43eW/Gc8aAzTjErxuf8mM3W2FDxTXcI4EElPGmRH191F5V0RcQyJZdKfuID71jbK2B+gbSQz4TCbk5DiobpIIgEf4lcUdfOE81tlbgvAyCV8c6sBkrQmK3pi2iRQZPkuCpt1YnYsud/y9iw6JiRJZ2ynoWMl5hP+xGB75oqYMtAUb3HZdSxl/pw880ALpsu5pSUe76E3GFGM72UyOdkneKW3GvwXkjdEJ9EOjSG2hyy08l4lgI4QDT4yFx4mpRw+tmTBmNrArrY26sGg1gvNXotAZE6EfJrRdEbgER9rjT/dgnVcKa58j8SNqIUwoBlFOwlOke6GxolAncVDhHUs0PnRdo0bk5yMqZhUJPL06gKl5tEt2ecC9AXFQ0nFWol64JyD2iQ5ZmzRr/cAp8oX5RysVRxWDxP7iRSwfhFA/NNbheK2VtTgeTGw28dUBJWmYvzufIGfiJ3rkZEYiVTd3ktji3tYZCvEmVYPtbIXgKvF8xXTtm9G0YWolFmuv9YNvx+3233d59eP53tUPEynb6+bsnrTxRtRBD5Uy+XgKbSbaZUcIJnSzFNZa7VqE0BMkhrAZs6pgEOPNKLaFNjUD6+cdVMOkjH+wDb50Hjv49zSDTgFn0byx1IpGsMQt/HFQIVkPwEwL26RK1LUIoYPtRLUH4EBhOV8boIy0shbXIVT5wGuEsgih6ZRJt4U7fOLbg1nv8D/I0t/tTyfnbHKywxfOK/cGIX042cnZNSrDWmqQ2fjEDt+76JAGo+L+OJktIbdltNl8aMKM3S2/caCoqTSmGGGnN9QTOk1AxHeEYcqYDWt9sdRasvke6ZStr8cxyT2xFA2qHGiXbFUMfx7CenSdX7yHKNpDmYphWTN3hLHBsLEJVPnAbR7hy9Fs4IXduXS7FiHkmdJoEcixLtkxYemZ0lY3pqNathhCTQhCLaNXEboA9e3kUV/tB19l3NAuQd9KTm4PwQtO8VqE0MfDKnV1rPutdTo31K4Ma/OZRM8c75r5zcTWuPZktzSjuTOuGE8VDtwWmvNownigBd4fEc+OqTELcSYU440owbE+bbfMQtf+XBZ4CkcVwFKvcKRT7rDkxgScG1NpbmxzQAzk5Vn6ocEyUnf6gNWl++iygk0XHPEAW4M5qTjrNEvXtT/bP0/34CdhWQM42il3WXJjVE4siQebB/neWH71TPi6Rue1sVlkkY33LuIcocsd3xbCJQ0py+sPY4rxyoCC8+T1oDYsFdmXrLMr3q4Ma6lJZOXutmA6jZk//EeX1aNd8sfDSdUyN3bZx8PJo13yB5edFUzLtLaNPNbWsVY32r9hw+4WhfrmZpwHx9orIO5rlU70yA+3wbUkZeVyC9UBsYukx2bH2phqHCSOv8sdX+cHdRHpyW7pYIe0qZnW34ANTaLVUmeCIYTobksCKSLI1tigYdmgjpHLjS1Iaxdr+4ZYO5YwHiRpVRw8aQZ1YfhUj7y/DW7EcmKyrm8C6/0lsZb6JNQu3xaCtMovaZjPnUvQiOcKHy7YeLpHfv+igqEIsBoa2JBbxWGdzg21K8Naa5Sqypd9KdcmiiemWV/f/Y3FOaNXEtWFI2KYZM3ijwW+4vHFFbXKklSjkTLbWOywK64f7IDWmi9WLbWpGbAPhWDWhsRbvOCJwt7VawPYQNzXguO17P5TqnGqT05/CYpGiOoFV318CX7pSvzhqt2aZx3Pjif/jTDm9JDdNH+eBIaXN4DGwsvsjmm3ecBqpzqEIx3YGzvZm+MeXVWMk73yKmwJsHoxrF+rfOLOCGyIpY5hnxiwXmQt4ofand8be29QwcrVA1jNF6mtS2zALl26mgwrCxIjX+kTdkfESrlilfxi0geX1Uc6pFf6E9ZcH1uhi5LuaPtaw5CqYf9iEnWEHWt2afHXIx3SX0qrn/ppIvX2oLK/Xd4ZxhVPO0PiHy4khnNTwR9eTj4QlvxTBXn23dVkXQS+1O9gprdM66fOJe4LwboI3BGGD7VKnwwnrVkMBgVrXJaNkz3yAxH406TdmftxUtsaFH97XrbqYNaRNs4BvS6Cy2qHpKzdSX9664JSF4GfjDhMJHhde5bKGRbvC8EDHfLfx1T6PbU/DibqwiJTAWdG1LoIfDM388xkMEz0cr/yUJv8da6TfR4af7qoHO6UdreIxzplXJ3cLf04mRJTdiHZrWbRqIyuLTIwpdet5Jmzbuu0Xcq7DLd6hJf6E5WqzpQ1U7ZoSpvkij4DuJdko3iJvqSZ+RWYtlHYoW6gaYeSXfz7qGLMuNDDsjFWWlE8G5E1JN3MFGaxczfWSBooURjJhG7Kulla+vLGxq2krs0fWTfR51dUa33M7FhLe5G6x+QcoZAvPD+zkBGYK13bGte2FX5djNG3FF3LLib5pMqUui3kJeGyzYjAnLD2tbzXDazMs7atrM3/iof1Smv7lUpUu80IDb9gwSJQedZ6SI29lWSsbf1WFz1ZnLX517NbMd9/wSLLBZs7BCrP2m/z8rSUah9cVuuLfr82X9f+cyL1weV0ToXxlTbO5rqucwcQv/MCRKDyrBU101Zfe7xbpu9/z+6bipOqka7sttQ9Or5usADx5SLNBQKVZy1C6OuxdD3XxmbRWjUyO9bSaTddS7EMxSzKFOcCO37P+UJgTliLEJpUDVsFHUKoHNZSgFqntQlLOcF8ocbHnV8E5oq1jrMq/v3a/O98cZfLEUZ+8qay1n8tW5dInSr6BQ26DJOq/Qv3M740wtfv/ycCN5W1l2T7C4w20G2BgsGF95Vqm8D8cF4QuKmsxd8vynzXdlkDyC8D/+5qir0m6fiy1LxgxAddaAjcbNYihAzyAnq21C8XEpP8qmderc79kR9xBDAC88BaDjxHoEwEOGvLBJB3nwcEOGvnAXQ+ZJkIcNaWCSDvPg8IcNbOA+h8yDIR4KwtE0DefR4Q4KydB9D5kGUiwFlbJoC8+zwgwFk7D6DzIctEgLO2TAB593lAgLN2HkDnQ5aJAGdtmQDy7vOAAGftPIDOhywTAc7aMgHk3ecBAc7aeQCdD1kmAv8Lc8c/2XnhTY8AAAAASUVORK5CYII=;" vertex="1" parent="_Ju0IBZojeqm3KYI9w8C-43">
          <mxGeometry x="20" y="63" width="90" height="30" as="geometry" />
        </mxCell>
        <mxCell id="_Ju0IBZojeqm3KYI9w8C-49" value="&lt;font style=&quot;font-size: 14px;&quot;&gt;BI and Visualization&lt;/font&gt;" style="swimlane;whiteSpace=wrap;html=1;startSize=23;" vertex="1" parent="1">
          <mxGeometry x="550" y="780" width="220" height="101" as="geometry" />
        </mxCell>
        <mxCell id="_Ju0IBZojeqm3KYI9w8C-50" value="Power BI" style="text;html=1;align=center;verticalAlign=middle;resizable=0;points=[];autosize=1;strokeColor=none;fillColor=none;" vertex="1" parent="_Ju0IBZojeqm3KYI9w8C-49">
          <mxGeometry x="130" y="50.980000000000004" width="70" height="30" as="geometry" />
        </mxCell>
        <mxCell id="_Ju0IBZojeqm3KYI9w8C-54" value="" style="shape=image;verticalLabelPosition=bottom;labelBackgroundColor=default;verticalAlign=top;aspect=fixed;imageAspect=0;image=data:image/png,iVBORw0KGgoAAAANSUhEUgAAAZcAAADaCAIAAADltZhcAAAgAElEQVR4Ae2dd5gcxbW3/YeRBGhXK0AgbEQQOQcHkI3J2Oba18af7XuvuQQbZ2OD7WsTrU2SVglJKCAUUQ5krIRyWqWd2Zxz1uYcJk/P91Sd7tPVcXrCSruzxVPPUl0dpvtM9avfOXWq5ksB/h+3ALcAt8BItsCXRvLN83vnFuAW4BYIcIrxTsAtwC0wsi3AKTayvz9+99wC3AKcYrwPcAtwC4xsC3CKjezvj989twC3AKcY7wPcAtwCI9sCnGIj+/vjd88twC3AKcb7ALcAt8DItgCn2Mj+/vjdcwtwC3CK8T7ALcAtMLItwCk2sr8/fvfcAtwCnGK8D3ALcAuMbAtwio3s74/fPbcAtwCnGO8D3ALcAiPbApxiI/v743fPLcAtwCnG+wC3wOi1gOB1eQcaPd0F7s5Md4ftfBe7pzvf21/j9/QHAoL1b4VTzLqt+JHcAjFkAcHnH8zvzklp3f9402c3nv34ysaPrji/5ezHk89+dn3LFw90Zbzkajku+D0Wzc0pZtFQ/DBugdixgODz9Fesb/78qsYPEoZnafhwUnf2a4Kn24rROcWsWIkfwy0QOxYQ/M7e4mVNn103PPmFd3X2oyu7Mv5mBWScYrHTO/mTcAsEt4AgDNRsO/vJFITFMK1sT2jcntD40eVEkQVzLTnFgn/v/AhugZixgG+wqmXvtGFKrg8oubYnNEDZllC/PaHhwytcLenmwX5OsZjpn/xBuAWCWUDw91duPPvJV4cdxajyIvDaRkr9dsovCWedGa/QUUvDp+MUMzQN38EtEGMWEPyerjN/Gl4I0+MXkWBMad4zzTtQZ/JdcIqZGIfv4haIKQsI3sHWA98dFhSDsBfjOar0F0uxs5/d4OkpMvkmOMVMjMN3cQvElAX87t7mPQ+cT4qh8qLOowm5WIo1fjTZ3ZVj8k1wipkYh+/iFogpC5xPiiG/9CJfLLO09caPrnB3Zpt8E5xiJsbhu7gFYsoC54FiCC9GfKnCXlpsqVoaP+QUi6l+yB+GWyB8C5w7iiG8GOUVKrwIy+jpnGLhf+X8TG6BGLPAuaBYVPhF4QUIa9iWwCkWY/2QPw63QPgWGCqKRYVckvIS4bVVyh3bRhJfeVws/G+dn8ktEEsWiD7F9PilimpZ2kTxtTWhQeIXSX+lhVMsljohfxZugYgsEDWKUXg1Stle2mx7S+RiTtfqL+AXp1hE3zc/mVsg9iwQKcWirry2ycqLxZaqzrVY7HVF/kTcAmFaIHyKIb+YhIkQBBdOJ1J5jtR5VDFLZ/MDHhcL8xvnp3ELxJoFQqMY6zbS6dkWU+3VdENygfKSwl46tJICYapdXIvFWkfkz8MtELYFLFFMCa+hjnmpgKW/+cHl7o4sk6fmufsmxuG7uAViygLBKTZEniOVY/qEMtBf4sFbJ9RvnVC/nVMspvohfxhugfAtoE8xJBewRnIe1Y4hxraMKirPUdoMGV5ALulv3ZYETrHwv3J+JrdAjFlAQTGl50hYo1ybMASKScAiCROhh70UmGPgRfjFtViMdUH+ONwCEVpApJiSXxj5CnueowgviV+YrarAkxXPkTJLhpdENK7FIvze+encArFjAaAYpJiC8oqIXIzyCodc2ySptXVC3ZYEHXgh1LbxuFjsdEL+JNwCEVkAKBY1z9FitpeuCpN0ljm/6rYk1G5JqOMUi+hr5ydzC8SQBUQtZhSeN2rHsBczyTEEbxEpZoFc9ZIuqwV+bZ1Yt3Vi3fYreKZFDHVD/ijcAhFYIDSKIbzOiecI/AJ4Ef0F/OIUi+Dr5qdyC8SgBaxSTI9f4Ygvy5Ev8BwV+otTLAY7IH8kboGILRCEYgivSEYbleQSUyUkX5LdhIiYIbm2ToQDyF8eF4v4q+cX4BaIEQvoUwzhFaHnqESVyZhjEOXF8mvzxLrNEznFYqT/8cfgFojcAmqK6fErHM+R4ZcRvFRhe3XkC/xHmm8hSjDgF7RwLRb5d8+vwC0QGxYQKYbwimTMUUkuI3ihV2jJc9ySQJQXyzJOsdjoefwpuAWiZQGZYlLkKxzlxUS+QGGx0S6sA4z0xxwxco/AYpUXNmKFa7Fo9QB+HW6BkW4BpFg48JLEF+AJaaWqhBDzMlJeCC+scIqN9J7H759bIFoWAIqFhjAJXhjYUmELNtENjMhzRGxJldrNE2tJdJ9nvUarC/DrcAuMcAuETDEJYSb6i/UcFamq6DayY46W9Reh4eaJNbTUcoqN8I7Hb59bIGoWsEQxC+RCXRZl5UXJJcOLTkLiWixqXz+/ELdADFjAjGISvHQdRmwcUs9R5tfmiaDFwKPkWiwG+h5/BG6B6FhAh2IMvIyyJVTKK7RULynChfjDCnJKdBsl5SWSi0bExPpWHheLTgfgV+EWGPEWUFBM4peEFbrCvdTIii9wG/XhFUHMC5VXjUp5sfyCOo+Ljfiuxx+AWyBKFqAUm8YSykh/SWgjy3tFk18SoUT9FZRfnGJR+ur5ZbgFYsQChGK7p0VELlZ8maeqSr5kCJ6jxDi1U8m1WIx0QP4Y3AIRW0ClxVCUqSJf+gkTEpWITNOdJ8QeQOtR4BfXYhF/6fwC3AIxZQFRi21VL3gf/cgXpQ+4jSTsZdFz5Fosprobf5hRaQFB8Pm9g4K3e4iKb7Cuec+0hg8msaX+g0lGpW4rBVAoyksml8mYoxGtjNq5RzkqXwf+0CPKAoLX76z3du521ac6Kv7oKP+ls+yFoMVR+oKj9HnDUvK8Q1MGS57tz3miL+sRLL2ZjxiXh7pP3N+6/47Gj6+s23opxvu1lah5jhqKiYMAPNNiRHVnfrOjzgKCt8fT9qGz4g+DRT8aLPgP62VAe3D+U4Ny+f5g/vcH8r5nWr47kAfle1KFbPbnPsmUJ3ptD7Ufuqvho8kkjZ4JfmEMXmRNlMSXqOY2TayBsnFiLafYqHst+AOPHAsIPrfr7OLBwh8TeBU+PVjww8GC/xgo/IkVlskUI+QizIIykPc9K/zqz32SAg5BpoIXC7In+3Of6D75QMMHk5BcmO0VacxL0l/oiiK8ajZOJGUTp9jI6dD8TkebBQSfw9O8gsIrBAlGMFfw1EDBU4MFCnghwgzE13dVzELxxcgullxP9OfSkvN4v1S6T3yzfjsBGSEOCCWYrS2RiGWc9bqaX5sovCi/4FO4FhttrwZ/3hFiAUHw9qQ7in9uRXZRclHSiQ6jLLvMlVd/riy1gmGLIizniX5SZHIp6tmPtey9uWbzJTLFQC5tFAcBrJMLpZxIQw255PZNE2u38N8GHyG9mt/mqLKA4Bt01s0aLPiBJYpJ3mIwwYVRMOIeIrawYiC7gF8G5JKI1pf9WF/2o92nHqjbNokgRuKXWN9kFWRq5cVeB2NhygrXYqPq1eAPO2IsILgaHGUvGCMM4/Sy7DKNduloLk2cnnUYSaiLyi5j5ZXzOCUXgReW3syHzn52dfWGBFYridErU78yDHgBH6s3JNRu4bPBR0zH5jc6iizg7T4xyETxmVC9Ik4fzGF8UtdnNOWXGbbAf0RmkUqWVCSWte67VU0xKp103Uk1vFDEKdWWgomwi2q06g0J5LM2c49yFL0a/FFHjAU87Z9J0S51nB7D8ybiS9dhNIaXOk6viHaJPuNj/TkK2SXyS4IXEq3t8F2ELOgJQkXPoxQRxlAJVJsOsxBqDLwAYeSzeFxsxPRrfqOjyQKUYuA2EvEFmssYW/oOozG2LDmM/bLPSPmVJXuOohxDIUYqYq6sOcUU5LKovCQgIrZUFU6x0fRm8GcdORYgFMt/CmWXcUWfX4o4fc4T6k0pJK+nuUgUX8dnZDWX6Eg+QuWYnOgPIDOiWDj8kjCnwpZqs2rj5a72LJPv9ksm+/gubgFugSGygKf9s4HgFNNBmAJYYpK9Tm6Xhl/EYVT4jKCzdOAFgTAVvB7uyyKlN/PhtkPEo4RSs3Fi9YaJYj1izxEvK1bWJ1StT6hal1C1gVNsiLohvyy3QAQWoBTTzhD6rjZar8BWzuPqTeuyC91DllzYKDmM6DlCpTfzISw9dlJHihHESKCpXk9HLZlUVZ3gVzDPEeCF16x8fwJB2HpOsQj6GT+VW2DoLMBQLPq5XRH6jH1ZjyC5oNJjfwgQBhRj+UVAsy5BpBgG6VWVsPlFL161YRL3KIeuK/IrcwuEaQGJYrLPqBBZ8nxsGvMyT6mnckzK7ZLGGbUOI2nRD3VRbBFvkRYiuJBZCpzZv9Ob+Z22Q3cBuWSWrTegmN6Ao9pt3CAKusp1VHmB+KLwqnx/QuX7EyrWJlSu5xQLs5vx07gFhtACLMUM+GUppV4R6sL0LrXPaAgvGupS+IwG/Hqw1y6WtkN3io4eepQqioWivABV8gVBfK1LAH5VrE2gFONxsSHsivzS3AJhWsDT/ll/ru4yEtZzuyTZZQgvI/ElxulRZ7EOo9RIZBeSi1Rs3ybF/qAZxazzC9QW6C8I4Sv1F+UX0WKkrOcUC7Ob8dO4BYbQAmqKiT6jeWL9YzCZERNQSSZEaLLrYQlSxGfUkV327/SKRcaWgmVIMUk0YVxM6yqyLXLM3thzFJUXkEv6y7XYEPZCfmlugUgsIFMs+CCjRnOFAi8MdQG/9OGV+ZACVZLsYhqpELN9u8f2rdb9t4qjh4x6qlwn5l6w5II64Rf1EOUxR0l8Vb6v9BwlcrHuJI+LRdLN+LncAkNoAUqxJzVZXbCwhCa3KzSfEXO7zANehj6jDC+Cs2/12r7VY5smlW8DxURfj0bfCWj0KCbzS89zBOVFzmXgpeJXxdqE8jUTeHR/CDsivzS3QNgW8LR/SleVUKyHY8Fh1E1JFTNUtbIL/Ue5IgXpCap0NJfUqCDXtB55k2gxBBBWKt8XtZjsOWK2l6y8xDFHI88Rr4aV8jUTOMXC7mP8RG6BobUAoZi0HqEmtkVRhQGvUBJTIUlCJ+BlEKpXyi7iNjLAQv2lqLTuvxXgwv6tWDuhegPNs1+XIOZMSAmx1J205DkivECC4fUr1l3G88WGtjvyq3MLhGEBSjE6nxEhhdhC/1HM8FJNBnpESuwSQ/XGoS4I1dMMCWPZRbHF+owKZkmO5LSejGk9GQ/0ZExTU2x1fNnq+PI1E8B/FFPJpEBY5fskVQIKeo7YApXyNSQpDOsivFbHl6+OL1tFSsX7PF8sjC7GT7FqAUHwuQSvI0jxuQOCPxAQrF5V9zjBL3idguDT3TniGj1tnxL/USdOb+gzah1GfX6xPqOu20iJptFcBiDLeKDnzAM9GQ90S0WkGEOZslVqirHhLYQX24jMwgoqr3LmylAPh2KCz91Xk95mX2Ne2rM3dpXsGGiwu3vPCj7PiOtG/IYjtIDg97ZmrCxa9WjB8mnmpWj1Y+Vbfl6/943Owk9d3XWUaKF9uN/jaEpfVLjiO03pbws+d2gnD8ujRYqh/tJPrNeJ0+v5jBCn10/vUvqMD1JtJQJLGbaXJBjRXLRQePXYpiG/SOXM/a37bgGJROBFiUP+rplABxwj8hyRX/Jl6fUr1l7qbM80+Rp11rRwdVYXLJ+WOWNSkDLz8qy0r+bMv7Fo5cP1+94aaMoV/F6TT+K7YswC3sGO/CX32ZLirJbkCVlpXy1a+VBb5vt+z2BI1nD3Nhau+I4tKa5o5cNeR1dI5w7Pg2UtpjcNWw7G08nY+prLaqiLFVnf6iFjjt+W/UQcfMyYRjQXIZcaW11n7u86c3/3mfu7T39TRTHEWdkq0StklZdKfKHnKMuuNROMyCVeeWV86YoJFe9f5gx1ZZ6Bs9mZMy+3JcXZkxPsqZealZSJtqR4W1JcRuL47DlTGg4kurrrw/iXdnj2M35X5hbwDLTlLbyd9JOUiXnv3JW/+B6Dcnfuotuz516TOWMS8M6ePLH6sz8QUWb5P1d3fcHyabakuML3vu0d7LB83vA9kFJMXnoQV5Jg+WUAr6C5XeI4ow6qkFlsRfIZFbKLkkuEl8QvAjLQYivjy1ZOKF1BShmpx5etkvLsadoExrnQYcQWNuwFkS+V8kIyitdfFV++NvS42MDZLPuMS21JcSVrv9t8amnLmff0yrstp5edPZJW9fGv85d93Z56aUbieHvKJcWrH+8u2xsbmn/4vgHD486QYrkLbx1synV11+qXrlpnR0Vf3clW++qyTU9nzppMwXdJ+bZfePqaLD5KDFNMCtWLuV0Gw4uaOD2dDKT0FklulzLahSoMK9RtlOL0urJL1FxUdgG25L+SFgO+lEogIyxbFW+kvBQDjuiBaioAL3JNWigcJ5StpGX1JGdbiKskIsVqd//N73UQbWVQBL9P8Lo8fc1t9rV5i26Df2lzF9zcXbrbYu/kh41cCyDF8hbd6R3sDP4ggt/n7G05vTwr7SraVeLLt/zM5+wNfmIgEJsUkxbAAc2lwy8yGUiehq2T3qUfp5+m7zPaJJ9RE+pSaC4Vv05/kziSTGndd0vJe/FsAUXGqi22rhJf+spLAiKVdUToQZFwOcnRGj7F/i54XVY6WUAQnO1llR/9MnPGZbakuPyl9w2czYp0TMrSB/ODzpsFQqYYvVPB5+ks+Dj37ZsIyJLjWzNWWgmnxiTFejMf1viMxnF6tfgykl1SkB58xgwQX+I4YxCf0Yxf3+g+TUrX6W+07r255D0SroICOCtdEY/kCkF8UW9UFF+rNPCiH0E+a+W5oRjtoJ7+5tpdf7MnJ5Ao7KqH3aEEPs7bu8g/OFwLhEexQCBABjdtqzPTvmJLiite/bi7pyHoLcQqxaQoGDMHG8SXKr0LNsWUVJlfzCCj0me00dwu8pcJ1RuHukSfkRFcIL66KLbo3693nf565ynyt3nXDSjEipfHFS+Po1AjFJPD9ozDyA5lYsyrbGV8qSi4jOElgbJ01TmkWCAQ8LsGyrb83JYUn5EU13R8vuDnGRhB39CRekDYFAsEAt7B9rKNT9uS4rJmXdlZ+ElQE8QsxViHEXK7tC2i2yiLLAZecqMYy6eDjCrN1Y2DjBCnN9NcovPYdZoAC0rnKZFfsNm048aS9+KRX6jFLHmOq0QRp+85rpggXU0UeqXQsuKyc+JRMt2wr/Zk7kISIyta9QiXY4xhYq0aCcUEwd9qWw2B1JodLwc1TYxSjBltVDuMqmnYotTS4ZeY3kV9xjNybirIKzlJIji/wGGU4QXii+gvKKe/3nXqa12nvt6040bQX8gy2MSAFyu+xPx78BxXkMg9xrxwlFPpmSr5BQG4c+lRQl/0ufurP/sd/DPbVfzvoB2UHzBCLRAJxQKBwEBTrj2VDIUXrXrE7w6SPhaLFPuEruSlDt6z6RE6zMIMCcjt0ovThxSqR8GlK7u6ThJsKY459fWWPdeDEMO/RcviS5aLmV+Y/yWOOYJXuJIMYioC9pK3yIbYROVFyYUXJ+rs3FMsEAh05n+UkRhnS4qv3z99hL6i/LaDWiBCinkG2nIX3GJListbdJunv8X842KTYrCqF+Mwdmc8ABQLjV9SwEvOTQ3uM36DZZPKZyTwOvk19gCx5eR9XSfva9pxQ9GyeFVBiskJE5RThFwSv1jxpfUcEWEsv6Becu49ykAg4GgpzJx1hS0prmzT/7MyAmXeg/ne4WmBCCnmdXTnL7nblhSX8/aNrp5682eMPYq52z7psT0ozcSGlHpNhF4cZyTTGNmZjN0ZDwRxFdF/ZAL2UqieaCs1toirSGWXwnmkjZRcXSfuJcWYYsXLybRtMdtLTIVVZktQqKmUF5ILnVOsIMuIu3peKOYd7Mh7h2R1F773bb+r37yDqvb6PQPOzqq+ulM9VYf6qo8NNuV6HZ0BIZyJxH6v41wPL/h9gs9abor02ILP7eqq62+w9VQd6q060ld3ytle7nV0h/HIgtftaC32DLRL11b/XxDI7ZHZP/4ozKmOkGLu3rM5NN8i7527yFds+l9MUqxbnAkkjzmy7qQ4H0g5Exvi9ArNFUx24Qijjs8ImouVXae+zsouFl6AsM4T9zbtuKFwaVzh0jiQY1AvfjcOKKarvIBWmJzBBsKQVqDOcFOsvEtEX/F75zy6HwgEfM7egmXfhMQxn6vHtH+SnX6vy9FW0p61oeqT3xa+963sOddkzrjMnnpJ5ozLMtOuzFt0e9nGp88endtXc8Ln7LGUhiYIvVVHitc8XvHBc67O6qA3wB7g9zo9/S2hwoiOu3VWffzrotWPdpfvM79JQfC5u+s6Cz6q2fFy0cqHc+ZNzZx5uT31Enjk7NlT8hffU7b5p00nFg40Zvq9Tvb2jOqC39d0fEH2nKuL1z7p7KjAwwS/z9VZ3Vn4ad2eV0s3/rjwvW8XLPtG2eaf9teeNL9JvIJRJUKK9VYfs6dcYkuKq/zwuaCCPaYpJo0zQpwekiTOENdSnoYt+YyKlAiY24h/GdkFiV2sSyiLLzFaT3UWjEJiC4Ea8RlJYcRX18n7Ok/ciwUoVrQsnvBryXiJaHFstj0Cy6LnqJZg78YVA7/ejS9+9zxRjPZvMkxZsHxa0Hm/rq6a+n1v5S2+B5xQGLfS/rWnXpIz/8bybb/orToStNMLft/ZI2n2lImZs65oz95o9B5q232u3sbDM4tXP9Z8elmo86g68rbZUyZmJI6v2fGyyR0Kfk97zpbi1Y9lzvqKLZnMQjUq9tRLcxfdXr/3dXdvo/ZWVS1+r6t82/+QQZXZU3oqDsBen7O75dSywhXfyUr7KvtZGYnjGw4mRzjjNRKK+X2uhgPTbUlxmTMmWfmCYpxisHqEtPQNLB0RJD1Cx2c0DXWdpiKLjDPSAhVRi+lgS0Gu9Hs60+9RUGzJeOBXERVlhUvGF78bh+QyUV5IK33ltTyu6N34IiCX9Pe8aTFHW0nWTIiLPW2yIJTf6+qtPla44kGYUm5LirenXpozb2rh8mllW35W+eHz5dufKV7zRO7C2zJnTbYnT4C3PXvO1U3H36Y+iLGbKQgduVszyT3E1+z8q+qFN9nsqzuZM/8GEnJ+5y53d63Jkapdgs9VtunpjMTxtqT41owVqr3ipiC4ehpqPn8JxubIdMLUS7JmT8l7566iVQ+Xrv9h6YYfFa9+LH/pfdlzrrWTWRDAuPjyLT8POneaUIxk6sVlzb6qp+yLQEBwtJWUb/1vYrTkCZkzr8iZd33Bsm8Ur32ydOOPqz5+0dFWon+TllsjoZijraRg2TdozOFbrq6aoJ8ZmxTL+BZxG1nNRZe+kWNeIK9QbUFFoblIepeZzwjwUviMNHKPskupuXTgxfCLgCz9HqLFlownWgxYRv8WLRUppop8Aa1U8MJN2X+kyosAS4IXaDFwWouXnwePUujM/wDe5/q9bxh1UJ+zp+n429lzrwU2ZaV9pXzLf7XaVg+ezfYMtPk9g4LX5fc6fY5uZ0dFV8nOmp2v5C4isTZ4+Ss/fN78PRxsys15+0Y6kP+oRacsEAg0n1pqTyWTqOwzLuvI/9Do5rXtjtZioneS4nLm3+DsKNceEAgEnO1lFDSETZkzLy9Z9x/NJxb11aS7umq8ji6fq9/nHvA6u909Df31GS0ZK8o2/gQWF7GlJJRv+bm5ImMoNqWnYv9AU07x2u/akhOy515b/envOgs/GWzO9/Q1+1y9fvdAqDJT93HCppjPPVCz42XiTiZPaD7xjpWbiVWKYVaX6CqqgGWALZXDCCn1sv94ShpehCQJIr4gTi85jFKcHkNdqLOI5tJgS2xMv6fz+N1IscLF4wsWE4+y4J04WpHnJGHMHiGlgy2a9K+SXSy5qMcqjoSeB4r5PYM1//4zzReb3FWyQ/cFEPy+xkMpWXR5A1tSfMGyb3QV/5vEvAS/7vE0duYcbMqr/OBZeyoJptiTE0o3/sjT32p0vM/ZXbr+P2xJcdmzpziaC4wOU7VXbH8GQGlLiqv65LcmQlJ5otCWvZGCO65i+//qPoXX2V22+Wc2qihz5t/QkrHS6+gSjKPsguD3DnY2n1pCFSXRU/V73/AbT2uVKTbn6paMFQXvftOWFJ+3+J6eykN+jyPCEJjyYcWt8Cjm9ww2HEi0p16SkTi+dMMPLS6zE6sUM5Nd1jSXjDBwDxFhkKRq7DOqyaXiF2zi3+N3U4Td3Zl+N2gxQrF34rAULhEppiu+EGdYIZ6jgfJi+XXetNjg2Zy8xXfRoNgDrq4q7Qvg9zip5CEZj/aUhIoPnnW2l2kP023xuwea0hdkz70OWFO26SeGs/AE4eyxuSAJm08ssvIau3sbchfeCoi0JcXlLrjFZc2p9Ln7qz79LY3yXNaWuU575+TV3T8dIlM5C27uKv7c4uCp4Pe2Z2/MnnMNuZ+Ftw00Gq54iRSzp0zMmX99BpmT/7W+muPam4lWS+gUE9x9TfX7/0WWDEieULz6cesDL7FHMU/bJ2SSY3CfkUzAlnUWjceLoXo5wiWF6nXj9BCql8L2QeBFfUaF+CL6CwqVaccJxRBeWClcIq5ygZzSiXxJMXur/FoaR+JuS8YXvXvpOZ2BJPjcNTv+bCerJ8bV73tLx5UThO6SXRB7sqdcUrPjz+7es1YQg++e3zPYnrM5e+5UwE39vjeNBhD66zNA7pW8/5TfM4BXMKq0Z2+ypZCFIcs2/Jg8QvKEzoKPjA5m211dtYXvfZtG0+50tBSyu2hd6Kk4kD3/evA3yfproSyK6/c6avf8054y0Z566dljczUXFxuQYqLTnZzQlrluSFcSD4liPmd3V8nO0o0/zpx5eUbi+KJVj/XXnzZ6Fm17bFLsDFkAmhS17AJyyfCSBZcYnqfYkilGfUZVqItxG3XIxYw5yswCn1GWXSK2iAo7fnfHsbs6jt3VqUex/EXjC5aQOeEmnqOJ81i4VJ1DC+OeJO5G/daiZecwLgYLsUPoOnvONYMtOn6c19ldsu4p8qYlx5dv/W/BZymNQNutWzJWwHp72fOu760+pj0ApqbToYO4rFmTncGC2YLPVb7lZxDX77nyFooAACAASURBVK0+mjP/BhhtNHHi8EN7yg9kzZ5iS4or3/Jzkuql/E/wuas+/rUtOd6eMrHhYJKuv6k8Q73V32CDAGLJ+08Znc5SLCMxrnTdD6yAW/1JoWwjxXIX3NRbcbC//oxOqTvdU7a3KX1B8erHoWPYUyaWbf6ZuztImqvqRmKWYmp+fZOVXbLmYocUpUna5EjWYTRJj0DHkI15sY3ILyK7KLykFoAX8AtYxmqx/IXj82gpXEwohkIMK6JLqBez13qOoLxg0ABUXuFiMhh67igm+Nzt2ZvB18ucdWWrfY3O+yYIrRkr6ehbXP6Se/sbbKrOan3TO9hR+dGvQHeUb/6Zz62fW1u/702ywEbi+I687eaKz9leRkkRX/Xp72hM7Yd0BO1BKxPa6/e9BQGvpuMLtKGuweb8nAVkOa28xXcPNudbf0Y80ufqK9tEVoDInjfVaLCSpVjWrK/0VB7G04eoghSzJcVnzrw8c9YVugW+bvimSArh4rvbc7d5B9p0uofxjZ4Higl+we8WfAOCr38oirt1a49dkbsv5vFnfKtbKsTlJHqNltP3d50U52OTaD0qLxN4se4hii+EFFRk5UX5BZuS8kL9hSzrOHZXw6dT8xcReOUvksrC8YWLyRI9YqGeIzvaCHUgGvwtXBovSzApXQPEFxkxoOMG4ubic+VR+tz9zekLc+ZRLy/10vq9r/v1UtjdvY35S+6FDt18cnFIjpWmhwv99RmZaVcSvzL10q6izzUHkIau0t0wdFj3xaumqopkZtCMhMvbc7cIPk/9gen2lITsudcZCT38OJ+7r/C9b5GgWOpl/fVnsB0rjYdn2JIJSWt2vKzjYuNxZhWh6fh8EuNLSegu2al7IEux4jVP+D1hilzdi+s2MhQzTHlDeGHFnpKQNXtK6YYfdhXv0BJf94MC53itV8Hvd7V6ew572rZ6WlZFpbib3lUVV0Oao+plR9Wf6d+XHZV/lspLjsqXHBV/on//6Cj/I6lX/HGw/Df9hT/vy36069TXOxlvUZEboYsttlFSWKpQF+szguxisdVx7M72o6RAY8OnU0F/sX8LKMVUAS8VvAi2lM4jyC6gVcE7NIeWyd7AoFtkWmzXX/2eAcHv1S8+j98z6Olr7i77omzzTyF0bU+9tPLjF/Un9wpCW9Z6GMgrWH6/Z8BweNGoK6vaBb+37ovXQGqVb/1vXTnm7KzMp3lJJe8/5RloU10BN/0eR83Ol8mg3jt3OogjLHSV7MiceYU95ZKmY/PxMN1KX/VRWOG2eNUjPlef6hivo6tg+QMwjtFdtke11/pmd+luW/KEjMTxZ4/O1j1LpljyhLrd/whjApPuZU0akWJZM68o3/Kzim3PlBuVrf9VvOaJvHfuyEz7KiyiSXNNJtfve5MuvW+c9yd9/LnSYoLg6fJ2H3E1znfVz3DVz3Q1zHQ3znbVpxqXFFd9iqs+2VWfpCyJrnoo0511/2LKW1L9LWcdlDeddW86a99w1sLfN2j9dWctltdo/VXyt+b/Bkue67E9JIe6tCJL26KWXToBL9ZnlBCmgFfHsTuhaCmWu+Di/HfGq8SXSnmxm0VL4wuXiMwqWEwGOsFzFKGmHP0seCcuIooVrXyo4WBK46GZuqXhQGL1p78rWv0YDQmRZRGz517XeDDF06e/PoHP1Vv5wXP0fZ7YfHKx1D8j+v9gayEMFJAfsNBz1nzOnooPniUDfItu1z0APt7T11y06lE6ff1pGPt3dlTmLbqDtGw2m9BOSfo6FRoTWk4t0bJjoDErcyb57Z/chbd5+pvDftrBppzMmVdkJI6v/uz3ur4YUixzxqRW22pz9zns22BPRIrlLbrD3dvo9zr9HoduIXlwgx3OttKukh21O/8K0ydhcKbqk1/T4R32wjr1c0Mxv7PK3fK+q2EWYRb8NeQXkAvglUj5hdhKdNZNlwrwC4GFFRZYgK03KKpec9ZCedVZi+WftP5PZy0tNf9wVP6pN+uJznSSg0oKYksru9jhxXSaLaEM1UvAIpF7gJQku0RmifA6ekeHWG5HiuUuuBhL/iJCMRZVCp+RroEhx+zRZ6RhL1GLLSZ5Z6i/2EpEFCO548kTzIqYXE4cisLl07rL95oMirk6q0AW5bx942Bznk5XDb1J8HvLNv2E/MM+azJdMlT9r7og+JpPLMpIHJ8547KOvG1Gn9BfdzJ7HsneaDyYCn4uDcm/mJE4Pmf+9a4uw5mYnr5mkFo586bq5vp35GwB+Vm66ceReNDOjsrsuddmJI4v2/xT3TRRpFjW7K8apekZPX547QzFrP16CP0YkgbXlENGeGjqnD1lIkmNDjbbf8gpJgh+z6C7ZbWx5kI5ptJcSZLmSnTVq2TXvyS1hfB6i+osxBZWXqOc0vILQIb8+j9nzf85q8lfR9VfeuyPgicox+MVmksRpA/FZ1Tx6/aOo4rS8OlUhFfugovBr8xfRLL5oejwC/1EqrNkRxKSZpm8MxZecn1pBJkW9pSJWbMmZ6VdmZX2FVquypo9JWv2lOw5V2fPvSZ73tScBbcULp9W+dGv2rI2mPhr8JL01Z2EbIPiNU9azHUM/nYJQsOBJHtKgj1l4tkjabpJqr3Vx2w084OsKWrwtpw9No94OskJvUxQvJ1EyhJsyRNabauM7qS36kjWbPKLPmVbfq79dEHwNR6eBRSr+uS3Pmd32GWwpTB77nUkR2H1ozSLVX1HSLHsOdf0VB5U7x6C7fAoBjfi7q6v+uhXALLMWV/pKtmpKzDxroeaYoLf5WnfZoAw8BlTGIdRll2UXObwQocRmQWy63Uqu1BwsRUUX/9w1v6DkEuCl1T/u7Pm74Olz3em38eATJJaOM6oCdVjwoQkwQiwpIAXwuuOjmN3qMjFbiopNh6IlreQzkliw15SthdILTFmz4gvVd6szCwGavmL4vIXji+IhGJlm57uLPioq/jfXSW7u8t2d5fv66k40FN5sKfyUG/V0b6aE/ArhCQYZJxzjx2xs/ATmhsRX/Xxi3538OwtPNG0QmJtdvJzrfE1n7+kqwS9A235S79GsnDffUCbBkESMjzOkvdJ8kf+kntZFrt7G3OpU1m6/oc+vRsmy0gcm2dPucSeeilNrFXfqd/rqt31Nwhs5y68rXTjj8MuJeuegkwFstiRXu7byKJYICC4umrEnJukuJINP/QMGi4odA6i+35HmathpoZiyVLAi8UWaC7wGTHgxagtiHaRIBcUFbx0BRdg61X0GZ01/yCai8oukVyEZQRezpq/iaX65b7sx4FHhGUah1E3Ts+E6hFbtCI5jCywdOsSxcbnvk1KzvyLc98mQ5aMFiPr9oDgEkcbGXgZuY0Kii2KIwOgC8USEcVqd1v+JTf1+6vZFoRW2xryHiZPqPviNV2fSHOOpYbu0t2ZdAJjxbZf6C+nIwh1e/6ZQZdPoMvRqC87eDYni/4ej9a1gWSOrFlX6sbU/J7B8s0/JQkQ86/vqzupvi7h42Dlxy/i8FxUKoXv3u8lyxOp/xtpFCP3P9CYDak5WbOvNh8LHlotJni8XV8wCEOfUTfgheTScxjrjHxGVmphXQUvqrlUskuEl0QuRFjNX53Vfx0ofqaDZkWIiozJkFDKLlFzaWTXneayS0Wx9sO3th+5jVCMwgv4BXVCMRKzp2tdQLaqcsxRASlGbanaxRwOiV8AsoIlEXiU0aRYINByejmZAknmA74ZRYoRn45O0Cnd+GOjPIaeykMwrbrxSJpaNgr+puNvZySOz0q7so8suaX4ry1rXeaMSbbkCWRekUZvOjsrYYJ68donPX06kXtCMSmpLSvtK8QNn3N1RGX+9XV7X9e13kikmOD3Vn3yG5IPnHpp86mlWgvjlzGkFBN8/e6WtXSoEfjFKq/pkfmMCCxVBUJd4DAyPqMovkBzMbJLhBchl7P6FSyOqj90pn9NYpOYWy95i2LAXi9aD6F6RbRLBSxx88htHUduI/BiSsOn1+XMvxgQBpWc+RfnLaD8oqn2RH8x4su65yiG2BiEkZYF44cRxdrsa0UttudV3fcQu2xIFZliG/7TiGI+V2/+0q/bkuJK1/+ArrMof4LX0V2y/gdkdGLFg9pcjcGm3NyFt9uS4qs//5N2nlNb5jpbSgJZq+tAom7qk9/jqP6U/JAKydg4/vZgU85AY3YkZbClwMgZH4kUCwQCbdkbyD8wyWQBJd2AAHxVQ0sxb7e7eZlmnJHVXHqyi+RGaAvE6VXMAldRchjZUJfCZ9RiCySYglyIMGf1K46ql7pP399+9A46kqjAloQ2xm0kPqMFch29nWWWto4UA4Rlz7soe95FuW9fLAsxqsgseo765KLzATDiVrDkknM6j1LGg6bWnruNCqL46s/+oBuf1pxhqYEkdlF/sGL7MyZwrCI0ic+Zf5NqXtQAWcDnJlvyBPIWadSWZ6CtdD1N4l/xoGraud/rguFR+4zLtCIObt3vddXs+AukFOjOErf0hNYOGqEU66s5Dk5lxfZnTNKSh5hiXe7mpXSo0UKcXsztQn5hVpeWXAgvqGg1F7iQuvBSyy4JXi87q192Vf/FSYuj6qWeM9Paj9wOzJJkl5gzQdEWkexSIOzQLe2Hbmk/fCtLMUCYTLHFdOajscMI/iOJ2UP2PyO7cDJT3kJxxABHQvMXDxuK9VQcyJpzNc3J+olKEFl7T3WPElrOvEdWBEuOr931d5NUhlbbavuMSSQho+BjOZdKENqpFsicObk9d4vcLn2U4HM3HEgi/uacq9nhy0AgMNhSmJVGRieLVz/mc6uTXeECgt/bcJCcTnI4Ds2Qrjok/x+hFCPLwNFfQird+LSRlB7q6L7g7XI3LdUkozIBe504/Rt6iV0syCSfsYbCS6G5ME6v4heQS195uQi8XnZW/xmKo/rPpADFDt9KKYayS87tCiq+2o/cJhbGZxThJWFLwbLDt9Z9eG32vIuy5l2UNZcUUp97Uc7bFwcVXzBjiUxdYgpoMS25EGEkmeOdSwabDVdzCQQCX9K+UgNns+wzyLI50Y2LOVqL8t65Exbjdwf7zRvtXem3CP6ana/QRWIvIZm0GjGFZ/XXn8mZf4M9OaF+/78QdoLfQ7RScnzOgpt14/eBQKCnfC+NyseTJZ6Z/1ozVhA8Jcc3HZvHNKurbfa1QLHKD58zyvNQnxPW9kilWHOeRDHDsOY5odgSy7ldLKrYOqZH/JOMMGJ6hJpf2jj931TRLkl2ifEvV/VfXNV/EbElwctR9RItf+w6fX/74VsJrY7dGZRZ7AEqNsmbuvCCRvq3dvs1mRReIMQy516UCRQzkWCL4qx4jjoso8OguQuHDcU8/a0l738fMlSjlZbpc/aKq1akXdVDfrPD8D9PX3PxmsdJaGzDf2L8yzvYCVMgyzYZykNPXzMsl1a0+jG/NOfc5+qDKQHZ86YONNoNPzUQ6K0+CllR+Uvu8/QbToEyuYLFXSOUYn016eBRVn74gv4QM33+Ifcom5BiJuldLLOwLqWk1jK5XYpxRmV6BMbp6SCjCljSJnEbRZ8RsKWA158cVVD+6Kj6U9cpSrEjt7GE0q9DqF4TrTdTXgivgze3Qzl0C1Asax6BF5bs+RerRhsLFsUV0GwvK/xilZdcx0yO4UMxMsV6/3RRmHz0SxREFt9S3cNImgVJFovLX/YN8xUNBb+H5Fskjs9dcDP+RFBf9dGsWZMzEsdTHafO+xc/UfDX7vo7nfd3eV+duCSWs70cctBK3v+++a+QefqacheS3461p0zEH/XQfZYIG0coxcCjJxp5n6yRtaYYeootNgjVa9O7EFu0wsou0F/iX5W3GCRO76x+RdJcjOwSBRfIrpccVX/UFkIxGq7SJ5d5qF4ruxBbh24RsXXwZnJ9pgDFCL/mUIrNIRWWYuAwmnuOOrIL5jOB+FL+zVs0bLRYIBDoq0mnGapxWWlf6as7pY1DabuvSYvX0VWy9rsZSXEZSXH1JP/AY3IwWd+iZIcteYI99ZJOWFBf8Nfu+SesrD3QlGNybl/NcZjD2Hh4FjitnUWfkSGF5ISGg8nmnysIflgGlqxpsfMVkwC2yQ1Y2TUSKSb4fdWf/p4u7HNFe+5WE497yCl29h2GYq8zcxhRc2GoHuDF5HZZ8hnl9AhJcFlxGF+isksHXhRnf3BU/aHr1DcJbsCpZIcgjTTX4VtFJKkCYcgpRnbJ8MLGgzcTilFysX8JxUjM3ornKM++VMkuSKNV/SUjoQsmDpe4GM2Sd1R++AIkf1Zsf4ZNlLfyorLHCD5PS8ZKMkOI/Lj0TYM6K6yyh5M6kUXv3JGROL7q418Lfq+nvzV/Mflt6pJ1T5mPmfqcPQXLp5Ej134P5k4R/JEfFrq8m/7akPqTlNs9lQdhdaC8JfeoRkiVB0a0NRIpNticn7vgZrry2l3mvwVzTihmkiTByC41szBUrwx4kcQu8zi9GKrHOL0U6gJyoc+oQhghl1wqf9t16pttB24iFAs9Tq8DKS3LDt7cduAmtmgpZp99Yfa8i0ON2ROEKTUXu4mZaNnzLhpeFCNDe005sApF5swrWm1rwn5xB5ty85fcB0kMDQdTTP4Zlz9C8Fd9/BtYUN/T39xbeZCsJpQ8oSl9gXyMXk0QfNXk91Dis+ddP9Bo97n6C969ny74d6/57xLBxfyewdIN/wlZY5H/CqTeDZK2EUcxn7sffmguI3F87Z7/M8mSORfR/bOLGP2ll1KvMx9IiS0IeBmQC/SX5DPS4UVFqAt8xj9pHUaphSEXUKzyt47K3zrKfiNS7NAt2vRUEvCizqYcuQf9Bahi5JWMM8aRZMlFQEmPbztwE1LMPvtCLFlzL0JHEgJhoLNC8hxxSgCbiTbstFggECDRsX3/gt8xyl14a0/FAXOPTO+lFVzdtTRXi/wkGv0RCp3fKNE7MdCeu5Vm3iZ0l+6GFIrseVMtLAAvtGVtIMuNzZjUZl/bV30MFtshY7hWVtAX/O05m7JmkQUdc+bf2FO+TzdFVveG5UYyj90gckcPGlkUI78Cc2werEmXv+Reo9++w8cfei22SJzDSNbDYeL0CngZp9STUL2uzyjH6Z3644xGmgskGAuv3zuqfk/IxZYKSYupaAWcCtdn1PKLttzYduDGtv031m6/BuGFlay5F6lyJliWWfEcWYQR/UWnB8DfYTRGKffIrpqS9T+AMH/O2zd15G03/3cYT6QVwdFSULrhP2GxPbIKTfG/rUPB2V6aR53K2p1/hRngxWuesLJe48DZbJIQkEymstfseFkM9tekK+/NcMsz0Fa+9b/gkfMW3dFTvt/6PQcCAa+jqy1rfVfR5yae7wiimN8zgD9FmjV7SnvOpqBSeugptpCmR/xDnIatjtPrjTOKPqMuvyC36y+q3C7JZ2QHGU0dRlF2/c5R+TsFvAjIfkNKhaTFaGhMX3Mx8kpXc7VrfEZFy35Crrb9N5C/B24ELYbwIpW0C21pF2bNuUhGFbPumNhozXNUwQsV2bDzKOFFd7QWFywjU4LIVOq51zSfWkKyH4yzvYBfgs/dV5teuOLBDHpi5qzJrbbV2oR7Q5YEAj5nLyTc57x9Aw3Pk1xZk2RLvJTX0Q1eYfbc62Bh7qJVj1g5Ea/gbCvJX3IPPHLeotsJfH1uc3lFzhX8nv4WkhOXMjF73tS+Gv3fSRkhHqUg+NyO1uLKD1+Af4TsKRPr9rxqNKcKTTf0HmWHq2GuwRoSGrdRX3OBECNZ9ca5XcFD9XLAq+oPGmyhCqP8IhQjLOs8dl/rXgIXGWEY2wrGL63mYvgF5LqB8IuNi6m0WNqFtlmkZM0hWkwHZAb8QqkFSWe4yVZwYsAwpVggEOivPVG08mF4q+0zLi3b9JP23C2urhqtLhP8Pu9gZ2/V4Zqdr+BviWfPva755JJQvVHB52k8lGpPIWMCpKTAeKWZpya+S4L/7LG54lnkB5wmNOyfzr5mVuo9FQcK6HROwu45V1d//qee8n2e/lZdXUZe+LbSljPvFa1+FH4ZL3vutSa5GudRi5GFdptyXV01RsXZWTnQmNmZ/3Htrr/lvXMXWX0zKS5r9lX1e1/3DpgtyINWHWItRikmZ0iokiT+6qyhRZ9frM/IBLxoYr2U2GUx4AU+o1Z26fML5FjH0ftaviDRd32dhURjomAKKrGEIlJLkl1Eed1ExRc2UqLtv4F4lGlUglF+AcUyVVrMAF4Qv0eRZSS+xLkB0gyB4UuxgOAfbMotef97EByxJcVnzZqcv+S+6s//2Ja5trf66EBjVn/dqc6CT+r3/6t4zRPZc6+BEUkanr+5PXerdno2dnqTSnfpbvuMy4FH2XOvc7aXmxzM7upvsMFvx9E3cIp5ki17ItYFv6+n4mDuotvAtbQlT8iaPaVo5cM1O15py1xHHplMF8/sqTzYaltV9clv85bcDdlw5G6T4+u+eNVk5tZ5pJg9ZWLeotvzF99tVPIW3ZE9b2rmzMmQAJyROD5v4a1tmetMHGQ0GlTOCcVCkF10PhCZzGiQUq+f24XpEQrNpY12yZEvVnZJXiRRYb+mhVQ6jn5NpBhwCrHFCrHgPqNIKBlwxIXUL7XbrwFysX9FihnDC0WWkfhC5ZU5l0xvws0wxygHm3Lhda3f94ZWGam6V4SbPldv46EZuYvuALlhS4qDN9yeMpH8OFjqZfDjIKIISo7PmnNN5YfPDzblBo2kGN0YWU5n4W3wQeXb/se6V+h3DxSveQLupHDFg0a/qGb0udjubCut+OBZ+P1KuJrikWdeDkMfIunILzxdkrf4nuZTS3UXR8TLnnuKeQc7YJhY/HZA3pr8TSY/+Ja36M6aHX8hmTFBAgj4ZKTi7m0sXPGQLSmuaNUjXkeXYl/EG4K3w9U4h1l9UDdOL/uM0YCXXqg+OLyQX78W42IsxZBfxrKLcRhvkqJdFFWoyAzIhURr3Xd9zbYpGTMuVBVb2kVsngTWrcMrW5oMwPJLRF4Y+WKegbaana+UbfpJX+2J4IGbiPuQ3+scOJvVeGhm4YoH4ceEVG9FRuJ4e3JC3qI7qj77fXfZF+a58kFvx+91VX5MfsjSnnKJyUr8utdpSl9gT5lIMgN2/d26jtBeyjvY0Vn4ScUHz5KkE/ojb9pHJoov7asla7979tjcwaacoL6z4HNXfvRL4qvOm0q/OO3HRrlF8HtbTi8vXPlw4YrvFK18SKesfrRo9WNFqx8rXvNk2ab/V7v7721Z6web88Mwnd/rbDnzXvHaJ5tPLQtqilCfk1CsYbZBehfE6WE+kOQwKlLqjQYZ2eFFqU6C9MahegjYY+Re3ATZhdhCdSZWVFpMFlMUTAps0RFGEV7gPMotTBRMA7LWfdezpWrzlSqEZcy40DZLQTHWZzRxG9FzhIqWX+FTjHQCwR/w+0LtDREdLwg+Z09v1eGGgynl2/6n4N378xbfVbD0vtL1P6zd9deOvA/cvY3ahe3D+0Q6yvmjmh1/CdUndfc2lG/5eenGH+EcpvBuAM4SfF5XR2WbfU3VJ78uXPGd/CV35y2+s2DZN0vX/6Dm3y+1nH53oCmX/qykhbAd+cqE7rIvCld8u3bX36KuVgwfU/ALPrdh8ftIL4JClJe1BzH6MEEglzL45QSjk6y0SxRTSDCI0zvZaYxiqMtsPpC+zyiLLIxwQQWRhO3YgvAy4hcc8KJIMVUMnqZ3yURjwRSK7GLh1bJ3asveqa37rgeKnUlVyDGkmLn4YjlFPEdmVjm7C+swTzP77dBz96188UN6jOD3+lx9Xkenz9lNPL4h6Lh+rzOsf9IFv3sgDCkRxFyC3+8e8Dq6vY4un6s3/EcW/D5nr+APMhMryM2Mvt2UYml0ArY4B1vPZzRJj8BsCUlzVZnH6RFVMM6oDXhh2Is9EusIuBcdlS92HLmvZc8NrRLFJPHFhuRpqgSG6sW0Cf2YV9v+G1hyte67HuEltu+dWrX5yjMpF2awFEslWsycXznzLwY2sUv6IK3YChyA88zJ+hkjkWKj7z3iT3w+LUApNksRp1fILoSUtoLYgsrvDRxGllMqFYZIMtJcbCyMYIsWPOvFjiP3tuy5vnUfzYdgCYWaSxx2DB9brXunkvLFdVBYip1JuRAKSzHEGZIL1iCzqLxEfsFUTbpsBqfY+Xw9+GePCAtQis3Um8+oxRa0qOD1B72sVBWtTHxGFFmqiowqDbzkXR1H7m3edW3rvuvFAPyQwUtkmaTFkF+6FGO1VVDPUbXIjzjJHJb9gQUzuBYbES8Sv8nzaAGRYiRmbxSq/6MyN+IPdDKQbpw+Etkls8kYW6pjfkUotpuEq0gUTM6z11derLcIriKEukg7CC6l7FI0SgeAFtOlGMILloElvqEyZ0I+QFoqVvYcYZ0fBl6Zcy6yz76QLPvDKXYeXw/+0SPCApRiM6R51yr9pZRdOjOBtCJLpcJYl1CltnBTxSbcVFXQo3zRUfkrUip+KWqxvVMxGUJbYeGlG+oSaQU+o0QrXYS1GmsxIFQW+IAG8IJjZHLBImVG/JL2coqNiPeI3+T5tIAexRBeNE4fQmIqq8WQQUgrVQUPQDxhi6qCB1B4EYTRlmAU0/JLbkFaSQEvI2yp2vW12MwLIfiFaktb0fEcQXlJtCLiaw5ZJ4NgjlnCjFPsfL4e/LNHhAUkiiG5aEU/sYuFlDiTUUpAZTWXUage2YRUwhZVBQ9AbEnkEgP8OhSTCUUzvLTDiwrN9cV1KjxZ3NRS7HTyuAxKMS25MK4v669gyovlF9Q5xUbEe8Rv8nxaQEExQ5+RlVGh+oxIKGTTi9IsItwFFTzAFF4EZMSdlD3KL65DhBkGvFBzhccv6XSWYqeTx0HRpZhMLtRWWvGlUV4qipElGHlc7Hy+H/yzR4IFKMVSLawhYSK+WMZhHQmFbAoKLynghT4jq7ykWBjwi6VYC0MxEWfoMDJJEhbVluIwCV4kzWLPalFIewAAEolJREFUta1fXFe1eTLCCytIMYjoK/gFCFOF7fU8Ry2/ILqfNT8h5BWrR0LH4/fILRA1CxCK1acwFEMMaSP3CCY8RlXBA5Bc2KKq4AFWZRfCy1nxKyiyFttDki1k+iB6WJZZr+Ppe64l5IIiNZpQTAEvI8+RCXipsAWDkkAu2AULmXGKRa2v8wvFqgUkirE8UvmMCCD2GLaOByCbjGTXr6UsijDg9Uvklw7FWM0Vns/IXkEDLybrVUeLnUmlIfnIPEfkF7sKo23WhZnzuBaL1ZePP1eULCBRjI3cI5WM4vQYyw+KLfYAJBfbyNZ/5agQA16Oil86SRFll6ZC9hItdvju5l3Xtuy+VhZiYWgu8BaVmguxpaqotNip5HGnksapKUYFF1JJq7lYqYV7ZXjR9WNtaRdmpI3LSBtnnzeBe5RR6uz8MjFqAUqxZGmoEfnFSi2s414WPdioquAxVuBFkAQlKLzoAS84K14gFDt0F8nd331NaBST3EPZYaQxLxWwdDerNk8+lUSC+ieT5JIxQ5EeQfilDIQhqsz5ZZMWjwV+2egPlHCPMkbfPP5Y0bOARDFgEAJLVUFCIZuMfEY8wBxedK9ELkl5GYkv0GXwl/CLFqrFQqIYwgvFF9tirV61eTLy65QEMqLFUH+hX6kXAmMFmkJ84cqxaeNsaePkXbMvzOTR/ej1dn6l2LSARDEjbGEkKyi2cIQRQaapMA6jRC5dn1EfW1SFybssaTFkk3GoS1dzGTWyFEOciR6lHrZkukl7ZUKB50j5xYovPMBGiWabO6G/KdOk833JZB/fxS0wGiygpBhqrqDwYg8IQ3bpwutXDKdkzcU0yggL4lFGG14INUOKSZBinUfgEbYweBJ/dkQXXvbZYkQM9mbMju8/yyk2Gt5F/ozhWoBSLIlJQ0UBxRKNreMBCC+9xHpNepcEI11+IZ4QXi9Ix+MuqOABzzvLn1fHxbTwshzwQk6ZVyxSLKjnmAE6i3EebbMvtDH8OjNr3JlZ4zJmjbPNmcApFm7v5ueNDgsInnZX/XQpAYKlFda12MIWVUUeYQwWqmfZhGBiG9k6HPC8swILbWEphqGuaGNLBTVdip1OHRfEc2TcRjLsyPyuOKu8gFwEXnR0UlRqnGKj403kTxm+BSSKIbPYCkAqNM1lGvCy7jMi2l5Qw0uM7r9AtNjBO5t3XUPGKIcYXiLL9lxrTjFkGeGUFPYSYZQ2DsYcAWG6ykvFL5Flc7hHGX735meOCgsoKYbaCsmFLcoKidPLyot6f7quoi62LHiLKtmF5BIrVJSVPyd6lLuuVimmqG3imMBuysrd15hQDBUWSZiQsr2I56hUXvbZF9okqaUrvgBesOv0zHFneFxsVLyI/CEjsIBEMZXsUjJLns8ok0vSXEbpEVp+sU4iW0fZhQ7j81I6Be7CCh7znLP82aGimAZemFlmRDFRfJl6jlbglZFGwmFnZo07PVMsnGIR9G5+6uiwAKFY3VviuoOWp2Ebiy/EE3LHSHn9kkEVsok9i63jAc85K6A8H32KaeEFviq2azzKE4kk9/VUCgl1YcBeIb7SdGL2up4j6jLgF25mcI9ydLyJ/CnDt4BEMa340sou6z4jskxVQTAhlbBFVcEDnpexJbuZdG9UtBgSSvIZUXbpVqo2T06fPlZVTiaPRXcSK2JUizqPMpIkXxL3qpUXFWJ4POEd9yjD7938zNFhAQ3FhhRexqF6OfKF/JI0lwpeuFn+fMeBO5p3XtMaRlwsRHgh0axQLCTPEZ1Hllws2rhHOTpeRP6UEVhApJgUqpeytHRlFyusUDqxjVjHvUGxhcxCzfUcMyjJ7tXUQ4ruI7b20HmXGlcROWVeMaGYCl6ottgKokrlNqraMShGKml8jDKC/s1PHQ0WkCgGANKFF8bpWTYhsNgKewALHbYd63gAE+pCnWWlUv5sx8E7WndcFUSLAb/QYQyXX0A3I4oBqhBGLLkwYI+yi4w8ajxHllynZo47NXPc6RljSeEUGw3vIX/GSCwAFNMsfYPkAkgheoxC9XgAsglbVBU8AOFlWXzJaKPnihSbokMxVF5RghcKNF2KnUgeC1RSwUuFNiv6i8AL+UXrZzjFIunf/NzRYAElxVBYIXqwRVXBA5BK1tIjcIRRRhJ7BaM6i7znnBXPkpC/imJacmFL9CosxY5PH3t8+pj06WNPJI9V8QullkVyicpLyq6As0RFxqP7o+E95M8YiQUkiiGkEE/YoqrgAUgcbFFV4AAWQHiK9Qp7+rMivwCFlGItn3+VaDGMdoH4ih62UIWpPMpj08cAwlQUA34BhnQ9R9avlD1HPX6Je7kWi6R/83NHgwUkiiGAVMzCTTwAAYQtqgoewAIIGy1W2HNBfFH9JUo5IsRAi7X8+6utO6eIFBsyeIks231N5cYrKL8UyRboUbKEQjmGFUTbaTHsRSNfRvyaMe4ULTwuNhpeQ/6MEVmAUuxNaWgSmaWbkmrkMyKYWPRgo/UKe7pSdlH/EcjlKnsOiuRRXiVSbIgQBuJu19VE8e2+pnz9JJZix6ePOTZ9THrS2Eg8R4AaKC8gF/uXUyyi/s1PHg0W0KMYaisEELawFdwbepKEIihmCV7O8meRX67y51zlYlyMeJSgxaJLMRwWAH5RhDEUG3PsX2OOvjXm6JukpCeK0X2UXSq/0ornyJKLrXOKjYbXkD9jRBaQKIZ4AjbhpqqC5EL0YIv1Cp4LFaWrqCe7AFuqv2qPMkKKGWCLLJjBlPL1kxBegDAVxdBt1I42wi5Rc1GnkqUVWz+ZOhYLp1hE/ZufPBosIFHsvMBLyS8a6lK5jSpysZvR8SgZQhGfUfIcWXKxdUIxqr/g7/F/jUWKIb+ksJfoZmK7zC8p5sWSC+oIr5OpY0/NGHcyleeLjYa3kD9jZBaQKKbSXLDJyisUUGyjlTqeiJWI4IUgE7UYjlGGpMVChBeCDCkG/BJZljiGRRVJVQ0Ws7fCLyDaqVlxfK3XyPo4PzvWLaCkGEslhA7baLGO50JFGarX1VxlJNRluTzrgjHKA3eQMUrItDCnmC62pGgXQipoBSmmUGTTKcWU8JKV10xxtNGcXKwKO5k69kTKGE6xWH/5+PNFyQISxRBPLICw0WKFPdcwPUIRpw8NXs+5ygm/xFL2vx1WKIb8QocxdHgh3QwophBfMr+seY5G/DqRMoawbBafRxmlvs4vE6sWoBR7w3D1G8Vgoi7LWHIpXUUmTq8gVwiaS4kt5BdUjCiG2NpNl7sIFupCQlmpmFAsEniJwKISjNbHpqeMPZEy9kTqWE6xWH31+HNFzQISxXQJZdKogpfSZ2T4pUqPsOwzmvLLiGLIr2jILl2oGVFMRJiB+FKpLXYTPUcAWXoK4Vd6ijhGSSpci0Wts/MLxagFQqQYCy9rPmNoyssCvFCRsVpMxS/cjHbFkGLR4BcRX5RfJ1JFlnGKxehrxx8rqhYIRjEttpQtUqhe1lyRhLqQUFYqSLGdU3R1U5Qbpdx9Nq4vjlFOJ1kRbGHVFls38xxTif94QtJisijjWiyqHZ5fLAYtYEwxllYahzEKPqMUpLcCLN1jkGI7rooysFgFh87pzimtO68uX6fIF1NRjAWWqk48R9BZNGbPuo0nGeWF8EpPGXs8eczx5DEnZ/JMixh87/gjRdMCGoqx8JLWwME52MMBXki0oaaYgl9TyDynXYYUO5lKMlR1iyryBW6j1nPU8kskHadYNPs7v1YsWkCiGMDLTHPJ44xDF+pCQlmpUIo1f/YVstwrq57CrmuxRckl5/RrKHbk9QsOv37B0X+NgTx7pJiKXMAjIBfNBZPDXip4sZvpyWPTk8dyLRaLrx1/pqhaQKKYIb/OQ8DLCsLI5HCSLxYFiiG8dl1NBJeGXGqKvTHmKC2HX7sAytG3xAxVyFYFhBmNOSo4RaNg4DkeTx4j7qLwSk/mHmVUOzq/WAxbQKKYuGKX9WmMejkTEYe6TPkl3hvll6vsf11lz4RJMcQWMCsYuVQUQ3hhBSkG5MIIPYnWUzcTW1iEydiCiD4Lr6Qxx5IugHJi5ng+AymGX0D+aFGwgEgxOtQoy67QfMZzAi+CLSjPuMqecYdHMS2/sMVapXzdJIQXVoBiJ1IkMSVle+nCC8P2MtGQX0ljjtMC/AKNxikWhV7OLxHbFhA87e7aN4chv0B5OctV8CL8ghKCFkNCofjClhAr+hR7k0wVEsP2VH/JhGIyJ4BKil1KfqH+Qh/zePIYTrHYfgH500XBAkSL1b6h5x7qzs0+P7ILycVWzCjGsilicgX3KN8kcTEAmQJSUthL0YjkStZRXiy/jlO/klMsCr2cXyK2LQAepQWKDSG/pGCcoexi4YV1fYohv6IKLwSZkRY7yWguZJZh5EvPc5T5xQTFjk3nWiy23z/+dNGwQDCKDQm8ME7vLHvWWUZGG6G4ScBL9hkRWLoVBcUAXjuvbiUlyDgjIimMii7Fjrx5QToTFEOKyRVGfx1jICWTiya40l1jjiWSuP7RxAuOJpHCtVg0ujm/RkxbQEOxIcEWLqejlF0Qp7eKLRXLFBQzTY8Ig1ZGp7AUO/TaBYdeu+DAq18+TChGEiNkbKWQVC8oBFWamD3LLwyHHUscc1QamsRGTrGYfv/4w0XDAgzFhpBfSniRJAnrmksFL9xUUAwdyaGooHO6c0r5ussOvvrlg69+Gfh1gNaBYjLCkF/WPUc9fgHITszgM5Ci0dH5NWLYAhLFoowwLbaiQi5EmDrTIrrwYrBFJgZAoY3l6y478OqXoQDLSL4F1WKs8kIlxWoulSg7JvmMeLBuhVMsht8+/mjRsUDUKabkV0Q+I8ssZZ1IuSHRYsgvJbzEWBvVYgeoEMNkMdGjhFR7xnM8lnSBCmEypKjy0jqP8gGMX3mCz6OMTk/nV4ldC0SLYgbwCjPmpWSWmCBGG8EVjTbFtPDaQX+sF9ulCniUGBEDUXb4TQIsZJAKXpAwATF7iHxZ5BdckGux2H35+JNFyQJhU0yJLQx1DSG2pBFMEWSRajEAE2ouA2yhCoMK61Hu/+eXoRx+XS27wHkUuWbNc0QIqiqcYlHq6fwysWuBMCim5NcQ+Yz/q2KWdjMcikmSSo52WYMXsgwoBvACIbb/n19WUUzGUGT8gutwjzJ2Xz7+ZFGygBWKKbGFsot19CKvy66iFli6LVYppiUXtoReYbWYimIivCDmRXO+ZJwxca5QG7kWi1JP55eJXQvQeZSvYz4XWwF40WXFxGnYEk0iZxZ7hZD5BbcRhGIsodBtZBvDqhtRjLBp+hhIVQ2VU+bHc4rF7svHnyxKFhC8ne666Vp4YT49rQBoWPREXg8TXhJJyenyyjyYaaFiE5MkgV5hJBUzikUguExAdnL2pIHmXJNv+0sm+/guboHRYAHBN+BufFvpMw5RqCsibLloagWLME/pL2SKAbyip7mMSHeOKXY06YLMxbc5OypNuiKnmIlx+K7RYQHB7+n4TFJewK/IdRZ7hYjgBXlhLLzcZc94Sn8BRabY0PMLuHbuKVb20TNeZ7dJX+QUMzEO3zVaLOB3Vrkqf2ecosUiyXp9COGlQzGVIxndTUTkjqvOMcWOp4ztyPsgIPhN+iKnmIlx+K5RYwHB7+nc7Sp/PmKQRUQurc/Iyi4kF1uRtVh0sbVziiIV43xRLHFM2daf+Vx95h2RU8zcPnzvaLGA4Pd4Wta6y38ZFsjONbwQZO0HbhN/PSRaFGOApQuyc6fFUi4sWPu4u/ds0C7IKRbURPyA0WIBv7vT07rJVfkbayCLlFxGoS4klJVKdCgWjFwszoaaYrCmWHrq2NLt/zPYZDY0if2SUwxNwSvcAoGAIPgcpa76VFfZ8/ALHSrWsJtWKGN0DF7H6ACL7W37b45Ii4XCL2AZUAznHuEMJLKuYcTlWOKY48lj85Z/rS17o9/rtNgjOcUsGoofNmosIAiCb9A/WOjt2ulp3+Zt3zwkpW2zt2Vd5MVRObu/aIbF0lc0ozc/McLSeuat8l2vqkrlF69W7XstwlKz742m4293lexw9zYGBMF6h+MUs24rfiS3ALfAcLQAp9hw/Fb4PXELcAtYtwCnmHVb8SO5BbgFhqMFOMWG47fC74lbgFvAugU4xazbih/JLcAtMBwtwCk2HL8Vfk/cAtwC1i3AKWbdVvxIbgFugeFoAU6x4fit8HviFuAWsG4BTjHrtuJHcgtwCwxHC3CKDcdvhd8TtwC3gHULcIpZtxU/kluAW2A4WoBTbDh+K/yeuAW4BaxbgFPMuq34kdwC3ALD0QKcYsPxW+H3xC3ALWDdApxi1m3Fj+QW4BYYjhb4/9VkY3x/T37uAAAAAElFTkSuQmCC;" vertex="1" parent="_Ju0IBZojeqm3KYI9w8C-49">
          <mxGeometry x="20.000000000000057" y="40" width="97" height="51.96" as="geometry" />
        </mxCell>
        <mxCell id="_Ju0IBZojeqm3KYI9w8C-55" value="&lt;font face=&quot;Helvetica&quot; style=&quot;font-size: 14px;&quot;&gt;&lt;span style=&quot;background-color: rgba(0, 0, 0, 0); color: rgb(27, 28, 29);&quot;&gt;Statistical Significance Test&lt;/span&gt;&lt;/font&gt;" style="swimlane;whiteSpace=wrap;html=1;startSize=23;" vertex="1" parent="1">
          <mxGeometry x="870" y="780" width="254" height="101" as="geometry" />
        </mxCell>
        <mxCell id="_Ju0IBZojeqm3KYI9w8C-56" value="Python (SciPy)" style="text;html=1;align=center;verticalAlign=middle;resizable=0;points=[];autosize=1;strokeColor=none;fillColor=none;" vertex="1" parent="_Ju0IBZojeqm3KYI9w8C-55">
          <mxGeometry x="150" y="47.470000000000006" width="100" height="30" as="geometry" />
        </mxCell>
        <mxCell id="_Ju0IBZojeqm3KYI9w8C-48" value="" style="shape=image;verticalLabelPosition=bottom;labelBackgroundColor=default;verticalAlign=top;aspect=fixed;imageAspect=0;image=data:image/png,iVBORw0KGgoAAAANSUhEUgAAAXEAAACKCAIAAADTx+2dAAAgAElEQVR4Ae1deVRVR5r3zCTT0zPdMz3dk9Onp7fTr2eY5xxyjM8OmpFkSGw1RltD3EXjlkjU1k7UuHYiGiUuuIs7cUdlURBRDMoSRJFNNjfA5QEq+yYPePjeu5Pu26dS1L23bt3t+YCPwx9161Z99dWvqn6v7ldVX/Xi4A8QAAQAAf0Q6KWfKJAECAACgAAHnAKdABAABPREADhFTzRBFiAACACnQB8ABAABPREATtETTZAFCAACwCnQBwABQEBPBIBT9EQTZAECgABwCvQBQAAQ0BMB4BQ90QRZgAAgAJwCfQAQAAT0RAA4RU80QRYgAAgAp0AfAAQAAT0RAE7RE02QBQgAAsAp0AcAAQ9FoL3D+ai+tcDakFxUWWBteFTf2t7h9FBdMbWAUzAwIAgIPD8Eqpvav0q6NzokzbI44dezY38wOaLXmHDh/w8mR/x6dqxlccKYkLTwtIe1ze3PT2XxkoFTxHGBWEDAPQjk3KsLPn3Tb+UlIX0wxrwTnLL9/N2iskb3KCxbCnCKLESQABAwBIGDyff7L7vISBwsyQYs//pg8n1DdFUiFDhFCVqQFhDQA4GYzIpBqy6z0ISKNINWXY7JrNBDTZUygFNUAgfZAAEVCKTcrBoTckUFUyjNMibkSsrNKhUaas8CnKIdQ5AACMgj0Nza8cHu60qpQWP6D3Zfr2lytxEXOEW+N0AKQEAjAncfN2uxwmphllcWXbhyu1qj/oqyA6coggsSAwKKEUguqvzexFNaeEFj3hfGnwi7fE+x3mozAKeoRQ7yAQIMCBxMvq+REfTKvvjoDQZ9dUgCnKIDiCACEBBFYNLWq3oxgi5yRq5LFdVT30jgFH3xBGmAwN8QmLAlXR0R/HNAxLsbvtl9sST9Ts3TtmcI0LNZFZ8cyvndkgR1Yvlc00MzkECDAsApBgELYns0AkERhSpG/o+mRm05d6ehxU7H7mS6dXhwigr5fJbdF0vo8jW+BU7RCCBkBwRIBE5ceahiwL+74ZsbD+pJWdLPy8PzVZTCZ4nOKJMWrPUNcIpWBCE/IIAjkHu//l/fj1Q62oMiCnEhjOGjqQ+UFoTSJxVWMpaiNBlwilLEID0gIImArf3ZwBVfo3HLGJAilIt5T06lW/d8XbImuiijuFa01IirVsZSiGS/+ihG0bRItHTRSOAUUVggEhBQg8Cy43nE0JV9fP2zRGFJexNL+i0mbbHeC+KDIgrzHzYQ6Y+ona0MD04hROnyCJyiC4wgBBDgbjyo//4kZXvbfhEYc+dRE45dUVmjkE1wYvr5rDPJReRBnk8O5eBp2MOR16x46bqEgVN0gRGEAALc1J3X2Aczn3Jj7G0cuKKyxv/5OJ5FCEErzxyuN4PUHHR+K+gyrsDcA1lSH2J4MnoYOIWOD7wFBJgQOJ/7mIUL8DSWxRfsz77zBclOKLyQR/WtuGaZJXU/mhqFy2cMH019wMtp63D8YHLEmugiXKyKMHCKCtAgCyBAIjB4dRLjGEbJlofn41IWHMpFr1gCL44/iWfnOG5fYilLRiLNa8u/5uWcTP+Lube81kaIVfoInKIUMUgPCJAIHLh8jxioLI+XCjqt5v7Hh2dYcuFpiC8XjuNm78vCExDhoWuSA7Zdnf9V9urIwj1fl5y5Xh5x1Tp205VdCSVhl++Z5p59aUZ0UmGl0+Uia6jkGThFCVqQFhAQQ2DkulRi9LI84pKiM8pYsgjTEOYP+zOn1IyJSIlKT79T88ZniX839sS7G74ZHZL2wymRP5kevS+xFCVQGgBOUYoYpAcEOiFQ3dT24viTwtEuG4NLWXhY2YcPLvxy591r5bU2/C0KS3EKx3Gvf5ZYYP3bEnWHw5mY/yT7Xh2unqIwcIoiuCAxIEAicOqvZgg0dNkDuKCJW1UeOOSL63B8Z+vlOC65qOqXgTG4Jr5/Toy4KrlsHBRReEA/ByvAKXjLQhgQUIzA9NAMfPSyh5tbO1BhGr3A/ezDM0gUH6huag9NKJ62M2Ph4dwLNx4Tb/HHQmvjzz48MybkCh6pJfwcOKWpuTkjM3vrjj2Tps4a/M57JrOF//fy9hk2ctyMWfN27tqflp7R0NhpL5BoJW/kF77czzcjM1v0rYdHNjc/PXL81OgJ07y8fUxmS3/fwUtWrMrMznU6O/3meHgtQD0Vp3t43rn7uBmhF3L2NjsZiaYctjYZSWMPXC+pNc0922tM+A+nRLDnoqd0H6fY7fZLSamTps7ihxCiEkpg5OiAyOjY5uanUnU4eDjcZLZ0OU5xuVyXklL7+w4WrfvCJZ83NEje/9Ta1vbxouWiGXWJ7O872H/cFP9xUz5bFRy6Jyw17eqjx086Or77RZVqi54Zf7mwUnSEs0Ti+9buPm5myUJPo9Q3SlJh5c+wxaYE6nSGvX3dwSlOpzMl9cqbQ0ap6/S9+wxYumL13eJSV+clrobGpoBpgV2OU1wu1+mYuN59BlDQmDjlw6rqGtFWNJpTpLR6Z9T4bTv33rlb4nA4RBXrmZFLjyk+4IN4Yeau6zhowadvoleqAxO2pBOb/fEiDlwuRZbauOwKYoa19Fgenlh12HBOqayq/uPHi4U9ta+P3/qQ7TfyC5uamxFZtLa1Wa3lJyPPiE5nxgfMPB0TV1dX73K5mpuffrlhCy+2a81TSkrvv/7WcCEgRMzq4I300et0Ohsam6zW8vCTUcNGjiOyG/c40G/YvgOHq2tqVfe57pRx8nb13iH/YcLJss4bzMZu0uHqn3+fHr0+5hYO8q2Kpn2JpUPXJPNUFRRRuD7mlnCtavL2q3gu1WFjOSW/oGjoiLFE/+7dZ0DonjBba6edxcIKVFZVb9y8g/57zkvuQpzicrl27j5AACL6+NobQ2/fKRbCIhpjt9v3HjjE/lFpMls+XrS8ta2Nl9bR0VFVXZOWnvFFcEhfHz9RfYhIxkYU1bY7RWq0rQr9TutCK73GhP9TwKlfz47t99fr3BlnPX4rL+nSNAZySvq160KTwaC3/W/kK3A/U1ZWETh3AdGhiccuxCktLbZZctVBtTufIHIKXqrVHQ7H6uCNKK9sAOcUXGZbW3tEVIyw4UQFDh0xNr9A6/EQvPQuF/7tXw2cjINWNJnw8p2zWRUf7L7+05mnRdMbF/nbuWd1wd8oTkm/dl34i9fXxy/9WqdvSJY6OByO8JNRlAnL6dhzLHI8IU19fcN7494XHZ/CyIioGEU6Z2Rms09VpDiFL7GsvIK3VQm1ImL6+vjFxSegr1dFCneDxN+bqGa3G84LI9elNmGLygiTRltHxFXrJ4dyXluu2MkTLp89/L2J5AEipIyigCGcUlxSOuhtf6LzmcyWw0dPqOt8LpcrLT1D6sdT6dhTBJC+iY2bp3Acx2ip4duFzinfnhypqq6ZOOVDYSMKY3r3GXA6Jk5dy+oLr5ulVTe1s49YSkqveXH0NZfyWpt7+KVaj4tQ9ecUm822cMnnwp43aszkyipNdyxmZueKWje7EKe4XK6Nm3cIwRHGKLKn8GNJ0SRIllM4jrtbXCoKuFBbdTNQN1OA7sXl3KujMIXSV0ERhQ+qW2SVLK+1HUq+r+6EkaxKORq25CPN9eeU+AuJojPwjZt3aP8pE/2k6kKcwj6bkF33QU2IArpzCrtF2WS2DB0x1motR8r0hEBmSa3sKFWU4EdToz4+mMPoJrbA2hAUUfjC+BOKiqAn9kROqa6pnTD5A+HvmMls0WXku1yuyOhYgrN0key2MSBaBQIxyv4Uip66cwrHcbfvFL/2xlBCPalHFTxIqY7nv7LWiJ/Wo49blrf9l12c/1X28bSHpZWSGz55fK7erdFy1w+hjCd++8TFJ0h1OL1WZ1rb2j5dthIvpWtxCsdxWvbRUkaaEZyiaIudiu81SnU8/1Vbh4MYk0Y89ll0ftaezLDL9+5J84u6K8oIbT3RRmu325esWIWPdjys48gnjJE6SnZnPybO+/zf7/+wZMWq/IIi1ed9jOAUjuP4AxB4U1LCO3cf0P6F685W0FjWv0xRfJUPMZLZH18cf3J0SNqR1AdPGv62sQhXXjuteOJacll5xZDho6U6nC72FB5El8u1e99BVNCmbbtwcHts2CBOSb92HUEtG3h/xuym5u+OxnX7tvjPP8axk4JeKf9x4qmR61KFZheNtOKJe96ysm8Qlg68C06Y/IGOG7qt1nK0XL0+ZHu377ssFTSIU27euvPqwN/jTUkJvzrw9zdv3WHRtnuk+V/lN4TpxSy9xoRvOdcJ6ofVLVpMtp64Nz8iKobS27TsTxH2P4fDsXbdZr444BQeH4M4hfjSpDexyWxRsa1R2L5dJUbFJWHfn3TqF4ExfRad174Ht9eYcOIKsXlh2ao5yxPPEG7atove4fTdxZCTm/dyP1+T2QKcYiinKKIqvRb4ugqnfHOrmn0M/2bO2a3xnWYWsVkVUzScQuw1Jtz8p06byL9dYGbXh0j5df4TXWDXc3/K+pDtdE4xmS2D3vZnPxpHr2FdXf3oCdOAUxBKigY/y543XrIisT2NUziO+8n0aGJwij7OPZBV1ShiW+U4TvXlpHxBi47koj7AcZy6Y40/nhaFC9ESdjenmMyW198anpGZrX11wOFwBK3ZAJyCml/R4AdOQbhpDMi6O3hpRvTB5Hv0UpKLqkSZiCXy1aUJuPA/qHLiH7BNH0cHHMfpySmy3z5oFtO7z4Bj4ZF2ux3HQkX4fEIicArCzSBOqa2tGzVmMmo72UAXOtKJoNMS2JtYQhn5I75MLbRKeu3Dy115qoAih/Lqv+bF4XICtqlx6XLiykNciJawnpwia6MlumPAtMBbt+9qmbDw/mgXLvm8vV0rPWkB0UPyGsQpimy0Xt4+Wdk3PAQQ96hhrbERDtPQ+F8VKeLWIyiicNjav7hH2ptYQmjYf9lFlJc98NKMaFzOR/sy2fPyKX88LcrW/gwXoiWsJ6dkZGYTrCH76OXts3L1uppa9ZeJaKm8aN7Wtrac3Lydu/bPmDVP6IJ79rxFR46fKim9R3fCJirZ6EiDOEXRWvKQ4aPLyiuMrqmnyRfe/meaezY+5xGh54PqltEhafiA/3AP6foDf8sYfmH8CbygT4/cYMyIkun44aPztw99zxuFX3inYRRf1jhkBoWdTmd+QdGc+Z9SHLXgVRjoNyzs0DEWnVlM17hkPsxu70CAGMQpSSlpQvWkYgi11dWdEC61rqeovlJCEHpaAmm3O63+TNqaLjTHnst59N/zz6FhjAK7Lnby5pdRrPhc4jvBKbjy879SvJwcl03SHy5QaVjPeQp9bz7RUYSP/X0H7//qqKxPSaU1lE3vcrnyC4oYXRARavf3HRwbd4G+m17duCIGp2wtOI5TNMbY5YfuCSNqTXkkzkmoqzshX4oOFNVXSggLsCxp0EG+bfF3henXnaH5r8Yv5fg2r1LDStS1MrzE3n8SYS5EYcLAH9al4tm1h/XkFI7jKGcIiY4i9ehmZmlraw/dEyacm/iPm3ItI8vhcDidzty8Av9xU6QUNpktX27c2tbWTmmMlhZbTm6erBNMvAj2MY/KVTTGGOUrciI1wn/i4yed7hVva2u/mJik7sqEwLkLim7eRk5zUTWJAI/tp8tWiu7h7t1nwPbQfU+eVNJ5n5Cp4vF42sNXFl3IKCZdfz+obpE1mr684DxRIrth5XdLOi36qJjm6DtJ0fnbh+M4iq8DfMDIhvv7Dj4WHmn0nKWhoXH+gmVCZYSuBh4/qRzhP1GYEsUsXbHaZrMRPYN4dDgcew8cQlnoAcYxjxdhBKcoMqZI+fF7+rQl6Iv19PoSb+cvWCaLJ153p9MZfjKKEKLjZii8LKmw0FFAfM6jPovOC6cGwpj3d1wjxLKcTvzpzNOZJZ1skUo/fHSfpOjPKRzHSflkItqb5XGg37Co02e1LzkTrcU/VlXXTJ05R6jGoLf9i0tELrWXPZ67ZftuWcNtZVU147qsJ3AKfgBCCBQREzh3AcW61NbWvvzzNUQWyiPxDSXagkQk2gPJi/Xy9klKSSPSuPNxQ+ytvx+nwGHS2SzSto1uzxByEB9zMa/TzteyWtu/TY2SSiwar/skxRBOkfIdSelA9FdvDhmVknpF37krRUmpH1t+3Zqi6sv9fFPTZDYOdXR0LP/sC4oQ9MoTOCU3r0DoqBxpiAekiBgfw5VV1WMnTcdzUcKhe8LwvCxhwtWLCgBZSmFJ86C6ZdpONZcoC4UHRRSKHlMUdQf3/o5rosQhFWnEJMUQTuE4rvTeA3RomNJvFL0KnLugrIwkcmEbsMQ4HI4t23eLlj7obX8pB4iVlVUj3qV9/pjMltnzFsnO2BlNniqGhL7fPuw+rl9/a3hmdqft4VKtwD6HnTV3QUuLzLckUYqttXXeJ0v5Zn25n29Orj636hGlyD7mPWh4dWmC1DCmxxM7YlFZRWWN3/oxQP+ibmt3XLhLF068/dVHMUJvCahELQGdbbRIFVHHsaLDmD1Sr3uqklLSRO15JrNlyYpVUp9aDY1Nsj+zL/fzlb29iHFn4PPllMdPKkU/DIWNpejCpubmp4yGahUu43DSp7Qj6qIGBY6nPSRGr6LHPovON4tdzUHXNj7nkaJSeo0JTyrsZE2ny1f01ihOcblciZeSGWfOwp5KifEfN6WwqNPVjYoqTLe2nog4LSWNmFpLaUiRwEv2cE5xOBxJKWmM7vL/+PFipXchpF+7zp8mlwIQxSt1GYc+Tr28fVK/SZdqRzfE71Q4ZSDo4BeBMVmlnSyvFJ3rW+wqXDFFZ3RafqbIV/HKKE7hva4aRCuqjws5HA7KoST6vnKXy4VuaEb9XhiQ3QfhmZzS0dFhtZaHHTrGePXym0NGxcUnyNqkhT2SkZpNZovSy1uQEZ3lC1SomL4xa6OLCKZQ9Pj9Sae2xd8l9q0QGtqfOXddLBbdR0cva/dF8kwAIVnjo4GcwmsmemWycCiqiFm8POjpU/n7UHCA6EdXXn9reEnpfTw9ET4de05Wz67CKbIVkUowbOS4mLPn6ftxCNyIR/apytHwCCKv1CO+jyYuvtOWDaksRscvOZZHH9ssb/1WXtocd6cSc5JQXmvLKK5dG12kdG8bX9z00AyjK244p3AcV1NbJ3qLmFSvZY+fNXdBLfNZIdnbat4b9359fQMFcZaLKQ4eDqdI4DjOQ+Yp7CCbzBYvb5/RE6aFHTpW8eixljOfPDI2m+3bY1MsCgRMC2xobKLjyb9F+2iUzm5YhKtOo+I4HwvRqE4zUu8ts6LIuINTOI5zOBxRp89KXU7K0r2k0gj3p4nWk+M42b0hspwie/iAZbnBYzmlr4/fqDGT/cdN8R83ZeGSz7ds3x0ZHZuRmV1dU6viG0eqFfj41G/SpczkREOzTDrwXwulVhi6ntrfTtqqxvOAatagZFx81E3nxd3EKXzbfHv+eOXqdYydiehblMeFSz6XXcHlOI53tkKRw7LUUnTzNuUOrRUr10otG6He6SGcwlJZpLPugYbGJsYDVizGEbTbTcVqke5VEwpUen6HwgvqXr0w/kTYZRmnUEK1Vce4lVN4w21+QdH4gJmUsa3i1e59B+lzcpbNZizDjHIbPOOHGHAK31kZj4axLOKgWc9zXEKmj8Dkokp1Lh3VkQie65VFF67c1nRPOb1qwrfu5hReA37BUt3RMlHGee2NoUU3bwurh2JYnJWxcAovsKa2bueu/e+MGm8yW3r3GTB15pxz5y/KzlD4vMApPA6yn6KooelMgX+QsnwooS7h/oD7Jywf7L5e00Q73WoECM+HU/iatLW1R0bHDvQbhnqPlgC95yEbHqUIFXs3VTQJcAoPmsvlOnz0BKU50Ku+Pn65eQVSUCPDuUdZZ6W0dduEZUzIlZSbVVJqGBr/PDmFr5ittfVYeKR28y3dPiprTDGZLbI2Wl1aAjgFwYhf/IYYRDSwdt1mUTuxJ1tnUTWFgZWnCl5hO6+Mf8UwhgetuhyTqc8pFqHmLDHPn1N4LXVhFsr1qWhDlGiX5SNHvDuxstJwagdOQf2SvgURbympc1jI1uuZ1llUU9HAxbzHc/Zn/XzWGUaykE02YNnFg8m0DVaiauge6SmcwlfM1toauidM9Y7+0ROm1dXVi2LE4nBsoN8wUS8HogJVRwKn4NChLxecQUTDoovEnm+dxSsrFY7Nqpi09eqL4xU4RkD88ps5sbP3Zx1Pe/iwWtn+TylltMfrySnrQ7ZTRjW7rqqXnKWO8LW32xk33bnhXk7gFLwn4BZWUSpBkUJzCZ7Xw62zeJUp4YS8J3sTS5eH5wdsu+r758RfBsYg7uADL82ItixOGLkudc7+rG3xd25XMG0IpJRoxCudOUWvK7h5H7EqlpxFL5dhP2MiewJQexsApxAYojtqEX1IBYit+miOI6Qbooiu++h0ue5XPU0uqiytfNre4ewSFdGZU0xmi+ioVoeF3W4/Fh4pdBYr1edMZouoLx92Tln+2RcdHR3qtGXMBZxCAKV6qz7yRCP6WUSUAo9uQ0B/TtF3WLpcrozMbMaj91J3ErJzii7fbvTGA04R4kPxaIP/fuDuILu0dVaIQHeK0Z9TjFg9uX2nmNFxnOixYEY3BSazhb4grUvDA6cIYUQEgTOIaBht1e8e1lkhFN0gRn9OMZktRvgWZnQcJ8opHMdR3KYQfdfoiTRwiuiwORoeQTSE6CNP+t3POiuKSReNNIRT6Fta1SHFuO1y07ZdovIZR7LJbGE/Xy9akGwkoybsBwVQifr6o0Vi3RNQtFU/L7+IP8nZja2z7oHdiFIM4RSDNiCxXB4kdYdDVvYNxvPQLIfWtLQEcIooeviOWNEZCop87Y2hH/1xIf9o9KRSVFWIpCNgCKeYzJZN23aJbqamayP7lr4dluL8UdFdzuijXVYfFQmAU6RAY9+qzxOKQT9dUupBPCMCRnGKrB9GRv2IZMiPMfrVwgMU8zD70g/v1swIkxBfF+AUok3Ro6IryuiXHCCZEHA/AkZxislsWR28UfepCn26QV/GZrQC8iQVMC2Q3SulomYDTqHARXd5hf9+mMyW7rF3loJGF31lIKew3MunFDWKGVLWDqJ0as1yVymhv81mS7yUTPf/DJxCgIY/4gs6BIMQj2CdxXHzqLCBnGIyW8ZOmq70/hc6OpR5ytSZc+j+kJVOrb28fSKjY+nu43Btnz5tWbw8yGS2rF23+dmzZ/grPAycgqMhDKONJwSJEI9gnRVC5yExxnKKyWxhdBbLCIeUPQXfYUkRxX4BMN+De/cZEBkdy3JVc1l5Be9gVdbjHHAKpYE4jmPZqg/WWTqGz/et4ZxiMltUfESIgkJZbmRxLs27718dvJH4xaM/enn7rFy97tuj0qIqcRxnt9sjo2ORT6ntofvoViTgFCkkUbysq1ojNkCh0iGgEQF3cIrJbPly41a6lYGlGlLXkrJfx8FxnNVaPnTEWDqPCN/29fH7IjgkJzcPXQyOLu7DveqyWHYZOUWFI0uKsUlYo3mfLLW1trLA7v40slv1wTrr/kZhL9FNnMJ/BDU0NLJrRqR0OBwbN+8Qjo1Bb/srdaQUfyGRcf+bsDhKDKMm9C02SL4KR5b0WxaRZD6gQj7RIoY+UhbpwDprKPLahbuPU0xmi+rr051O56moM0Ii6O87WIUXJYfDsWX7bmKMaXzs6+PHoonD4Qhas4GlLBVO5zIys4UQSZVl0AYi7T2Sl0CZToJ1Vi+QDZLjVk7hb64I3ROmaNZtt9uPHD8lHC2vvzU8MztXHS42m23pitVS401pfO8+A07HxLGsEKHbrViKUDTDdzgcSk1Fh4+eYNFZHcIac0nZzsA6qxFYN2R3N6fwY6m/7+D9Xx1tbn5Kr6HL5bpbXBo4d4FwBAZMCywr1+Qc3GazrVrLNGUQlo7H9PcdfCkplWVw2u129uPRJrOF3U5kt9v3HjgkpF1cT2G4r49fzNnzLKta9GYy6C1y44ZrruJopUHqgVgpBAzhFC9vnz8HBZeVVbhcro6Ojtt3iteHbBd6rvby9pkZOD8yOtZqLUe2T47jWlpsVmv5ycgzor4je/cZELonTLvFl1+y2f/VUUV+5PD+bTJbxgfMZLHmtLTYMq5nzwycT2SXfXxzyKiTkWceP6kUriU5nc6GxqbiktLwk1HDRo6TFSWVYHzAzNi4C1ZreVNzMwszSvUk3eNF9xMpmrvprhIIZEFAf07x8vY5FXVG+OvX1taeeClZlCakujsRz1NVecUjlooxplHt+La/7+DI6FiWuwdZXPYTNRU+IvOHooNLQjksMVI+aBgh1TEZ4aoWrLM6YmucKP05ZePmHcIfVVQBl8tVVlaxbedeRdcPDnrbf9+Bw9U1tUiOvgGHw3EtI2vqzDksnw8D/YaFn4yS/XBDGgKnICiUBoit+mCdVQrgc0mvM6dI3e0krJvT6XzypPJ8QuIXwSFjJ01He8b4Y8HDRo6bNHXWpq2hSSlpdXX1bpuTNzQ2JaWkfblhC6HS4Hfemz1v0ZHjp8rKK4RTMGHtIEYvBNBWfbDO6gWp0XL05BSjdQX5PRABtEBuqFObHgiscVUGTjEOW5CsFQHcTAvWWa1ouis/cIq7kIZylCOA3FMMGT5a49YB5YVDDpUIAKeoBA6yuQEBtEN/7brNFMO/GzSBItgRAE5hxwpSuhUBdJLQy9snIzPbrWVDYRoQAE7RAB5kNRIBtDnF6NtRjKxET5QNnNITW93z64yf9yGuXvd85Xu4hsApPbwDuK/6drv97LkLoydM8/L28fL2GT1h2tlzF6Q2IqMrxNh3PLmvJlASFQHgFCo88FInBGpr62aJnQWVci2alJLGHyMA66xOLeA+McAp7sO6x5bU2tb26bKVUkeNhJ82aEs+fztyj8Wti1YcOKWLNlxXUhvtrxellfdnzG5qbsbrg6yzsHcWh6WrhIFTukpLdWE96V5j/IaMvFWX3akAAAGmSURBVP/gIaqe3W5fsXKt0bdBouIgoDsCwCm6QwoCOyEg65wBuXHgs2VkZvOudmQvbOpUDDx4DALAKR7TFN1UkfZ2+8Iln4t+9fCRL/fzvZFfyNe+qrpm4pQP+UlK/IXEbgpJN68WcEo3b2BPqF7onjAKp5jMlk3bdrW32+/df8jfu2YyWwLnLmD3UOMJdQQdEALAKQgKCBiFgNLrH/v6+OXmFRilDcg1GAHgFIMBBvEcp+jyE/ZLCABaz0QAOMUz26W7acV4+UlfH7+4+AS3ufXrbih7Rn2AUzyjHXqAFna7nX5LwfiAmYVFt3oAEt28isAp3byBPa169fUNkdGxM2bNQx6IB7/z3povN93ILwRHv57WWOr0AU5RhxvkAgQAAXEEgFPEcYFYQAAQUIcAcIo63CAXIAAIiCMAnCKOC8QCAoCAOgSAU9ThBrkAAUBAHAHgFHFcIBYQAATUIQCcog43yAUIAALiCACniOMCsYAAIKAOAeAUdbhBLkAAEBBHADhFHBeIBQQAAXUIAKeoww1yAQKAgDgCwCniuEAsIAAIqEPg/wFpH6mRgkPK7AAAAABJRU5ErkJggg==;" vertex="1" parent="_Ju0IBZojeqm3KYI9w8C-55">
          <mxGeometry x="60" y="43.960000000000036" width="99" height="37.02" as="geometry" />
        </mxCell>
        <mxCell id="_Ju0IBZojeqm3KYI9w8C-26" value="" style="shape=image;verticalLabelPosition=bottom;labelBackgroundColor=default;verticalAlign=top;aspect=fixed;imageAspect=0;image=data:image/png,iVBORw0KGgoAAAANSUhEUgAAASwAAAEsCAYAAAB5fY51AAAABGdBTUEAALGPC/xhBQAAACBjSFJNAAB6JgAAgIQAAPoAAACA6AAAdTAAAOpgAAA6mAAAF3CculE8AAAABmJLR0QA/wD/AP+gvaeTAAAAB3RJTUUH6QcBCQQ3JAMAGwAAKVpJREFUeNrt3XmcVOWd7/HP71S10A0KqAQX4hqXiMtVlgaMBgQxatSgI5NERecmMTMYTZyoKHrndiZO3KJiTDQx5ma7M8nFFYwaFSNJZGkWFxQdBcUlwQ0UZO+uOr/7R9MIdEOfqjqn1u/v9fJlU3Wq6vTzPL93Pc/pqudnKGo6jrzssR7d69buDUE/c/8UsJvhfdzoDfRx6GNObyAN9AJ2AnqA99j0c3t0w2n45J/e/sNKMN/i9nUOGwxfCawH32DYRzjrMD7EfQXGhxCsCC1c7h6817ox9ffnJo9dqd5SmJqgumPIVffvlgqCQzxr+2PsD+F+BvuHzt5m9HfosdUD3CM8q3dxk0d/vEd+jXU4b5nxdzfeNmcJoS/GfEnK6hfPvPGM1eptgaWokBh26ZT6sKH7URZmj4bgCPBDwQ4H77s9BDqQUL5Ydby/4yHLcF5weA7jeQ+yC3vU7/nKjKaRGY0OgaUocQy+8g8HpILweMePM2Mg7gOAdFQEqgyr7b3GGszmQjgLgtkbW3eapaWlwFIUIQY2PbR7XWt4Es4XgBFA/w5JKqy6uisLPh/jCYfHG3rsMVszMIGliGuZd+XUz7jZOMxPBwYDwXaTVFhFuKvDMauAhxzuT2VTf5x967j1GnUCS5FDNE6a2g8418y+gvvASBAIq3yw2ibCdZhNJeSXzTu/+iRNTaFGo8BSdJ5V1njlH060wC8EOx28LjIEwioGrLa+30J/i4BftmbCny2YfN47Gp8CSwEMaJqy0y4t9V925zLMj8gZAmEVO1bb/LPF4HfZwCfPu+mc5zRiBVZtRlNTMKz16LPcg+vAD8w5iYVVMbDa9obpFoQT59x03jMawAKrZmLYNVO/4G634hyaWwILqxJi1R4h+P8LPTVx3i1feVujWWBVbTQ2PdLfWlt/BDY2YnIIq/LCasu71xn+g+67tN48o+mfNmh0C6zqmlVdPfVsx34K7CqsKhyrrc/zpdC4YN7N587TKBdYlQ/VpVPqwx7dfmpu4wtKDmFVjli1Rwbn+829llyrj0IIrIqNwU0P75FqzT4CHC2sqharLeOxjAXnLrj5q8s1+gVWRcXnJj60Tybt04GDhFVNYNX+HEuzWU6ef9t5rygLBFZlLAOvnPoZT9l0YF9hVVNYtWfUCs+Gp82dfP5sZYPAKutobHqkv7VkmjH2ElY1iNUnsdrD8CShFX8EaoJ44uSLH+lmLdl7hVXNYwWwswXBH4d+57fHKDMEVlnGR7u03o55o7Cqeaza+2MXN//DwG//Zh9lh8Aqr6Xg1dPOAvuGsBJW2/THnnUp7h144c/qlCUCqyxi2KVT6g1+KKyEVWf94c7gdI/6a5QpAqs8okf9VcB+wkpY7aA/JjX+6/8dqmQpPPRXwkKWgk2P7GKtmb/h7JwcVrYBfHro/rBhr2cDX2ahrzOzfrjvYdgw4Eu0f+ZLWJUbVu0HLN41s+qIR2+/ZKMyJ/9IqwkK0D6TOT8prBxWgt9Q3631xzOaxq3p5KDXN/3/AeCKwVfeNzgg+AH4aGFVdlgBHPRRqteFwO3KHM2wShJDJ01bBBwWN1aG35uFf5573Zkrcj2nIRPvO9UCfoOzq7AqG6za453M2g2fWXDXN9cpe/ILXcPKdzl4zUMHJYCVY3xv9nVjx+WDFcDcG856OPBsI/CysCorrAD2TPXofpGyR2AVP8LwlPiXgfb9OT8Y27R1affcY/b145aE2ewJwNvCqmywalvSOBfR1KS8E1hFXku7DYsTK+D+5uvOaIrr/ObdNO5dCMYC64XVtveXBqtNN+/b+PH+n1cGCaziggWHx4jVGrdgQqEzq22j+fqxC4CbhVXUvkgcq7axE4bnK4MEVlHDzfeLCSvcubH5B2e8l8iJ1q+/yeEDYVUeWG1a+p9x9tlTUsoigVWU2DTYGuLACmit757cn7qbm879OMB+LqzKA6tN0fvtvdccpUwSWEWJdw5s2IUdfiQk+ifYDZ6a0TR2ZZLnmzUeFFZlgxUAoQW6jiWwirQcDLP1cWAFEMKjSZ/vvOvPnA+8L6zKAysAcwYrkwRWqSnLCQEHLLDXkj8vc2CpsCoPrDbFIcoXgVVRWAFks9l3i3F2hi8TVmWDFcDByhmBVVFYtf2jrihf0wiNdcKqbLACvOexV/xiZ+WOwKocrABS2T2KMsNy9hRWEc6zOFi1za5bgt2UP7mFdmsoJVbuBPheRTrZvYRVV+dZPKwAzNAMSzOsImLlxLD5nh2b9JkOv+z+T+Gd7ZcVcXkkrGLHCgd319bJAqu4k6vCsAKcLyX9ZdhMkDkNSOWFFYUgIKy2hxVA1k2fdhdY5SVZhG2N+w3dcMQJSZ6RwTnCqrywUgisSsSq7WYLrgNPZDPFIRPvPQlspLASVgJLUTBWm+4b1HjV/efGfUYnX/xIN/PwBmElrASWIh6sPnnQz4Zcce+gOM9qRf3aH4MdJazKESsJJrAqFau2R9UHgd03/PIHDozjrBovn/JvBl8XVsJKYCnixqr9p32y6XDu4CvuGVXIMrBx4r2/xOx7wkpYCSxFIlhtjpBdAwseHXrlfbcfd9WUvrmc0ZCJU079qH7NfNwvEFbCqhpDn3SPnS7iqMhc5+7favHg/CET7/mVO1N7NOz+5xlNIzPbPmTY1VP2zrYGpxnhubgd67kkSMFY5fF7CiuFwKoqrLb8x86GXWzGxevXr1jdOPHet4C/Gb4uhH5m7B22so/h1nE/QWElrASWonhYbRs7AwPABzibeArzSGJhJawqOHQNqzKwipgcwkpYCSxFl/kprISVsBJYwkpYVStWLtAElrASVsJKYCmElbASVgKrukUTVsJKWAksYSWsKh8r0SWwhJWwElYCSyGshJWwEljCSljVOFatShuBJayEVSVgpbmWwBJWwkpYCSyFsBJWwkpgCSthJawUAqvUfgkrYSWsBJawElbCqqZDG/jlEZmG1Wt8Q31bvb8Om+jtqB5qGPEVdvAcYVjY4/M5hzDX5wgxow9uFwqrHZynKZdyDTWZIpFovPw/DyLrrwqrHUw+g3DIvNsunKfRoiWhojLWzzWLlZaJAkshrISVwFIohJWwElgKYSWsFAJLIayElcBSKISVsBJYilp0TFgpcg99cFQhrMoUK3/piweRDn8X6eDQc+yDDjeuAtZi/h4hi8FfxYLn7LN/fENgFdaN9rkrH+7dGmR3CsNMj7rAGrKhdUv2NYuw0VprBZxjLr0Uhp82YZXfcrk9UjTgDMz1XHf4el19Var9E/hu4I6/dNKbwJ9xfxxaptqAGWsEVicxoumB3htbrNFDBgGfwdgP2Bem9s9AnTmkLCB0MNtOX8RWiitIPjmCPAe3RznHTp4j4e8GCqsCsYr8zhAjVp2f3r7AeMzGQ7c1/tKY+3F+zWGPP2VW/PVu2YA17NIp9XSvPym08DTDhm1oCQ/Fse1/eaiLQVUWdQPjKP2kLzILq5Jhte1xPdvwYjwvj3nBF/n3OeyJe4sJV0nBOvniR7p9tHPmDPCzHE6FsEebT2FOySGshJWwShyrbf95BNgUXhrzjL8YTrLDpz9WtWANbHpo97oW/9pHtF4M7N3pOlpYCatqxyrfy46lx2rLOAYL/uiLTryHdOsEO2TG8qoBa/jVD++b9exV1hKOB+o7bRhhJaxqAat8J1uxYRX1XDzCsQ5wNpm64/3F0RfZ4dPvq2iwBl74s7r07ntMCD1zrUHP7TaMsBJWwqpIWOXRx123cT/M7vVFo+/i/cxFNnJGJm5LEv/g6NBrHhxdt/seCw0mI6yEVdlg5cIqXqy2uNkupG/dw/7siN4VM8MaOHFKr3TQ7U5CvtL1wEkSq/J8JxdWpcaqq0dUOVYFjaNI/TiGurqZvnD0aXbk9NfLeoY15Oqpg+pS3Z4zE1bCSljl1x8JY+WJYtV+w2EEzPJFow4rW7CGTpo2LnD+DOwnrISVsCoAq0h/RixbrNp/6IfbE/7SiQeVHVhDJ02bCP57oEFYCSthVQhWRO/78sWqPfbC/TFfNGKPsgGrcdLUG8Gvp8vCFsJKWAmruM0qY6zaImR/wvRDPv+0hpKDNezqadcZXB6pdYWVsBJW8UhVKVh9cvMguq/9eUnBGnrVtEnufqWwElbCSlh1fd72VX9x1EUlAWvopGnjML9WWAkrYVWNWEX9tT3CsVud083+wqgjiwrWsKsfHA7+a3TNSlgJqyrFyuPHqi26Ab/xxSfnvI9dXmAdd9Ujfd1tCtBdWAkrYVVAf9QeVu1xFOtbJhYBLLdWy/yCDrssCCthJawqCqukfsfoW0RP8oVjDk0UrMZJ0y4BP01YCSthlVR/FAkrLyFW3r40zNyWGFhDrpm2v8G1wkpYCatiYEU1Y9X+wxh/ftQXEgErlfW72e6OC8JKWAmrWLGi6rFqC/MbfcrZqVjBGjpp2jg3ThBWwkpYVQpWlD9WbXEEh3745djAGnbplHrwG4SVsBJWlYSVVwJW7bdf7d7UpUeRwPLu3S5mu7svCCthJazy649WYfVJfJaFfx5bMFgjmqb0xLhMWAkrYRVnf3iVYFXQWnTbY75bMFjrW7pdCvQVVsKqawSEVe1hFWV2FTXPbJg/O2pw3mANu3RKvcElHc9AWAmrXBAQVsIqYp6ZT8gbLG/odj6weyHJIayElbAqY6woI6zawPryjopX7AAsN5xvCythJaySwcpTQSYft2LFyssIq7boTio4O2ewhlzz0EjgUGElrIRVMjOrdDbcIKw6uy88L2ewgpCvCSthJaySWwZm3TYKq87CPufPH79/ZLBGND3QG3yssBJWwiq5a1bBTnVryTvi3C20nLBqEwsPzowM1oaNwdng9cJKWAmrZLDCCfdZ1mv5Do9pLQZWXm5YtT/X2OhLQgvPFlbCSlglhhXgK+65Z1y2tDOrMsWq7TmH+fzj9uwSrCFX3b8b2AhhVeNYeQ1g5SXDCpxlXTZpytNVgVUuGG9+OgtIp0/uEqyUpc7AqRNWNY4VNYAVJcIKwGxxl80aBvVVgZV7jlhtvu3ELsFy/JS8sPIawMqFlbCKAau2eCVC43arXawAGLXtDg5b/WNE01Npd0blhRU1gBXCSljFghVO+EKEBt61JLUDywMrgL48N+PI7YK1buOqYQa9hZWwElbJYdV2hSac22UTB94vZ2/yGXdellhtnkdtFyyD0cJKWAmrZLECPpj742+9EaGZP9X1S3kVY+VgPmxHYB0nrISVsEoUK8Cmg3mEpv50TWPVFsM7BWtE01NpYLCwElbCKkmsAPfHIiW/+SH592ecWFEqrMDp7y8c/+kOYLVsWH00myviCCthJawSwQoyabdHIxJwSAVsbZwkVm2R/WQiFXxynzcKK2ElrBLFCvDps376L+932eKLTtkDZ9eax6ptqnlUB7BCwqOFlbASVoliBW6/jTa5yjZWFVa5hHd4jc1gbf7ovxkDhVW5YBVTcgircuuP9z9MZ+6LmLVDqworL+S4bWZYA5qm7AR8VlgJK2GVaH/cseT2SzZG8sq2BKuWsQJgX5/TuMtmsHq2dDsU2ElYCSthlVh/rNzJ7UeR5lbPj+mB29CiYkXZYgW4UVd30GawgjB7iLASVsIquf5wuOXpOyd8FMmMOk4Euhe1dqCXLVabZpypgzdfw3KzQ4SVsBJWCfWH+Vsb69ffkgMep5V9Oa5iYtUWn8ywHA4WVsJKWCXUH2EwYeEPL4+0HbI/NSINfqqw2rav/eDNYOF2kLASVsIqkf74xdw7JzwceXa1+05fAPrlfZ2ppLuFJoUVYOz/CVjm+worYSWsYu+PlxvgO+QSQfi1vPu0LLY2TgCrtugPYAOapuzUc0PdevBAWAmrQrDyRPqjYrFanoJhs++4aEnkyckLo/oRBG/DFjv+Cqv2yLCkX/d0w4ZUf2ElrIRVrP2x3txOm33nhMhYtc2ugglVjVVhfZ3mM8v6BXjbVEtYCSthFUt/tJr5V5rvnDAnF6v8tdG9gItz6sZKw8oL6WsgCPqnA2wvYSWshFUs/bHa4B+af/Ktx8k1Nti3gT45jb1awgqH0PZIG97XMWElrIRVYf3xrrl9sfnOCQtytcoXnbQrhN8pOVbRz7j4WAEQ7h5g7CashJWwKqg/5hOEw/PBCgDz64E+FV7hJmGsALPd0m62e6QGEFbCSlhte39o8OM1H/S9fNE941rymqssGtOI+9eEVZTjbLc0bDnDElbCSlhFPM9XwiD82vwfXzwz74XV/IF14Hfj29YHFVad3hGGu6fd6W3CSljVNFY5teUK3G76MJ2ZHHmrmO1FQ58bCDk85xypWKzIHysHLNg1bdBDWAkrYdXlayx38zuCILy5+fZLPqbA8JfGfJnQL418rl4NWHn+WLX90CONhztjVgNYFfjtd2FVq1gtNvhJJpP++YK7vrmOGMJfHn0EWb9bWOU49o0eacx6CCthJay2ir8bfh9wT/MdE2ZGqiEYeWZ1wr5kbRrQI36sKH+sCslR955pNpf2ElbCqkaxMlpwm+Mw3cymz+37bjNNTWHbnRcRG1YvjPk0IU+C75cMVl7+WBVWtqwhDXQXVsKqRrBynL8Drxn2amg8G4T+bCaTWhjXcm+7L7xo9D64PwUcIKzyztGeabBUx5MUViXGai3Y6+Cvg/8NY4W5L4dgfejhqvxSxnZwX7brQ7p4aOTXKDhsBy+1xWu4ZRz7OAjDldQFH2Opj1eE61cW/Je9fLB6cdRg3O4F9hFWheSo7ZQGTwurkmLVCszF7S8E4QJvCZ6Z++PxS1FURfhLo8fj9lOc+rLHKqdfrNhYAXgq7U7KhFWxsfrQ8Icwv39dEDy58Ifj1yq1qwyq+ac1UL/+dkL7n5HHTuWX40oQKwDSadtcTFVYJYyVA0+a+d19Wlc9+GgJliaKYi0Bx5yGbfgRbvsJq1hzNJ0GAmGVKFYhMMXNrp97y3nPK52rGKqXRx1MmLoN/AuJleOqeqx2+BKpNHgrm4qoCqvYsZqPBRc333LuHKVzFUP1wujPEtjlhJwLXqcKN4VgtUML0mlg4/bBElZ5DqQVYN9v7vXa7Z98nkdRVUjNH1hH9z6nY/YN4EQ2V6ASVglhBZBNg20E31lYxYOVwT2tO3X/xoIbxq1SWlcZUs+P6UGKEzAfC5wO2+wlJ6wKWO9G+j5zJg1hS8cPtQirPAZS1syunnPLuTfG+VUORQmBenX0AbSkjsb8aLDPgzeyZZGIfMZ3SbGKmr4JY5X/3l/tMyxhVSBW75vbP8659bwZcF5xk+qpEWkO6tOLdUEvgmwfyPaCoBeBp7f7oLw/wxnThz+zRX697T2lhQFGL9zq22ZLvhtm/XE/EDiAVuo/ee/xXJOrDLHySsYKsEyatg8uCqv8sXqPIDhhzs3nvpQoTN4U8ObzhxD6IJyBmH8W/DNg+7AxTJNqv1S2aS84t+0PLst30FiBfdf+NFHHkcWQXNsct9VTWsdzdy8wCYVV9NTNtT09037RXVjliVVIOGrezeMTwcrfPOsAwsyJYGNY+txI2quqbE54K9I7YQyfHyr1tRiK0U5UPlbEgZUngBWArd8ElrDKBytzRs6bfMHLsSL11ul7kQ3Oxv1sstnhdNisLM+LmInPGMocKy8GVirHlRxWAL4m7XiLCatcB1KrY2c3Tz4vNqz8jdNH4sGlZDgFSBGl9JqXC1YurIRVwlgBzpq0wZr8sSpgqlnJH11w/27z5PF/Lfy6FMYbX/oycDnO0fFcOxBWVY1VLlPaasIKIPC1aTc+sFBYRcYK/mvO5PNvL3g4LT2jkTdSt0A4vOvTqHKsSOBP8tWKVaVUuEminbKsTpvb8k62cRBWnWP1VveN3b9Z2NLvzD3Bf4TzD21fM6TAv7RUAVZOmSWhsCo7rBwIbFXaQl/uJqwiDSSzi2fcMW5N/lh96WTc/w+wR3kub4SVsCrgTTLRdgI8fD8dmi23rj4UJ6wwuGfOLedNywuqd8f0YEOPyThfL99rMQWP3irAisKwolqw8mSxIg+s2j5EtyJtzgdtf5ASVjsYSOtSdXXfyQurt8/elfXZh8CHly9W5DBoqhmrAsefynEl0E5bTbGWpwPC5WHcDVJdWAHcOfPGryzLfQl42v5kMo8BB5U3Vi6shFWRscrnTdKWp8OQD0gJqx0MpA3purpbcsbqzbMGEIbT265XCauywIpywIryx4piYJVHe4YsC1KWXi6stn+M5TG78jfO3JMwfLgoWFEpWFF6rLwcsKqVCjcxYwWQ9beCWT0XLgc2CKvO7w3S4U9ywmrZaQ24Pwjsm1uyJjwdr6nljbCqOqwgw9/6vxts2hFzqbDqdH71xKybLngt+iy+KWBDegowpDRJKKyEVS4pUDFYAbxj4+7JBpvaaYmw6uyY8Oc5Xbh64/nLMU7Ne/lWy1jF0k5UP1a5/NLVgxXAm7Bp86QgsCXCqsNBH67pXR/5c1e+9Ev/A/j3vAdNwTOGCsfK48DKqx8rr0msAH9lM1hO+Jqw6nDQw4uaxrVEXgpid7C5mEexsXJhJayKjBVFxAqALcFiibDa+jnc7KEcloLnA8OqGiuEVW5R8xVu4htTbbvPvroZrJTZa8Jqq/tbW8LsE5GG5eKTu4E3VT1WkZeh1Y6VynGVZO8v22JJ2K173zfYam/3msYKnObnJv/TykgJmur2DbB9qh8rF1bCqshYbf5pHa/3X7wZrBlNIzPAYmG1KYzZka9dmX1HWAmrqizHVXKsNn+HcKGNuye7Gay2GRfzhFX7mApmReq/pc+eCn5gybGiWrAiWayoFKwqvRxXnFgBZs+1/7gZLLctwapdrHDIQnO0gWXnxzdjKMJ0vFIq3JRNJSBhVXKs2vLs2Q5gBWbzhBUAKxdMPu+dLtt18cm7YJxS0uWNsBJWebcTFYIVYD67A1i91/d83vGNNY4VQLRKOHU7fRGnvoALEMKqkOWbagcWiJVXBlawkoGzF3UA69HbT9lo8EKNY0X7J2q7jDA4KfZBo9qBVba8qdFyXPFhBcZMM8IOYG16yLwaxwrD34w4yEZXFlYqxyWsio1VDG+Szswt/xls/Q+fW8tYAbgF73fZxq+fuS+wl7ASVoVFtWMVwyfdw/Dx7YLllp0OeK1itemnd7pu5LCx5rBS7UAqYjudSsKqy3ay5TQ2P7tdsJpvPPdvwIu1ilXbP7Orum5pOyq/hFU5LmElrKK3U/jYltevOoC16bX+WLNYAZBaH6ElDy5dEgorYVXAm2ReuVoKrBzcHt721o5gBfZo7WIFAdmNERrzoLLDilrBKuqvrNqBFb6r6gZagz90CVZm5cqngVWRB1QVYQUQBp6N0KKfLs2MgZgGl8pxCauyxgrgUfvczNVdgrXgrm+2YvZUrIlXIVhFGptPjUgDfVSOS1hVP1aUCivA7u18BdT5Ax8SVtuJ/XftC27CSrUDVTswKaxYRarlwehgbcjeC6yrPawiHJNt6RlPEqp2oCrcFICVVy1WAL+zQQvWRQar+fZzPzZ4sCaxau3qsLpuiU3HVY5LWNUcVp08VWC/3N6hwXafw+zXNYdVtNlFN2ElrOJbV9Y4Vh23kplvg2fPzRms5h7/PR14W1h1aLFUzWKVyzG1XjuwZstxUdj3KD28ecfpt71oagpx/lNY5Zlxqh1YBkkorCoKK3ibdOa+/MAC3INfwtYfja8OrLwEWKl2oLAqNlZUElaA3WiDFrTmDdbcW778qjlTqw8rqhOrXH4p1Q6sAayKXTuwAKyMZWT5RddXZLoIw75PpKutwkq1AytgeZPLLFTluCji3l/X2vDZXX6Pt0uwZt/ylWfBp9cGVl7hWKkcl7AqNlbEgdVLBK13R3mWIOJrXSescu00YVX95bhKjFUuJ1TsrY2jYwXYv3Z17SonsJpvOecp6Ky4qLBS7cAEklAVbvJopwrFyrjPGmc/FjXdgqgHWuCXd5r9wiqhJFQ5LmFV5VjhK8nYt3NJuchgzbnp3JkYvxVWwkpYFaudqGKsAPzbNnz23xMBC4BWuwJ8pbCqYawoNAlVO7Aqy3Hl3E7hFGuc+5tcUy8nsJpv++p7Zva/axor8k1C1Q5UOS5htemYJbh9I59MC3J9QPeee93h+LPCqtKXN8JKWMX8JhmtnVaTDc60oc0fFwWsGU0jM5YK/hFYXX1YeeVjhbBS7cBcsIpxTHXdTiGhnWvDZ7+Qb28E+Tyo+aZzFuN2YdVh5TkO5HLEKqY6FapwI6xibifHuNiGzZlWyNtHkO8Dm2895/eO3y2sKg0rleMSVsXGCjAm2ZDmOwqd7waFPDjl3S7BWVhbWGWElbAir++lVmXtwCgHhRNtSPP1cSzQCwJr9q3j1geEpwBLqwGrvK98qHZgnr+yagdW9xbQZHH/Z2uceyMxRVDoE8y+9fy/p1LZE4Flwop4Bo3KcQmrysdqNcZYG9p8FzFGEMeTzLrpgteyWU7Aeb+2sVLtQGFVbKxiepOMF6sXCTKDbcich4g5grieaP5t571CkD0FeFdYVTlWJJ2Eqh1YIeW4OnvFO8naEBs8/xUSiCDOJ2u++YIFAT4IbEFlYpVv7T7VDlQ5rqiz0CrFyvlvAsZY45wJUTbiKwuwoO2a1vqUf96wB6oSq9ZaWt4IK2HV5VOtAq5k59VH2eA500k4giSedOEPx6+d0+u1fzDjGsc3Vg1WJJWEwkq1A8sYq86f62PMfoj7IdY45wYbsKiFIkSQ2DM3NYVzbhn/HymCw4GnhFWRsMrlGNUOjOG4mivH9S7wPVrS+9mQ2Zfb0Ob3KGIESb/A7FvPW9Lca+lo3L6Fs0JYJYyVynEJq9ix8pXgvyHkDFKt+1jjnCY77umPKEGki/IqTU1hM/zkyMt+86v6rH8d98uA/pWJFcJKWBFv0YgCsSJ2rLLgLxIykxR/oGHNk8Va8pUHWJti4Q/HrwVuO/niH/30o1Sv8xw/Hxi+9UyvyrHK5fVVO7AGsCrpdjobgbfA3gDeBH8N8zk0dJ9vA2asoQwjXYoXffT2SzYCdwN3D/zOb/dMWzgW97HgjcDOJcPKi4BVLdQODHwsmdTbOz731vgGlOVwkEU4rrVI5x35d7IIx3ZxTGsrpFIbIViHrf+YTLol3z2pag6sLWPB5PPeAe5o+89t2KW/ODAbpo427Ejwfga93a2PmfdyvOtrbm47SK+wy3w1a12XLFa1UDswWGRHPr4YhaLawNrmrcJn38oSYAlwT9m3nmoHJrvMVii2iUBNUI1YRXWkCBVuFAqBJaxinYEJK4XAqhm1hJVCIbCEVd5Y5XJMErUDFQqBVWmeqRyXQiGwhJWwUggsRRGxQlgpFPlEWk1QAqyqvXZglgt94QnLC2/UMKbDwhhfOozn16kLf2lHzXpfiSOwqgCrSi/H5ZdhVkA7tS+ZLaZ2shjaaZvnKrSdNvIYILC0JBRWRcMql2NUO1BrZ4ElrAqbMRSIlSrcxNtOCoElrEqchMJKWAksYSWsKgkrhcAqvVjljRVJJ6FqB8aytbFCYFWMaapwU9vluBQCqzywUjkuYSWsBFY1YUUcSajagdEPL8cKNwqBVSlYxbJbaA1gVbXluBQCq6awUjmuqq4dqBBYwkpY5b+sLhArTbEElrBCtQOLglURawcqBJawSmB5k0sSCithJbCElbASVgJLUT1Y5XJMybCKevpexHYSVgKraqI1+mCvlNqBJcXKy6wSkLAq59AGfvFPv8pjxiCsOjsmBN4ElmH2Pu4NuO8Ntg+wi7ASWMJKWBWOFYW2E3/B7b9wn2aD/vpOh2d4akSaXcLjsfAMnAs+wUtYCSxhFVMSFlgMopKwyn87nYV4MNEGzvjjjl7JRs7IAH8C/uTPHHct+DU4/wLUJdNOypZ8Q9ewSoVV2e3DXnVY/RergsausOqA1zF//cCOefrbOCfgW+65HidWEktgCSth9Un8LzvmL+fYyBkb8u1VG/T00zjDgDdj3ftLWAksYVVCrHJpq2K0k9uv7Ji/XBvHGdvgp18n4AxgbdenHPPHPBQCK0mzaharUu791QErnqX78m/G2b12zNPPY/7PwkpgVb5Uwqq82smCK2zAopbYu/qYWf+JM1tYCSxhlTRWuRxT2bUDn7RjZkxPorfNcLB/E1YCS8vAXJM1V6xqpcKN8dtE+3zQ00+C/U1YCazKiiyZ4mGlclwR2zNLNng4yW43w3F/WFgJrAprMVsrrMoKK4BXbdCM5cl3vs0UVgKrsqI1XBcbVrmsOVU7cEfHvFOcSwHZZbG1k0JgFafFer1H25doC8dK5bgKmIVueaO/W5S+D9PvFKedFAIrrkXBgHtagGXCqlywAtwaitL5qUzPgpeBwkpgFT/8dWGVZwYms0PFnkV6u9qzIKyklcAqzTSLZ1Q7cIvnKf3Wxvu7Y0Xo+AMKwkpeCawSzbBmJjpjEFa5ttOneO7zg5Lvdv9ibFiF2bXKI4FVLLBmVRRWuUwFK7VoRBh+KdEeX/i5PhjHxTazyqZWKY8EVnFWhIc+sQznufLAKqovVV/h5hs+p3GXxDp9Y3gJUBfTMtDpvWqlMklgFTN+Vx5YqRzXphv7kq67PJHZ1fPDPwV8NyasAFuayJe0BZZi++Mx+/sus05YFQurTQ7wXX/m2FivZbkT0MJdwM7RZ7VdXWAPFyqBBFZxl4UDpr8F9kTBSZjLMaod2NVx9bg96POPi+9jDvOH/ztwRvSvMEX4a6DZU8oggVWCCP+j4CRUOa482mmHx+0N/id/9viDCpxZmc899t+BSbFihUPGHlHu5DlRUBMUuGR4acyfgeOFFeVW6PQjnAts8MxpOffpM8f1JQx/hvvY2LEynrEhzQOVOZphlagFrUlY5XhMEnt/dWynPhhTff6xT/q8YUMivdTTx+7s84ZfTTa7JBGs2tr+R0oazbBKPcv6Nc74hGcM5Y1VKbfTidZOS8CnEtosCN/FUu9C2IB7f7ADMP8i2AlAt5zaM7d2eo8Vu+5rpzy6UVkjsEoH1muje7EhWATsLazKEqsc2ykRrMD5pg1tvksZoyVhadU/cPoqzC8WVuWOVd7r0DjaaQGNzXcrWwRWeaB12BMPgN+s2oHljFXJttPJ4HaR2bb7qCkEVinjsGOvAB4oO6zKrRxXbWEFcLkNm9OsBIlhYqAmiDf87WH1fNzzT8BQYVWLWG3xem3/+50Nbf6qMkMzrPJ8B/j07PWbdg54UbUDY8Yq53YqOVZzSGe+rqwQWOWN1hFPvke6dSTuz0RKsNqqcJM/VmW9BXQHrP5CJj3GBi1Yp4wQWOWP1iEzlhMGx4NNFVY1h9UM1tefap+buVqZILAqB62jHl/LS73OAq7vNIOqDatcjkli76/ywOr3rK8/2UbOWKMMSCCn1ATFCV90wskQ/Bqnb/nPGBKscFMQVl5m7bQVVi3ARBvaPFmjXTOsyn9nGPCnR8kEh2P8VlhVHVYv4TZMWGmGVZ2zrRdOHIuFt+DsJ6zKDSty2dBwA86NrK+/zkbO2KCRLbCqF61Zw+rp2XAZxhVAz8SxivR0xdwttEyxig77g2RSl9mxs17TaBZYtQPXMyf3pa71CvAJQIOwKnOszGfgPska587W6BVYNbxMHNUPZwL4v8CmC/PCqlywCoGpEN4kqASWYsu0WTqiO2tS5+B8HXxodWG1gxcqzx0q3gd+RdZ+bsNnL9HoFFiKHaXRcyMHENjXgHG077UlrJLGagPOI+C/Y+c101SOS2ApcoXLmwKef3o4lj0bOB128NdFYZXPBnyrMR4n9KnAVBva/LFGncBSxAXYM6MOI+WngH8BGAY0lA1Wnd5cdlhlwZ/HmUHAozSs/otmUgJLUQy85g+so1uvwXh4HM7ncAYD/YTVVrESWADMxW0mnv2rZlECS1EuiD0/oj8hgzA7BsIBYAOAA8HTVY5VFmcpAS/ivIzxAmF2AUPmLjaLdWtWhcBSJIrYogE7kel7MO4HAfvjdgD4/rRdD+sP7FIRWDnvY7yH8ybGUvDXwZZi/jqruy3WJ84FlqI2lpYN0GtP0uGehNl+uO2O0QfzPoT0wYI+EPYG7wbWgNOTgDqcPtuY0qcTiD7axqc14K2bbs9grCZkPcbHGB/hfIjzEYQf4qmPsOx7ZMNlpDPv2aAFreqt2o3/D3HneqcO4W32AAAAJXRFWHRkYXRlOmNyZWF0ZQAyMDI1LTA3LTAxVDA5OjA0OjU1KzAwOjAwN+UAuQAAACV0RVh0ZGF0ZTptb2RpZnkAMjAyNS0wNy0wMVQwOTowNDo1NSswMDowMEa4uAUAAAAASUVORK5CYII=;" vertex="1" parent="_Ju0IBZojeqm3KYI9w8C-55">
          <mxGeometry x="10" y="40.98000000000002" width="40" height="40" as="geometry" />
        </mxCell>
        <mxCell id="_Ju0IBZojeqm3KYI9w8C-65" value="&lt;font style=&quot;font-size: 14px;&quot; face=&quot;Helvetica&quot;&gt;&lt;span style=&quot;background-color: rgba(0, 0, 0, 0); color: rgb(27, 28, 29);&quot;&gt;Simulate User Behavior&lt;/span&gt;&lt;/font&gt;" style="swimlane;whiteSpace=wrap;html=1;startSize=23;" vertex="1" parent="1">
          <mxGeometry x="239" y="260" width="290" height="101" as="geometry" />
        </mxCell>
        <mxCell id="_Ju0IBZojeqm3KYI9w8C-66" value="Python (Selenium)" style="text;html=1;align=center;verticalAlign=middle;resizable=0;points=[];autosize=1;strokeColor=none;fillColor=none;" vertex="1" parent="_Ju0IBZojeqm3KYI9w8C-65">
          <mxGeometry x="173.57" y="46.00000000000001" width="120" height="30" as="geometry" />
        </mxCell>
        <mxCell id="_Ju0IBZojeqm3KYI9w8C-67" value="" style="shape=image;verticalLabelPosition=bottom;labelBackgroundColor=default;verticalAlign=top;aspect=fixed;imageAspect=0;image=data:image/png,iVBORw0KGgoAAAANSUhEUgAAARMAAABhCAIAAAB6VtKRAAATOUlEQVR4Ae2diXsURfrH9+8ZOTS6iyvrrv46EAggISuH3LgYRSIQBQQxCHIIDyJXJItENHIEBKEzyeQ+JheZ3Am5J3cySSb3ZDJJZjJH/9CS2rK6p6enMwcZX548PG/X8VbVt+rTR1V1z184+AcKgALuK/AX97NADlAAFOCAHBgEoIAcBYAcOapBHlAAyIExAArIUQDIkaMa5AEFgBwYA6CAHAWAHDmqQR5QAMiBMQAKyFEAyJGjGuQBBYAcGAOggBwFgBw5qkEeUADIgTEACshRAMiRoxrkAQWAHBgDoIAcBYAcOapBHlAAyIExAArIUQDIkaMa5AEFgBwYA6CAHAVckLM+7U2GVTyff1+WRslpMeQBBTyhgAtynk9mGFYRolzYYWzxhALgAxSQo8BcJSex/Y6c5kIeUMBDCsxJcr4o2eOh5oMbUECmAnOPnA3pb05aTTKbC9lAAQ8pMMfIWZo4v3H0iYfaDm5AAfkKzDFyErRx8tsKOUEBzykwl8jZX/Sug3N4ru3gCRSQr8CcIWdt2r8MllFnDdUa6nWmLmexEA4KeFyBuUFOMPtC7XCFs8Z3T7SvVi3K7lE5SwDhoIDHFZgb5NxouOSs5cPTA+vS3mBYBZDjTCII94YCc4Cc3XnrHQ67YOMnrabtWSvQRgcgR1AiCPSSAs87OatViwan9IKNt9pn9hZsxvuD5jo5p8sPoj/BxkLg86bA806ORp8nKJmDc0RrdmNsAuBubVPGEoZVvJ36umB7IfB5U8Cf5GxI/z9y6PPtq7VnnOl15ckpKn2OblYzBA7OMTw9UDtckdHN3mqOTdDGJXXcU+tSyweL+id1zqrhwXAgx4Ni+sCV38i51Rxrc9g+LtxGAYAPI3LDrfYZQQnutXyPk2FD9t2a1T7zoDX+nXQGu+IbYapX9xfuSOq4J1gfjwTOLXJGzEOHHke8nfr6He13Hmn+nHPiH3IOFP0HrWmabdMfqtfxR2poUpCzM726Ny2YfYGfRR4545YxwQrw/TOs4tPH73mvg+cWOT+3/IAkWpo43zgz7j1ZnlvPfiDnnXTGNGPEikzMGLdlhVIj1dmtV+WQZmnifCoxOpRBjsE8gqfmGFaxJTPkfuuPNUOlk1aTzWEbNQ93GdvqRipzdKo72u+iNbtPlH2Cq+1xY26Rk9zxMybHYjd7XI3n36GvyVmmfLF9vJnSZXh6gHzmOVf5OZUAHXaMa1ckvSyIjYwZAqvd+kHu28hbeMri1K6HdodNsFzfBM4tcmwOW3aPKr7pW35v+kYuv5fia3IOFu0UbLPO1BWesphhFduyQs22aX4a/WTv26mvO8OGYRXOLlN8VyjkdvM15O0t1aLnofvnFjnOVP3zhPuaHIZVOHum1Brqw1P+0Wls5atvtBi2Zi4XwUYGOVszlyGHlYPF/BJ9HwLk+F7z2ZToB3IYVvGo/bb0Slvs5t1568WxcfdubWR6EDkMTQpytkFBeg09khLI8YiMPnPiH3IYVqHqvC+lkQ6H/dDjCJfYuEtO01gt8rm3YLOUavggDZDjA5E9WITfyAlmX8joTnTZkq+roqVgI5ucz4p3uayDWwlMM8ZcXUps7dloze6L1cePlnz0oDVea6h3eWWTTo6DczSOPrndfO1MxaFoze5T5Qeu1Z0r6s+ZtE6IV1Wjz4tvjEntekglsztsGd3sFyV7ogq3RRVuO6LZdVcb1z3RTiUjD6esk/GNMfGNMc4eL1GsxPNjUX82Si+400prqI9vjLnXcoOsAMdxLYaGBG3cmYrDnxRuP/Q44nr9N228ySeO4yatE/FN3+4v3BFVuG1/0btx9Reqh0opVzIO/UYOwyqCE+fl6lJEKv1T01WJ2LhLzuCUHnlel/aGSAXcirI7bAnauNCkIME6R+SuERwWuAiJ5LQaGnfmhAkWEaJcKH4yulxzgmEVO3PCUKE2h624X/19w8W1af/iOwxmXzhfdXSCWD/AVeU4Dt/uRmsiyXBkOzgHchiZt4Efyw85V3kEpa8fqeLHqjrv//adsAUoato2xbbfwY+pVM0ftt3EHhpGq6/Xn1+tWkSlYVhFVMFW8VMDduLM8Cc5DKtYkjjfGTyZ3Up+g0VC3F3PQSOVYRUl+nxn6kgPtzts5D66zZlLozW74+ovXKg+hpeMwlL+XjNc5synFHLKBgqXPFvOeku1aE/+pgvVx67Xf7O/cAcm9lLNCZuT6XVEzrq0N2wOW2rXQ6wAUnVNymuReRt2qdeGKBdinS/XnBCssO/JeTrcxy1jj9pvYxLezV51uvzgjYbLZyoO/zv1H7jODaPV+snek2X7cUhw4rytmcv2Fmx+i6DovZwwlzcCgm1HgX4mB8FT2JdFVbF0oAAPEdx+ccNdchK0ccjh+rQ3Z/8+KRqU6IzeZWyjmlPcr16mfPEppcuVL41bxqhYdOiSnI5xLXKyNHF+gvY69WK5aca4r2ALatFdJ19rQJVckjgff7o1OHHesdK9OTrVmHkE18psm46tPYtcBSfOEzw3+4UcdG1cmjj/fNVRnakTV/jXa6B5KCJ3DarzurQ3QpQLGFYRmhR0vf58q6GJ3MaV3aNalfw3lDK16xfSiVu2x8hZn/bmnvyNu9Rr8ckPVU7i/+Se6OaxOhlOnN1wO5PDbJvGexdWJr+S3PGzs5Quw3tN3WhD0LHSvWQnkRnrRqqQFDcaLpPh2HZJzhcle9BoaDE04FykMWO37MnfxLCKtan/FKwGxpthFe9mr4pv+nZ4eoD0QNoRueGowoJfTfELOQyr+Kri0/7JHrKe2G4YrcGDLUS54GrtGWev399sikUpDxe/j7O7a8yKnB3ZKzO7lRT9HMfpJ3tLBwrutdzYkC71s9TLlS+hdRWdqXNNymtYAumGu+RwHNdhbCFXVyPzNqh1qTKu4OcqP0cf7B0xD4l0QFTBVoZVrEr+q+D34sTJ6TS2Ijjj6i+IFFHQl4kUU3bc5SfD5BT3q/mxVEhK5wPkSnDHul/IedAaT1WSOsSbQsoGCqko8nDcMoaatku9lgx3y5ZPzv3WH12WZLGbbzRcljj6Q5OCsnqSNmUslZieSiaDHI7jDOaRE2WfkK7WpLx2smy/qvO+yPmYbPjAVB/aSnel5iQZzrdTux6iggr6Mvmx4uR8WfYxwypWJL1MbvnjO7HarWGqVxlW8VnxB/xYTE7zWB0/lgqpGS5DtT1bcZiK8ssMAcMq+LOCVMWQSgyraBitpqKoQ/TAsyljCRUu/VAOOSuSXq4bqZReRq+pG51uyQHqcdvd5xyy/h3j2ovVx/GjJ67b0yeHgr5M6omCzMhx3MXq4yi9S02mrJPLlS8xrELw/keEHJ2pKzhxHsMqjpfuo0rnH8Y8Oc2wiu1ZK/hRbpHTPt6M2nVm7pBzvuooqrNLctAJemNGMF8liSFyyJExRqdtU3g4esmQd80hZbLarUX9OSfL9lNPWduyQtW9aWRK0kYjnmEVgtvtyJQcx6GHh6+roqnwp6sTIuQ8bLuJRLvV/F9+RiokvZtlWMXSxPl84DE5TWO1VC7+IUHOIX6sL+/W8L7slM4H/JqQIZgcwdltMiVS+510hgx0y3abHMFbw+6J9pTOBwna6+retOaxOv4Ywk3yEjYy9q2JyGSxm/N606M1keT83t6CzUaLgZ9rZfIrDKvYmrmMH8UPQduI9hVs4UeJkPND4+93vBq96+eT7B4VEnlgqo8qBcjBgviBnATtdVw8MgSX+U+VH8DPCfix1XvYeJYc3MDBKf3Rko9wtd/P/Tc1f2C1z6DYPfmbqodKXf6hRcxNGUtxEdgQIefSbyuYqI0ui8DLx/w7FiCHUtun1xzq6RZPtuLhhY3lypd+bLzSZ+rB0+c4ijLCUxZ/VvzBT01XNfo8tS71rjbuiGYXdctEZeEfzv5uDctKGReqj+Hi0roekbH4pgUnkGIIPpiKkIMffKU4x2mAHLKnKNsP15yi/myyEs1jdbirZBhhqlczu5WkQ2xb7OZHbbekz1B7jxy7wxb17HsJ1I2WfrJXRqv35G/EzcSGCDloJcfdgvSTvdg5MuCagwXxAznK9gRcPDKU7QnhKf/b+yC9g6M1keILIBzH6UydeMFb3LP3yOE4rmG0GpdOrsbYHDa0zDL7Hy0VIQePeHKln+oFKYfYD8wQ+IGcU+UHBDup09ga3xjjbDMiHnbYiNbsFvTDD+wY1+JcIoZXyTHbptG8MMMqqM01aMdURG44v+ZuhYiQk6C9jhrucuJbvEQgB+vjB3JWJr8ivufXYjc3jFbH1p5Fb0cLjvXVqkWj5mHcjN8WTC9tz1oRolwYolwQkRv+oDWefBa/+2yPmaA3FOhVcjiOw5+Von76Cq1bL1O+iJsjzxAhJ6snCbUxvZuV5xzlAnKwen4gh2EVkXkb+PPOuE6koe5N26Veyx/u1Cj/9PF7/DTkV9jNtmn+MiWVhfJJVmP2ttVuxdcc6n3vaE0kqomUKWORmoiQUzNUioo49DhCxIPLKJ+Rw3EcqvDuvPUua8VxHH7LgD+rwXFcgKznIEU+Ltzm8hEFS3aj4RLKhf4PT1mMoziOK9Hnk7HYDlEumLJO4pS413ECyvAqOXgiJES5kNpMmaP7ff1ke9YK8jqJay7RECFnxm7BVzyRX0NxWRDW0NvPORzHoW3dO7JXuqzVb+T8uvHP2a6ZgCIHbZg/X3W0YbRGijTkSij1+Ru0W4TCAB2S7+6pe9ME0+BA75EzaTXtyd+ICvpc8yG/vXhvETVnzU8pEiJCztNTOF4TE1yJFnFLRvmSnB3ZK9FGO/HbE6t9JrXrl40ZwUjewL/m4PGK9qvfao7V6PNEZn6MM+N4Veda3ddkd0q0Xc7/ukVOz0SHxOtDx7gW33CGJgXxN4ZzHIc3MocmBd1v/VGiZ6rh4uRwHIf5/KRwu/ijJuUZH/qSnM+KP0CDhD8Zi+pjMI/80HiZfCPtz3LNIeHB9ofqdb+0/ST4Ydtvqr9AycTf+MXdzDdwKYKGW+Rsz1oRmhQUVbA1tvZsfm9Gq6GRfOFs0mrSmTqrhkqOl+4jy8rvzeDXCoXcav4vTvmhep1al0pu1RmZHqweKk3u+PlSzQlnNzAuyekytuEJ+tCkoPjGGHLLs9U+ozXUq3vTbjXHRhVsFZxL8CU5eFZjRdLLie13hqZ//ykXq92q0atPlx9EL58xrGJfwZa4+gtIvT/XNQePGNI4V3mEGmT4fuOXtp+oKImHaIcYWQppu0sOmdelHZ6y2OV2w+qhUvTrcdhbRO4aPK+AA53tDXVJDsdxEzPGryo+JV2FpywW/IqA4EftfEnOrxfJZ8vHZIVJ+2DRTvTYhpfLAp+ctan/JCUQtKnNATpTJ0p2ofoYiYqy4y765Ir4//ilJcGy3N23VjZQ+F39+f2FO8RpRNv1UzofULMCZP1J28Qb2bi2wYnzNmYEH9Hseth2U9CbFHJQWWpdqrOZxlXJf4vM23C19kzHuJasGLJ9TM6M3fLtk6+wAtjYmBF8peZkn+l/r3bisRHg5HxcuI3juEdtt8SHHfXFIDw9RW1gKerPwZrOxpDx7gPHcQ7O0WlsLerPftR+G324KL4x5mZTbHo3WzdSJX3+kBymRouhbqRS1Xk/vjHmUdutEn1+90S71W4l0/DtccsY+uNH8UOsdmuHsaWgL/OO9rvbzdeye5IbR5+QN5z8LO6GTNum0O5Swe8QSPdmtBg0+rzbzdfiG2PyezPkSSq9OJ+ldPstg1XJfx2ZHkT1G5zS4wdBatC/lxNGTarg3e9hKX+nmoe/DkM5cevQrbs1qgJwCAq4q4Db5GT3JFNljEwPVgw+vtfy/ZmKw4eL379UcyK7R8X/ZQhywy81e9sz0YEmMUlUnv6sTUFfpsEyim5jyChBG8ih+gUOvaqAe+S89+wjd+7WCd+qoUEfmhTEvxEvGyh60Br/9PWSgr5M8q2s+mdfjREEBgcCOe52CqSfjQLukcOwiuv137hbntFi2JIZgoc4MrZmLpd+X36l5iSVnX8I5LjbL5B+Ngq4TQ7DKnap17YaGiWWWjVU8p+c1fyBjj4LJuXzRSX6fGefQiXdAjkSewSSeUQBOeSg8Xqq/AC5EkfVZtJqUutS8aYVcohT9unyg84+Xtw0VivyE7yUHyCH6gI49KoC8snBAzcy750vS6NinpyOb4y5WnvmeOk+l2svOC82duaEHSvd+33DxRsNl06VH/gof6PISwo4F2kAOV4dKOCcUsAD5JDD14+2vPUcSg44BAUkKgDkSBQKkoECf1AAyPmDHHAACkhUAMiRKBQkAwX+oACQ8wc54AAUkKiAC3LkfQ7KL/MElUMaiW2GZKDA7BVwQc7sCwAPoEBAKgDkBGS3QqO8rgCQ43WJoYCAVADICchuhUZ5XQEgx+sSQwEBqQCQE5DdCo3yugJAjtclhgICUgEgJyC7FRrldQWAHK9LDAUEpAJATkB2KzTK6woAOV6XGAoISAWAnIDsVmiU1xUAcrwuMRQQkAoAOQHZrdAorysA5HhdYiggIBUAcgKyW6FRXlcAyPG6xFBAQCoA5ARkt0KjvK7A/wPHyyGapsBE6QAAAABJRU5ErkJggg==;" vertex="1" parent="_Ju0IBZojeqm3KYI9w8C-65">
          <mxGeometry x="60.16999999999999" y="41" width="113.4" height="40" as="geometry" />
        </mxCell>
        <mxCell id="_Ju0IBZojeqm3KYI9w8C-68" value="" style="shape=image;verticalLabelPosition=bottom;labelBackgroundColor=default;verticalAlign=top;aspect=fixed;imageAspect=0;image=data:image/png,iVBORw0KGgoAAAANSUhEUgAAASwAAAEsCAYAAAB5fY51AAAABGdBTUEAALGPC/xhBQAAACBjSFJNAAB6JgAAgIQAAPoAAACA6AAAdTAAAOpgAAA6mAAAF3CculE8AAAABmJLR0QA/wD/AP+gvaeTAAAAB3RJTUUH6QcBCQQ3JAMAGwAAKVpJREFUeNrt3XmcVOWd7/HP71S10A0KqAQX4hqXiMtVlgaMBgQxatSgI5NERecmMTMYTZyoKHrndiZO3KJiTDQx5ma7M8nFFYwaFSNJZGkWFxQdBcUlwQ0UZO+uOr/7R9MIdEOfqjqn1u/v9fJlU3Wq6vTzPL93Pc/pqudnKGo6jrzssR7d69buDUE/c/8UsJvhfdzoDfRx6GNObyAN9AJ2AnqA99j0c3t0w2n45J/e/sNKMN/i9nUOGwxfCawH32DYRzjrMD7EfQXGhxCsCC1c7h6817ox9ffnJo9dqd5SmJqgumPIVffvlgqCQzxr+2PsD+F+BvuHzt5m9HfosdUD3CM8q3dxk0d/vEd+jXU4b5nxdzfeNmcJoS/GfEnK6hfPvPGM1eptgaWokBh26ZT6sKH7URZmj4bgCPBDwQ4H77s9BDqQUL5Ydby/4yHLcF5weA7jeQ+yC3vU7/nKjKaRGY0OgaUocQy+8g8HpILweMePM2Mg7gOAdFQEqgyr7b3GGszmQjgLgtkbW3eapaWlwFIUIQY2PbR7XWt4Es4XgBFA/w5JKqy6uisLPh/jCYfHG3rsMVszMIGliGuZd+XUz7jZOMxPBwYDwXaTVFhFuKvDMauAhxzuT2VTf5x967j1GnUCS5FDNE6a2g8418y+gvvASBAIq3yw2ibCdZhNJeSXzTu/+iRNTaFGo8BSdJ5V1njlH060wC8EOx28LjIEwioGrLa+30J/i4BftmbCny2YfN47Gp8CSwEMaJqy0y4t9V925zLMj8gZAmEVO1bb/LPF4HfZwCfPu+mc5zRiBVZtRlNTMKz16LPcg+vAD8w5iYVVMbDa9obpFoQT59x03jMawAKrZmLYNVO/4G634hyaWwILqxJi1R4h+P8LPTVx3i1feVujWWBVbTQ2PdLfWlt/BDY2YnIIq/LCasu71xn+g+67tN48o+mfNmh0C6zqmlVdPfVsx34K7CqsKhyrrc/zpdC4YN7N587TKBdYlQ/VpVPqwx7dfmpu4wtKDmFVjli1Rwbn+829llyrj0IIrIqNwU0P75FqzT4CHC2sqharLeOxjAXnLrj5q8s1+gVWRcXnJj60Tybt04GDhFVNYNX+HEuzWU6ef9t5rygLBFZlLAOvnPoZT9l0YF9hVVNYtWfUCs+Gp82dfP5sZYPAKutobHqkv7VkmjH2ElY1iNUnsdrD8CShFX8EaoJ44uSLH+lmLdl7hVXNYwWwswXBH4d+57fHKDMEVlnGR7u03o55o7Cqeaza+2MXN//DwG//Zh9lh8Aqr6Xg1dPOAvuGsBJW2/THnnUp7h144c/qlCUCqyxi2KVT6g1+KKyEVWf94c7gdI/6a5QpAqs8okf9VcB+wkpY7aA/JjX+6/8dqmQpPPRXwkKWgk2P7GKtmb/h7JwcVrYBfHro/rBhr2cDX2ahrzOzfrjvYdgw4Eu0f+ZLWJUbVu0HLN41s+qIR2+/ZKMyJ/9IqwkK0D6TOT8prBxWgt9Q3631xzOaxq3p5KDXN/3/AeCKwVfeNzgg+AH4aGFVdlgBHPRRqteFwO3KHM2wShJDJ01bBBwWN1aG35uFf5573Zkrcj2nIRPvO9UCfoOzq7AqG6za453M2g2fWXDXN9cpe/ILXcPKdzl4zUMHJYCVY3xv9nVjx+WDFcDcG856OPBsI/CysCorrAD2TPXofpGyR2AVP8LwlPiXgfb9OT8Y27R1affcY/b145aE2ewJwNvCqmywalvSOBfR1KS8E1hFXku7DYsTK+D+5uvOaIrr/ObdNO5dCMYC64XVtveXBqtNN+/b+PH+n1cGCaziggWHx4jVGrdgQqEzq22j+fqxC4CbhVXUvkgcq7axE4bnK4MEVlHDzfeLCSvcubH5B2e8l8iJ1q+/yeEDYVUeWG1a+p9x9tlTUsoigVWU2DTYGuLACmit757cn7qbm879OMB+LqzKA6tN0fvtvdccpUwSWEWJdw5s2IUdfiQk+ifYDZ6a0TR2ZZLnmzUeFFZlgxUAoQW6jiWwirQcDLP1cWAFEMKjSZ/vvOvPnA+8L6zKAysAcwYrkwRWqSnLCQEHLLDXkj8vc2CpsCoPrDbFIcoXgVVRWAFks9l3i3F2hi8TVmWDFcDByhmBVVFYtf2jrihf0wiNdcKqbLACvOexV/xiZ+WOwKocrABS2T2KMsNy9hRWEc6zOFi1za5bgt2UP7mFdmsoJVbuBPheRTrZvYRVV+dZPKwAzNAMSzOsImLlxLD5nh2b9JkOv+z+T+Gd7ZcVcXkkrGLHCgd319bJAqu4k6vCsAKcLyX9ZdhMkDkNSOWFFYUgIKy2hxVA1k2fdhdY5SVZhG2N+w3dcMQJSZ6RwTnCqrywUgisSsSq7WYLrgNPZDPFIRPvPQlspLASVgJLUTBWm+4b1HjV/efGfUYnX/xIN/PwBmElrASWIh6sPnnQz4Zcce+gOM9qRf3aH4MdJazKESsJJrAqFau2R9UHgd03/PIHDozjrBovn/JvBl8XVsJKYCnixqr9p32y6XDu4CvuGVXIMrBx4r2/xOx7wkpYCSxFIlhtjpBdAwseHXrlfbcfd9WUvrmc0ZCJU079qH7NfNwvEFbCqhpDn3SPnS7iqMhc5+7favHg/CET7/mVO1N7NOz+5xlNIzPbPmTY1VP2zrYGpxnhubgd67kkSMFY5fF7CiuFwKoqrLb8x86GXWzGxevXr1jdOPHet4C/Gb4uhH5m7B22so/h1nE/QWElrASWonhYbRs7AwPABzibeArzSGJhJawqOHQNqzKwipgcwkpYCSxFl/kprISVsBJYwkpYVStWLtAElrASVsJKYCmElbASVgKrukUTVsJKWAksYSWsKh8r0SWwhJWwElYCSyGshJWwEljCSljVOFatShuBJayEVSVgpbmWwBJWwkpYCSyFsBJWwkpgCSthJawUAqvUfgkrYSWsBJawElbCqqZDG/jlEZmG1Wt8Q31bvb8Om+jtqB5qGPEVdvAcYVjY4/M5hzDX5wgxow9uFwqrHZynKZdyDTWZIpFovPw/DyLrrwqrHUw+g3DIvNsunKfRoiWhojLWzzWLlZaJAkshrISVwFIohJWwElgKYSWsFAJLIayElcBSKISVsBJYilp0TFgpcg99cFQhrMoUK3/piweRDn8X6eDQc+yDDjeuAtZi/h4hi8FfxYLn7LN/fENgFdaN9rkrH+7dGmR3CsNMj7rAGrKhdUv2NYuw0VprBZxjLr0Uhp82YZXfcrk9UjTgDMz1XHf4el19Var9E/hu4I6/dNKbwJ9xfxxaptqAGWsEVicxoumB3htbrNFDBgGfwdgP2Bem9s9AnTmkLCB0MNtOX8RWiitIPjmCPAe3RznHTp4j4e8GCqsCsYr8zhAjVp2f3r7AeMzGQ7c1/tKY+3F+zWGPP2VW/PVu2YA17NIp9XSvPym08DTDhm1oCQ/Fse1/eaiLQVUWdQPjKP2kLzILq5Jhte1xPdvwYjwvj3nBF/n3OeyJe4sJV0nBOvniR7p9tHPmDPCzHE6FsEebT2FOySGshJWwShyrbf95BNgUXhrzjL8YTrLDpz9WtWANbHpo97oW/9pHtF4M7N3pOlpYCatqxyrfy46lx2rLOAYL/uiLTryHdOsEO2TG8qoBa/jVD++b9exV1hKOB+o7bRhhJaxqAat8J1uxYRX1XDzCsQ5wNpm64/3F0RfZ4dPvq2iwBl74s7r07ntMCD1zrUHP7TaMsBJWwqpIWOXRx123cT/M7vVFo+/i/cxFNnJGJm5LEv/g6NBrHhxdt/seCw0mI6yEVdlg5cIqXqy2uNkupG/dw/7siN4VM8MaOHFKr3TQ7U5CvtL1wEkSq/J8JxdWpcaqq0dUOVYFjaNI/TiGurqZvnD0aXbk9NfLeoY15Oqpg+pS3Z4zE1bCSljl1x8JY+WJYtV+w2EEzPJFow4rW7CGTpo2LnD+DOwnrISVsCoAq0h/RixbrNp/6IfbE/7SiQeVHVhDJ02bCP57oEFYCSthVQhWRO/78sWqPfbC/TFfNGKPsgGrcdLUG8Gvp8vCFsJKWAmruM0qY6zaImR/wvRDPv+0hpKDNezqadcZXB6pdYWVsBJW8UhVKVh9cvMguq/9eUnBGnrVtEnufqWwElbCSlh1fd72VX9x1EUlAWvopGnjML9WWAkrYVWNWEX9tT3CsVud083+wqgjiwrWsKsfHA7+a3TNSlgJqyrFyuPHqi26Ab/xxSfnvI9dXmAdd9Ujfd1tCtBdWAkrYVVAf9QeVu1xFOtbJhYBLLdWy/yCDrssCCthJawqCqukfsfoW0RP8oVjDk0UrMZJ0y4BP01YCSthlVR/FAkrLyFW3r40zNyWGFhDrpm2v8G1wkpYCatiYEU1Y9X+wxh/ftQXEgErlfW72e6OC8JKWAmrWLGi6rFqC/MbfcrZqVjBGjpp2jg3ThBWwkpYVQpWlD9WbXEEh3745djAGnbplHrwG4SVsBJWlYSVVwJW7bdf7d7UpUeRwPLu3S5mu7svCCthJazy649WYfVJfJaFfx5bMFgjmqb0xLhMWAkrYRVnf3iVYFXQWnTbY75bMFjrW7pdCvQVVsKqawSEVe1hFWV2FTXPbJg/O2pw3mANu3RKvcElHc9AWAmrXBAQVsIqYp6ZT8gbLG/odj6weyHJIayElbAqY6woI6zawPryjopX7AAsN5xvCythJaySwcpTQSYft2LFyssIq7boTio4O2ewhlzz0EjgUGElrIRVMjOrdDbcIKw6uy88L2ewgpCvCSthJaySWwZm3TYKq87CPufPH79/ZLBGND3QG3yssBJWwiq5a1bBTnVryTvi3C20nLBqEwsPzowM1oaNwdng9cJKWAmrZLDCCfdZ1mv5Do9pLQZWXm5YtT/X2OhLQgvPFlbCSlglhhXgK+65Z1y2tDOrMsWq7TmH+fzj9uwSrCFX3b8b2AhhVeNYeQ1g5SXDCpxlXTZpytNVgVUuGG9+OgtIp0/uEqyUpc7AqRNWNY4VNYAVJcIKwGxxl80aBvVVgZV7jlhtvu3ELsFy/JS8sPIawMqFlbCKAau2eCVC43arXawAGLXtDg5b/WNE01Npd0blhRU1gBXCSljFghVO+EKEBt61JLUDywMrgL48N+PI7YK1buOqYQa9hZWwElbJYdV2hSac22UTB94vZ2/yGXdellhtnkdtFyyD0cJKWAmrZLECPpj742+9EaGZP9X1S3kVY+VgPmxHYB0nrISVsEoUK8Cmg3mEpv50TWPVFsM7BWtE01NpYLCwElbCKkmsAPfHIiW/+SH592ecWFEqrMDp7y8c/+kOYLVsWH00myviCCthJawSwQoyabdHIxJwSAVsbZwkVm2R/WQiFXxynzcKK2ElrBLFCvDps376L+932eKLTtkDZ9eax6ptqnlUB7BCwqOFlbASVoliBW6/jTa5yjZWFVa5hHd4jc1gbf7ovxkDhVW5YBVTcgircuuP9z9MZ+6LmLVDqworL+S4bWZYA5qm7AR8VlgJK2GVaH/cseT2SzZG8sq2BKuWsQJgX5/TuMtmsHq2dDsU2ElYCSthlVh/rNzJ7UeR5lbPj+mB29CiYkXZYgW4UVd30GawgjB7iLASVsIquf5wuOXpOyd8FMmMOk4Euhe1dqCXLVabZpypgzdfw3KzQ4SVsBJWCfWH+Vsb69ffkgMep5V9Oa5iYtUWn8ywHA4WVsJKWCXUH2EwYeEPL4+0HbI/NSINfqqw2rav/eDNYOF2kLASVsIqkf74xdw7JzwceXa1+05fAPrlfZ2ppLuFJoUVYOz/CVjm+worYSWsYu+PlxvgO+QSQfi1vPu0LLY2TgCrtugPYAOapuzUc0PdevBAWAmrQrDyRPqjYrFanoJhs++4aEnkyckLo/oRBG/DFjv+Cqv2yLCkX/d0w4ZUf2ElrIRVrP2x3txOm33nhMhYtc2ugglVjVVhfZ3mM8v6BXjbVEtYCSthFUt/tJr5V5rvnDAnF6v8tdG9gItz6sZKw8oL6WsgCPqnA2wvYSWshFUs/bHa4B+af/Ktx8k1Nti3gT45jb1awgqH0PZIG97XMWElrIRVYf3xrrl9sfnOCQtytcoXnbQrhN8pOVbRz7j4WAEQ7h5g7CashJWwKqg/5hOEw/PBCgDz64E+FV7hJmGsALPd0m62e6QGEFbCSlhte39o8OM1H/S9fNE941rymqssGtOI+9eEVZTjbLc0bDnDElbCSlhFPM9XwiD82vwfXzwz74XV/IF14Hfj29YHFVad3hGGu6fd6W3CSljVNFY5teUK3G76MJ2ZHHmrmO1FQ58bCDk85xypWKzIHysHLNg1bdBDWAkrYdXlayx38zuCILy5+fZLPqbA8JfGfJnQL418rl4NWHn+WLX90CONhztjVgNYFfjtd2FVq1gtNvhJJpP++YK7vrmOGMJfHn0EWb9bWOU49o0eacx6CCthJay2ir8bfh9wT/MdE2ZGqiEYeWZ1wr5kbRrQI36sKH+sCslR955pNpf2ElbCqkaxMlpwm+Mw3cymz+37bjNNTWHbnRcRG1YvjPk0IU+C75cMVl7+WBVWtqwhDXQXVsKqRrBynL8Drxn2amg8G4T+bCaTWhjXcm+7L7xo9D64PwUcIKzyztGeabBUx5MUViXGai3Y6+Cvg/8NY4W5L4dgfejhqvxSxnZwX7brQ7p4aOTXKDhsBy+1xWu4ZRz7OAjDldQFH2Opj1eE61cW/Je9fLB6cdRg3O4F9hFWheSo7ZQGTwurkmLVCszF7S8E4QJvCZ6Z++PxS1FURfhLo8fj9lOc+rLHKqdfrNhYAXgq7U7KhFWxsfrQ8Icwv39dEDy58Ifj1yq1qwyq+ac1UL/+dkL7n5HHTuWX40oQKwDSadtcTFVYJYyVA0+a+d19Wlc9+GgJliaKYi0Bx5yGbfgRbvsJq1hzNJ0GAmGVKFYhMMXNrp97y3nPK52rGKqXRx1MmLoN/AuJleOqeqx2+BKpNHgrm4qoCqvYsZqPBRc333LuHKVzFUP1wujPEtjlhJwLXqcKN4VgtUML0mlg4/bBElZ5DqQVYN9v7vXa7Z98nkdRVUjNH1hH9z6nY/YN4EQ2V6ASVglhBZBNg20E31lYxYOVwT2tO3X/xoIbxq1SWlcZUs+P6UGKEzAfC5wO2+wlJ6wKWO9G+j5zJg1hS8cPtQirPAZS1syunnPLuTfG+VUORQmBenX0AbSkjsb8aLDPgzeyZZGIfMZ3SbGKmr4JY5X/3l/tMyxhVSBW75vbP8659bwZcF5xk+qpEWkO6tOLdUEvgmwfyPaCoBeBp7f7oLw/wxnThz+zRX697T2lhQFGL9zq22ZLvhtm/XE/EDiAVuo/ee/xXJOrDLHySsYKsEyatg8uCqv8sXqPIDhhzs3nvpQoTN4U8ObzhxD6IJyBmH8W/DNg+7AxTJNqv1S2aS84t+0PLst30FiBfdf+NFHHkcWQXNsct9VTWsdzdy8wCYVV9NTNtT09037RXVjliVVIOGrezeMTwcrfPOsAwsyJYGNY+txI2quqbE54K9I7YQyfHyr1tRiK0U5UPlbEgZUngBWArd8ElrDKBytzRs6bfMHLsSL11ul7kQ3Oxv1sstnhdNisLM+LmInPGMocKy8GVirHlRxWAL4m7XiLCatcB1KrY2c3Tz4vNqz8jdNH4sGlZDgFSBGl9JqXC1YurIRVwlgBzpq0wZr8sSpgqlnJH11w/27z5PF/Lfy6FMYbX/oycDnO0fFcOxBWVY1VLlPaasIKIPC1aTc+sFBYRcYK/mvO5PNvL3g4LT2jkTdSt0A4vOvTqHKsSOBP8tWKVaVUuEminbKsTpvb8k62cRBWnWP1VveN3b9Z2NLvzD3Bf4TzD21fM6TAv7RUAVZOmSWhsCo7rBwIbFXaQl/uJqwiDSSzi2fcMW5N/lh96WTc/w+wR3kub4SVsCrgTTLRdgI8fD8dmi23rj4UJ6wwuGfOLedNywuqd8f0YEOPyThfL99rMQWP3irAisKwolqw8mSxIg+s2j5EtyJtzgdtf5ASVjsYSOtSdXXfyQurt8/elfXZh8CHly9W5DBoqhmrAsefynEl0E5bTbGWpwPC5WHcDVJdWAHcOfPGryzLfQl42v5kMo8BB5U3Vi6shFWRscrnTdKWp8OQD0gJqx0MpA3purpbcsbqzbMGEIbT265XCauywIpywIryx4piYJVHe4YsC1KWXi6stn+M5TG78jfO3JMwfLgoWFEpWFF6rLwcsKqVCjcxYwWQ9beCWT0XLgc2CKvO7w3S4U9ywmrZaQ24Pwjsm1uyJjwdr6nljbCqOqwgw9/6vxts2hFzqbDqdH71xKybLngt+iy+KWBDegowpDRJKKyEVS4pUDFYAbxj4+7JBpvaaYmw6uyY8Oc5Xbh64/nLMU7Ne/lWy1jF0k5UP1a5/NLVgxXAm7Bp86QgsCXCqsNBH67pXR/5c1e+9Ev/A/j3vAdNwTOGCsfK48DKqx8rr0msAH9lM1hO+Jqw6nDQw4uaxrVEXgpid7C5mEexsXJhJayKjBVFxAqALcFiibDa+jnc7KEcloLnA8OqGiuEVW5R8xVu4htTbbvPvroZrJTZa8Jqq/tbW8LsE5GG5eKTu4E3VT1WkZeh1Y6VynGVZO8v22JJ2K173zfYam/3msYKnObnJv/TykgJmur2DbB9qh8rF1bCqshYbf5pHa/3X7wZrBlNIzPAYmG1KYzZka9dmX1HWAmrqizHVXKsNn+HcKGNuye7Gay2GRfzhFX7mApmReq/pc+eCn5gybGiWrAiWayoFKwqvRxXnFgBZs+1/7gZLLctwapdrHDIQnO0gWXnxzdjKMJ0vFIq3JRNJSBhVXKs2vLs2Q5gBWbzhBUAKxdMPu+dLtt18cm7YJxS0uWNsBJWebcTFYIVYD67A1i91/d83vGNNY4VQLRKOHU7fRGnvoALEMKqkOWbagcWiJVXBlawkoGzF3UA69HbT9lo8EKNY0X7J2q7jDA4KfZBo9qBVba8qdFyXPFhBcZMM8IOYG16yLwaxwrD34w4yEZXFlYqxyWsio1VDG+Szswt/xls/Q+fW8tYAbgF73fZxq+fuS+wl7ASVoVFtWMVwyfdw/Dx7YLllp0OeK1itemnd7pu5LCx5rBS7UAqYjudSsKqy3ay5TQ2P7tdsJpvPPdvwIu1ilXbP7Orum5pOyq/hFU5LmElrKK3U/jYltevOoC16bX+WLNYAZBaH6ElDy5dEgorYVXAm2ReuVoKrBzcHt721o5gBfZo7WIFAdmNERrzoLLDilrBKuqvrNqBFb6r6gZagz90CVZm5cqngVWRB1QVYQUQBp6N0KKfLs2MgZgGl8pxCauyxgrgUfvczNVdgrXgrm+2YvZUrIlXIVhFGptPjUgDfVSOS1hVP1aUCivA7u18BdT5Ax8SVtuJ/XftC27CSrUDVTswKaxYRarlwehgbcjeC6yrPawiHJNt6RlPEqp2oCrcFICVVy1WAL+zQQvWRQar+fZzPzZ4sCaxau3qsLpuiU3HVY5LWNUcVp08VWC/3N6hwXafw+zXNYdVtNlFN2ElrOJbV9Y4Vh23kplvg2fPzRms5h7/PR14W1h1aLFUzWKVyzG1XjuwZstxUdj3KD28ecfpt71oagpx/lNY5Zlxqh1YBkkorCoKK3ibdOa+/MAC3INfwtYfja8OrLwEWKl2oLAqNlZUElaA3WiDFrTmDdbcW778qjlTqw8rqhOrXH4p1Q6sAayKXTuwAKyMZWT5RddXZLoIw75PpKutwkq1AytgeZPLLFTluCji3l/X2vDZXX6Pt0uwZt/ylWfBp9cGVl7hWKkcl7AqNlbEgdVLBK13R3mWIOJrXSescu00YVX95bhKjFUuJ1TsrY2jYwXYv3Z17SonsJpvOecp6Ky4qLBS7cAEklAVbvJopwrFyrjPGmc/FjXdgqgHWuCXd5r9wiqhJFQ5LmFV5VjhK8nYt3NJuchgzbnp3JkYvxVWwkpYFaudqGKsAPzbNnz23xMBC4BWuwJ8pbCqYawoNAlVO7Aqy3Hl3E7hFGuc+5tcUy8nsJpv++p7Zva/axor8k1C1Q5UOS5htemYJbh9I59MC3J9QPeee93h+LPCqtKXN8JKWMX8JhmtnVaTDc60oc0fFwWsGU0jM5YK/hFYXX1YeeVjhbBS7cBcsIpxTHXdTiGhnWvDZ7+Qb28E+Tyo+aZzFuN2YdVh5TkO5HLEKqY6FapwI6xibifHuNiGzZlWyNtHkO8Dm2895/eO3y2sKg0rleMSVsXGCjAm2ZDmOwqd7waFPDjl3S7BWVhbWGWElbAir++lVmXtwCgHhRNtSPP1cSzQCwJr9q3j1geEpwBLqwGrvK98qHZgnr+yagdW9xbQZHH/Z2uceyMxRVDoE8y+9fy/p1LZE4Flwop4Bo3KcQmrysdqNcZYG9p8FzFGEMeTzLrpgteyWU7Aeb+2sVLtQGFVbKxiepOMF6sXCTKDbcich4g5grieaP5t571CkD0FeFdYVTlWJJ2Eqh1YIeW4OnvFO8naEBs8/xUSiCDOJ2u++YIFAT4IbEFlYpVv7T7VDlQ5rqiz0CrFyvlvAsZY45wJUTbiKwuwoO2a1vqUf96wB6oSq9ZaWt4IK2HV5VOtAq5k59VH2eA500k4giSedOEPx6+d0+u1fzDjGsc3Vg1WJJWEwkq1A8sYq86f62PMfoj7IdY45wYbsKiFIkSQ2DM3NYVzbhn/HymCw4GnhFWRsMrlGNUOjOG4mivH9S7wPVrS+9mQ2Zfb0Ob3KGIESb/A7FvPW9Lca+lo3L6Fs0JYJYyVynEJq9ix8pXgvyHkDFKt+1jjnCY77umPKEGki/IqTU1hM/zkyMt+86v6rH8d98uA/pWJFcJKWBFv0YgCsSJ2rLLgLxIykxR/oGHNk8Va8pUHWJti4Q/HrwVuO/niH/30o1Sv8xw/Hxi+9UyvyrHK5fVVO7AGsCrpdjobgbfA3gDeBH8N8zk0dJ9vA2asoQwjXYoXffT2SzYCdwN3D/zOb/dMWzgW97HgjcDOJcPKi4BVLdQODHwsmdTbOz731vgGlOVwkEU4rrVI5x35d7IIx3ZxTGsrpFIbIViHrf+YTLol3z2pag6sLWPB5PPeAe5o+89t2KW/ODAbpo427Ejwfga93a2PmfdyvOtrbm47SK+wy3w1a12XLFa1UDswWGRHPr4YhaLawNrmrcJn38oSYAlwT9m3nmoHJrvMVii2iUBNUI1YRXWkCBVuFAqBJaxinYEJK4XAqhm1hJVCIbCEVd5Y5XJMErUDFQqBVWmeqRyXQiGwhJWwUggsRRGxQlgpFPlEWk1QAqyqvXZglgt94QnLC2/UMKbDwhhfOozn16kLf2lHzXpfiSOwqgCrSi/H5ZdhVkA7tS+ZLaZ2shjaaZvnKrSdNvIYILC0JBRWRcMql2NUO1BrZ4ElrAqbMRSIlSrcxNtOCoElrEqchMJKWAksYSWsKgkrhcAqvVjljRVJJ6FqB8aytbFCYFWMaapwU9vluBQCqzywUjkuYSWsBFY1YUUcSajagdEPL8cKNwqBVSlYxbJbaA1gVbXluBQCq6awUjmuqq4dqBBYwkpY5b+sLhArTbEElrBCtQOLglURawcqBJawSmB5k0sSCithJbCElbASVgJLUT1Y5XJMybCKevpexHYSVgKraqI1+mCvlNqBJcXKy6wSkLAq59AGfvFPv8pjxiCsOjsmBN4ElmH2Pu4NuO8Ntg+wi7ASWMJKWBWOFYW2E3/B7b9wn2aD/vpOh2d4akSaXcLjsfAMnAs+wUtYCSxhFVMSFlgMopKwyn87nYV4MNEGzvjjjl7JRs7IAH8C/uTPHHct+DU4/wLUJdNOypZ8Q9ewSoVV2e3DXnVY/RergsausOqA1zF//cCOefrbOCfgW+65HidWEktgCSth9Un8LzvmL+fYyBkb8u1VG/T00zjDgDdj3ftLWAksYVVCrHJpq2K0k9uv7Ji/XBvHGdvgp18n4AxgbdenHPPHPBQCK0mzaharUu791QErnqX78m/G2b12zNPPY/7PwkpgVb5Uwqq82smCK2zAopbYu/qYWf+JM1tYCSxhlTRWuRxT2bUDn7RjZkxPorfNcLB/E1YCS8vAXJM1V6xqpcKN8dtE+3zQ00+C/U1YCazKiiyZ4mGlclwR2zNLNng4yW43w3F/WFgJrAprMVsrrMoKK4BXbdCM5cl3vs0UVgKrsqI1XBcbVrmsOVU7cEfHvFOcSwHZZbG1k0JgFafFer1H25doC8dK5bgKmIVueaO/W5S+D9PvFKedFAIrrkXBgHtagGXCqlywAtwaitL5qUzPgpeBwkpgFT/8dWGVZwYms0PFnkV6u9qzIKyklcAqzTSLZ1Q7cIvnKf3Wxvu7Y0Xo+AMKwkpeCawSzbBmJjpjEFa5ttOneO7zg5Lvdv9ibFiF2bXKI4FVLLBmVRRWuUwFK7VoRBh+KdEeX/i5PhjHxTazyqZWKY8EVnFWhIc+sQznufLAKqovVV/h5hs+p3GXxDp9Y3gJUBfTMtDpvWqlMklgFTN+Vx5YqRzXphv7kq67PJHZ1fPDPwV8NyasAFuayJe0BZZi++Mx+/sus05YFQurTQ7wXX/m2FivZbkT0MJdwM7RZ7VdXWAPFyqBBFZxl4UDpr8F9kTBSZjLMaod2NVx9bg96POPi+9jDvOH/ztwRvSvMEX4a6DZU8oggVWCCP+j4CRUOa482mmHx+0N/id/9viDCpxZmc899t+BSbFihUPGHlHu5DlRUBMUuGR4acyfgeOFFeVW6PQjnAts8MxpOffpM8f1JQx/hvvY2LEynrEhzQOVOZphlagFrUlY5XhMEnt/dWynPhhTff6xT/q8YUMivdTTx+7s84ZfTTa7JBGs2tr+R0oazbBKPcv6Nc74hGcM5Y1VKbfTidZOS8CnEtosCN/FUu9C2IB7f7ADMP8i2AlAt5zaM7d2eo8Vu+5rpzy6UVkjsEoH1muje7EhWATsLazKEqsc2ykRrMD5pg1tvksZoyVhadU/cPoqzC8WVuWOVd7r0DjaaQGNzXcrWwRWeaB12BMPgN+s2oHljFXJttPJ4HaR2bb7qCkEVinjsGOvAB4oO6zKrRxXbWEFcLkNm9OsBIlhYqAmiDf87WH1fNzzT8BQYVWLWG3xem3/+50Nbf6qMkMzrPJ8B/j07PWbdg54UbUDY8Yq53YqOVZzSGe+rqwQWOWN1hFPvke6dSTuz0RKsNqqcJM/VmW9BXQHrP5CJj3GBi1Yp4wQWOWP1iEzlhMGx4NNFVY1h9UM1tefap+buVqZILAqB62jHl/LS73OAq7vNIOqDatcjkli76/ywOr3rK8/2UbOWKMMSCCn1ATFCV90wskQ/Bqnb/nPGBKscFMQVl5m7bQVVi3ARBvaPFmjXTOsyn9nGPCnR8kEh2P8VlhVHVYv4TZMWGmGVZ2zrRdOHIuFt+DsJ6zKDSty2dBwA86NrK+/zkbO2KCRLbCqF61Zw+rp2XAZxhVAz8SxivR0xdwttEyxig77g2RSl9mxs17TaBZYtQPXMyf3pa71CvAJQIOwKnOszGfgPska587W6BVYNbxMHNUPZwL4v8CmC/PCqlywCoGpEN4kqASWYsu0WTqiO2tS5+B8HXxodWG1gxcqzx0q3gd+RdZ+bsNnL9HoFFiKHaXRcyMHENjXgHG077UlrJLGagPOI+C/Y+c101SOS2ApcoXLmwKef3o4lj0bOB128NdFYZXPBnyrMR4n9KnAVBva/LFGncBSxAXYM6MOI+WngH8BGAY0lA1Wnd5cdlhlwZ/HmUHAozSs/otmUgJLUQy85g+so1uvwXh4HM7ncAYD/YTVVrESWADMxW0mnv2rZlECS1EuiD0/oj8hgzA7BsIBYAOAA8HTVY5VFmcpAS/ivIzxAmF2AUPmLjaLdWtWhcBSJIrYogE7kel7MO4HAfvjdgD4/rRdD+sP7FIRWDnvY7yH8ybGUvDXwZZi/jqruy3WJ84FlqI2lpYN0GtP0uGehNl+uO2O0QfzPoT0wYI+EPYG7wbWgNOTgDqcPtuY0qcTiD7axqc14K2bbs9grCZkPcbHGB/hfIjzEYQf4qmPsOx7ZMNlpDPv2aAFreqt2o3/D3HneqcO4W32AAAAJXRFWHRkYXRlOmNyZWF0ZQAyMDI1LTA3LTAxVDA5OjA0OjU1KzAwOjAwN+UAuQAAACV0RVh0ZGF0ZTptb2RpZnkAMjAyNS0wNy0wMVQwOTowNDo1NSswMDowMEa4uAUAAAAASUVORK5CYII=;" vertex="1" parent="_Ju0IBZojeqm3KYI9w8C-65">
          <mxGeometry x="10.169999999999987" y="41" width="40" height="40" as="geometry" />
        </mxCell>
        <mxCell id="_Ju0IBZojeqm3KYI9w8C-69" value="" style="shape=flexArrow;endArrow=classic;html=1;rounded=0;" edge="1" parent="1">
          <mxGeometry width="50" height="50" relative="1" as="geometry">
            <mxPoint x="380" y="370" as="sourcePoint" />
            <mxPoint x="380" y="480" as="targetPoint" />
          </mxGeometry>
        </mxCell>
        <mxCell id="_Ju0IBZojeqm3KYI9w8C-70" value="" style="shape=flexArrow;endArrow=classic;html=1;rounded=0;" edge="1" parent="1">
          <mxGeometry width="50" height="50" relative="1" as="geometry">
            <mxPoint x="816" y="370" as="sourcePoint" />
            <mxPoint x="816" y="430" as="targetPoint" />
          </mxGeometry>
        </mxCell>
        <mxCell id="_Ju0IBZojeqm3KYI9w8C-71" value="" style="shape=flexArrow;endArrow=classic;html=1;rounded=0;" edge="1" parent="1">
          <mxGeometry width="50" height="50" relative="1" as="geometry">
            <mxPoint x="520" y="660" as="sourcePoint" />
            <mxPoint x="680" y="660" as="targetPoint" />
          </mxGeometry>
        </mxCell>
        <mxCell id="_Ju0IBZojeqm3KYI9w8C-72" value="" style="shape=flexArrow;endArrow=classic;html=1;rounded=0;" edge="1" parent="1">
          <mxGeometry width="50" height="50" relative="1" as="geometry">
            <mxPoint x="814" y="550" as="sourcePoint" />
            <mxPoint x="814" y="600" as="targetPoint" />
          </mxGeometry>
        </mxCell>
        <mxCell id="_Ju0IBZojeqm3KYI9w8C-73" value="" style="shape=flexArrow;endArrow=classic;html=1;rounded=0;" edge="1" parent="1">
          <mxGeometry width="50" height="50" relative="1" as="geometry">
            <mxPoint x="720" y="720" as="sourcePoint" />
            <mxPoint x="720" y="770" as="targetPoint" />
          </mxGeometry>
        </mxCell>
        <mxCell id="_Ju0IBZojeqm3KYI9w8C-74" value="" style="shape=flexArrow;endArrow=classic;html=1;rounded=0;" edge="1" parent="1">
          <mxGeometry width="50" height="50" relative="1" as="geometry">
            <mxPoint x="920" y="720" as="sourcePoint" />
            <mxPoint x="920" y="770" as="targetPoint" />
          </mxGeometry>
        </mxCell>
        <mxCell id="_Ju0IBZojeqm3KYI9w8C-75" value="" style="shape=flexArrow;endArrow=classic;html=1;rounded=0;dashed=1;" edge="1" parent="1">
          <mxGeometry width="50" height="50" relative="1" as="geometry">
            <mxPoint x="860" y="830" as="sourcePoint" />
            <mxPoint x="780" y="830" as="targetPoint" />
          </mxGeometry>
        </mxCell>
        <mxCell id="_Ju0IBZojeqm3KYI9w8C-76" value="Automated" style="text;html=1;align=center;verticalAlign=middle;whiteSpace=wrap;rounded=0;" vertex="1" parent="1">
          <mxGeometry x="400" y="410" width="70" height="30" as="geometry" />
        </mxCell>
        <mxCell id="_Ju0IBZojeqm3KYI9w8C-77" value="Automated" style="text;html=1;align=center;verticalAlign=middle;whiteSpace=wrap;rounded=0;" vertex="1" parent="1">
          <mxGeometry x="600" y="380" width="70" height="30" as="geometry" />
        </mxCell>
        <mxCell id="_Ju0IBZojeqm3KYI9w8C-78" value="Automated" style="text;html=1;align=center;verticalAlign=middle;whiteSpace=wrap;rounded=0;" vertex="1" parent="1">
          <mxGeometry x="840" y="560" width="70" height="30" as="geometry" />
        </mxCell>
        <mxCell id="_Ju0IBZojeqm3KYI9w8C-79" value="Automated" style="text;html=1;align=center;verticalAlign=middle;whiteSpace=wrap;rounded=0;" vertex="1" parent="1">
          <mxGeometry x="840" y="380" width="70" height="30" as="geometry" />
        </mxCell>
        <mxCell id="_Ju0IBZojeqm3KYI9w8C-81" value="Automated" style="text;html=1;align=center;verticalAlign=middle;whiteSpace=wrap;rounded=0;" vertex="1" parent="1">
          <mxGeometry x="730" y="730" width="70" height="30" as="geometry" />
        </mxCell>
      </root>
    </mxGraphModel>
  </diagram>
</mxfile>
